<svg id="thumb-estudantes" xmlns="http://www.w3.org/2000/svg" xmlns:xlink="http://www.w3.org/1999/xlink" width="200" height="200" viewBox="0 0 200 200">
  <defs>
    <clipPath id="clip-path">
      <path id="Shape" d="M0,0H35.8V64.224H0Z" fill="rgba(0,0,0,0)"/>
    </clipPath>
    <clipPath id="clip-path-2">
      <path id="Shape-2" data-name="Shape" d="M0,0H41.364V22.525H0Z" fill="rgba(0,0,0,0)"/>
    </clipPath>
    <clipPath id="clip-path-3">
      <path id="Shape-3" data-name="Shape" d="M0,0H29.044V57.665H0Z" fill="rgba(0,0,0,0)"/>
    </clipPath>
    <clipPath id="clip-path-4">
      <path id="Shape-4" data-name="Shape" d="M0,0H26.075V22.721H0Z" fill="rgba(0,0,0,0)"/>
    </clipPath>
  </defs>
  <rect id="BG" width="200" height="200" fill="none"/>
  <g id="Launch_product" data-name="Launch product" transform="translate(41.414 22.566)">
    <g id="Сharacter" transform="translate(0 0)">
      <path id="Shape-5" data-name="Shape" d="M1.542,8.594c-.157.236-.665.83-.514,1.1.7,1.267,4.08,2.011,5.359,2.058,2.391.089,4.736-1.081,7.195-.955,1.442.074,1.367.734,2.716,1.1,2.128.581,6.14.966,7.929-.735,3.989-3.795,1.9-9.941-3.744-10.807A20.279,20.279,0,0,0,13.876.213c-3.36.6-6.531,1.994-9.765,3.088C2.46,3.86,1.334,5.412,0,6.535" transform="translate(3.41 86.346)"/>
      <path id="Shape-6" data-name="Shape" d="M7,0c2.111,3.444,10.523,9.74,9.745,10.352S14.514,9.258,13.637,8.8c1.356,3.08,2.712,5.131,2.269,5.507s-.836-.338-2.445-2.373c.859,2.976,1.1,3,.8,3.192-.678.425-1.026-.051-2.531-2.741.936,3.241,1.252,3.185.493,3.169-3.752-.076-2.617-2.872-3.842-6.319C8.019,8.2,0,1.167,0,1.167S5.261.94,7,0" transform="translate(66.448 33.961)" fill="#fff"/>
      <path id="Shape-7" data-name="Shape" d="M12.685,16.159l-.12,0h0c-2.928-.06-3.188-1.677-3.518-3.724a15.251,15.251,0,0,0-.644-2.8C8.155,8.938,3.18,4.394.1,1.695a.3.3,0,0,1,.185-.527c.054,0,1.339-.061,2.833-.23C3.993.838,4.758.722,5.393.591A6.856,6.856,0,0,0,7.16.036a.3.3,0,0,1,.4.108c1.068,1.741,3.869,4.309,6.119,6.372l0,0C16.4,9.007,17.419,10,17.4,10.559a.435.435,0,0,1-.165.331.9.9,0,0,1-.569.2,3.925,3.925,0,0,1-1.978-1.081L14.68,10h0c.3.629.587,1.215.844,1.731l.021.042,0,0c.91,1.827,1.325,2.661.857,3.059a.638.638,0,0,1-.422.168l-.059,0c-.38-.038-.7-.406-1.4-1.3.1.318.185.562.252.759l0,.01v0c.246.725.329.969-.053,1.209a1.044,1.044,0,0,1-.548.183.773.773,0,0,1-.191-.024c-.29-.075-.547-.3-.887-.779.174.533.206.729.069.915A.53.53,0,0,1,12.685,16.159ZM7.193.688a12.817,12.817,0,0,1-3.1.734c-1.15.163-2.288.256-3.04.305,1,.883,2.928,2.6,4.612,4.186A19.319,19.319,0,0,1,8.969,9.435a15.836,15.836,0,0,1,.67,2.9v.005c.328,2.043.509,3.168,2.894,3.217l.09,0c-.038-.142-.109-.354-.192-.6l-.007-.021c-.154-.459-.386-1.152-.678-2.165a.3.3,0,0,1,.551-.23c.887,1.585,1.494,2.63,1.838,2.718a.174.174,0,0,0,.042.005.422.422,0,0,0,.2-.072c-.023-.1-.087-.288-.161-.5l-.007-.022v0c-.148-.437-.4-1.168-.735-2.342a.3.3,0,0,1,.525-.27c.284.359.528.675.743.953l.009.011A5.9,5.9,0,0,0,15.982,14.4a8.351,8.351,0,0,0-.977-2.361l-.011-.023c-.384-.772-.862-1.733-1.331-2.8a.3.3,0,0,1,.07-.341.3.3,0,0,1,.205-.082.3.3,0,0,1,.139.034,6.921,6.921,0,0,1,.983.7h0c.5.4,1.184.945,1.595.945a.372.372,0,0,0,.115-.017,26.768,26.768,0,0,0-3.494-3.5h0A44.016,44.016,0,0,1,7.193.688Z" transform="translate(66.147 33.66)"/>
      <path id="Shape-8" data-name="Shape" d="M.118,8.583c-1.782,5.325,17.113.733,25.823,4.14s8.611,14.635,8.611,14.635,3.3-.7,6.816-1.624c4.163-1.092,8.624-2.493,8.24-3.4C47.081,16.36,43.637,8.643,33.078,3.3,20.164-3.234,2.765.672.118,8.583" transform="translate(31.168 15.798)" fill="#ffbe00"/>
      <path id="Shape-9" data-name="Shape" d="M2.855,0s8.126,21.119,9.259,26.255C12.5,27.995,15.783,32,18.42,37.273c2.317,4.636,4.4,12.621,6.04,14.849,2,2.722,4.229,1.1,3.837,5.8-.389,4.667,4.89,9.9,2.221,10.267s-8.8-8.541-9.568-10.384C17.748,50.159,4.706,39,1.511,30.73-2.547,20.229,2.855,0,2.855,0" transform="translate(10.524 57.042)" fill="#fff"/>
      <path id="Shape-10" data-name="Shape" d="M30.67,68.8a4.686,4.686,0,0,1-2.688-1.4,24.878,24.878,0,0,1-3.015-3.221,35.317,35.317,0,0,1-3.987-5.955c-1.524-3.638-5.26-8.033-9.216-12.687l-.01-.012c-4.2-4.941-8.541-10.05-10.216-14.385-1.7-4.4-1.993-10.948-.867-19.451A101.243,101.243,0,0,1,2.872.223.3.3,0,0,1,3.147,0h.017a.3.3,0,0,1,.279.193c.332.863,8.147,21.2,9.272,26.3a18.6,18.6,0,0,0,2.262,4.077v0A74.489,74.489,0,0,1,19,37.439,74.724,74.724,0,0,1,22.1,45.291v0c1.061,2.987,2.063,5.808,2.905,6.952a5.514,5.514,0,0,0,2.046,1.677l0,0c1.309.712,2.1,1.3,1.845,4.325-.184,2.21.963,4.579,1.885,6.483v0c.786,1.625,1.354,2.8.969,3.518a1.109,1.109,0,0,1-.894.537A1.412,1.412,0,0,1,30.67,68.8ZM3.223,1.3A103.452,103.452,0,0,0,.986,14.253a59.827,59.827,0,0,0-.32,8.807A25.435,25.435,0,0,0,2.1,30.923c1.64,4.243,5.953,9.317,10.123,14.224,3.987,4.69,7.753,9.12,9.313,12.844a35.882,35.882,0,0,0,4.028,5.947,23.542,23.542,0,0,0,2.991,3.155,7.058,7.058,0,0,0,1.183.826,2.058,2.058,0,0,0,.921.283.955.955,0,0,0,.127-.008c.352-.049.422-.181.445-.225.24-.45-.353-1.676-.981-2.973-.954-1.97-2.141-4.423-1.944-6.8.232-2.786-.432-3.147-1.533-3.746h0a6.107,6.107,0,0,1-2.245-1.85c-.9-1.217-1.865-3.947-2.988-7.107a74.4,74.4,0,0,0-3.079-7.786,74.128,74.128,0,0,0-3.987-6.815,18.11,18.11,0,0,1-2.343-4.273c-.418-1.893-1.844-6.2-4.238-12.805C5.972,8.527,3.987,3.3,3.223,1.3Z" transform="translate(10.216 56.741)"/>
      <path id="Shape-11" data-name="Shape" d="M12.163,41.065c.252,1.833,3.411,6.277,5.756,11.973,2.061,5.006,3.56,13.449,5.116,15.9,1.9,3,4.441,1.535,3.587,6.351-.848,4.784,4.338,10.685,1.437,10.813s-6.372-6.542-9.319-11.626C14.407,67.006,3.029,53.53.361,44.688-3.028,33.46,18.572,0,18.572,0S11.42,35.654,12.163,41.065Z" transform="translate(4.246 47.026)" fill="#fff"/>
      <path id="Shape-12" data-name="Shape" d="M28.279,86.711c-2.756,0-5.709-5.164-8.565-10.157-.3-.524-.618-1.081-.93-1.619C17.316,72.4,15,69.127,12.549,65.661l0,0C7.673,58.766,2.151,50.955.376,45.076-1.052,40.343,1.591,31.333,8.231,18.3c2.02-3.965,4.352-8.178,6.932-12.522C17.031,2.63,18.367.535,18.616.147l.006-.01A.3.3,0,0,1,18.875,0a.3.3,0,0,1,.113.022A.3.3,0,0,1,19.17.36c-.018.088-1.816,9.079-3.5,18.629-.976,5.528-1.723,10.154-2.219,13.75-.62,4.488-.85,7.377-.684,8.586a19.048,19.048,0,0,0,2.052,4.422v0A76.529,76.529,0,0,1,18.5,53.224a75.6,75.6,0,0,1,2.606,8.38l.006.024c.864,3.185,1.679,6.193,2.48,7.455a5.912,5.912,0,0,0,2.052,1.933c1.335.855,2.126,1.536,1.576,4.632-.4,2.263.612,4.819,1.426,6.872v0c.69,1.74,1.188,3,.729,3.708a1.168,1.168,0,0,1-1,.479C28.342,86.711,28.308,86.711,28.279,86.711ZM18.264,1.835a226.251,226.251,0,0,0-11.246,20.3A88.886,88.886,0,0,0,1.863,34.986a31.484,31.484,0,0,0-1.17,5.547A11.363,11.363,0,0,0,.952,44.9C2.7,50.685,8.188,58.451,13.032,65.3l.008.011.024.033c2.45,3.465,4.764,6.738,6.24,9.285.288.5.581,1.008.932,1.623a73.676,73.676,0,0,0,4.07,6.578c1.611,2.2,2.915,3.276,3.985,3.277h.058c.4-.018.493-.159.523-.2.291-.45-.231-1.766-.783-3.159h0c-.842-2.124-1.891-4.768-1.459-7.2.507-2.858-.176-3.3-1.308-4.02h0a6.515,6.515,0,0,1-2.235-2.117c-.848-1.338-1.638-4.249-2.552-7.619h0a75.235,75.235,0,0,0-2.588-8.332,76.1,76.1,0,0,0-3.655-7.416,18.538,18.538,0,0,1-2.121-4.63,35.99,35.99,0,0,1,.478-7.217c.39-3.055,1-7,1.8-11.722C15.887,14.009,17.6,5.221,18.264,1.835Z" transform="translate(3.942 46.725)"/>
      <g id="Group" transform="translate(0 34.443)">
        <path id="Shape-13" data-name="Shape" d="M0,0H35.8V64.224H0Z" transform="translate(0 0)" fill="rgba(0,0,0,0)"/>
        <g id="Group-2" data-name="Group" transform="translate(0 0)" clip-path="url(#clip-path)">
          <path id="Shape-14" data-name="Shape" d="M30.051,0C28.805-.047,14.232,3.832,14.232,3.832S6.054,18.641,2.688,30.285C-4.29,54.423,4.524,61.847,4.524,61.847s4.609-8.221,10.366-1.483,17.4,2.774,19.017,1.975c3.6-1.776-4.056-25.325-1.059-30.756C40.328,18.027,31.393,2.308,30.051,0" transform="translate(0 0)" fill="#00b2b2"/>
        </g>
      </g>
      <path id="Shape-15" data-name="Shape" d="M17.473,0s-4.959,3.428-7.9,3.3c-1.323-.056-3.214-2.19-8.316-.339,0,0-1.646,2.208-1.177,2.818.585.76,1.224,2.876,1.755,3.663.64.95,5.011-.22,5.757.647.31.36,2.432,1.182,4.456-.907s6.794-5.872,6.794-5.872Z" transform="translate(27.143 14.71)" fill="#fff"/>
      <path id="Shape-16" data-name="Shape" d="M9.439,11.162H9.331a2.5,2.5,0,0,1-1.662-.568c-.137-.159-.568-.237-1.316-.237-.42,0-.873.023-1.273.044H5.072c-.477.025-.927.048-1.34.048a4.744,4.744,0,0,1-1.141-.106,1.129,1.129,0,0,1-.7-.425,11.276,11.276,0,0,1-.824-1.746v0a10.134,10.134,0,0,0-.919-1.9,1.191,1.191,0,0,1,0-1.163C.307,4.681,1.206,3.032,1.5,2.973a13.609,13.609,0,0,1,2.125-.6,9.486,9.486,0,0,1,1.744-.171,7.623,7.623,0,0,1,1.985.257A11.755,11.755,0,0,1,8.8,2.971l.005,0a3.71,3.71,0,0,0,1.085.333l.145,0A7.239,7.239,0,0,0,12.4,2.8a19.652,19.652,0,0,0,2.458-1.111A30.524,30.524,0,0,0,17.6.054a.3.3,0,0,1,.256-.041.3.3,0,0,1,.193.173L19.425,3.5a.3.3,0,0,1-.091.351c-.046.036-4.788,3.8-6.766,5.846A4.315,4.315,0,0,1,9.439,11.162ZM6.37,9.752a4.9,4.9,0,0,1,1.065.091,1.23,1.23,0,0,1,.689.358,2.087,2.087,0,0,0,1.224.359h.089a3.733,3.733,0,0,0,2.7-1.28c1.8-1.858,5.852-5.121,6.646-5.757L17.636.756c-1.125.74-5,3.154-7.6,3.155-.058,0-.113,0-.169,0a4.124,4.124,0,0,1-1.29-.378h0a10.947,10.947,0,0,0-1.347-.472,7.159,7.159,0,0,0-1.859-.24,9.01,9.01,0,0,0-1.63.157,13,13,0,0,0-1.991.548A9.49,9.49,0,0,0,.888,4.914c-.259.522-.353.873-.265.988a10.346,10.346,0,0,1,1,2.032l0,.008a11.33,11.33,0,0,0,.766,1.639c.12.177.563.264,1.355.264.43,0,.891-.024,1.3-.045l.047,0C5.545,9.773,5.976,9.752,6.37,9.752Z" transform="translate(26.843 14.409)"/>
      <path id="Shape-17" data-name="Shape" d="M20.637,3.374C17.39,4.46,21.774-.354,19.891.021,16.168.761,6.86,3.271,6.86,3.271l-1.792,7.1S-.191,16.383.005,18.976C.018,19.137,15,24.233,15,24.233s3.918-2.022,7.376-4,5.926-5.691,5.162-8.879-4.088-8.916-6.9-7.976" transform="translate(15.99 15.228)" fill="#ffbe00"/>
      <path id="Shape-18" data-name="Shape" d="M.324,7.4s-1.117-1.325.8-3.868A16.551,16.551,0,0,0,3.387,0L19.534,2.822a5.72,5.72,0,0,1,.615,2,10.7,10.7,0,0,1-.132,2.536S17.274,8.944,12.14,8.848A80.1,80.1,0,0,1,.324,7.4" transform="translate(12.668 33.563)"/>
      <path id="Shape-19" data-name="Shape" d="M.751,4.267C-.506,5.6-.114,7.153,1.4,8.059c1.571.943,4,.223,5.671.307,1.343.067,2.6,1.076,3.952,1.3a5.339,5.339,0,0,0,5.892-3.221c.852-2.355.174-4.077-.028-6.442" transform="translate(17.55 29.01)" fill="#ffbe00"/>
      <path id="Shape-20" data-name="Shape" d="M11.545.442A53.024,53.024,0,0,0,2.329.078,2.735,2.735,0,0,0,0,2.862a2.632,2.632,0,0,0,2.4,2.782,52.514,52.514,0,0,0,7.309.186,2.959,2.959,0,0,0,2.368-1.81c.325-1.156.655-3.438-.538-3.576" transform="translate(43.295 13.54)" fill="#fff"/>
      <path id="Shape-21" data-name="Shape" d="M8.472,6.5c-1.714,0-4.368-.118-5.8-.257A2.917,2.917,0,0,1,0,3.155,3.025,3.025,0,0,1,2.59.08,17.247,17.247,0,0,1,4.548,0,67.3,67.3,0,0,1,11.88.444a1.075,1.075,0,0,1,.789.486c.657.982.118,3.064,0,3.471a3.325,3.325,0,0,1-2.6,2.023A10.451,10.451,0,0,1,8.472,6.5ZM4.551.6A16.7,16.7,0,0,0,2.669.677,2.461,2.461,0,0,0,.6,3.17,2.333,2.333,0,0,0,2.735,5.644c1.449.141,4.031.256,5.755.256a9.809,9.809,0,0,0,1.464-.066c.423-.088,1.828-.464,2.14-1.6.295-1.047.444-2.424.076-2.974a.47.47,0,0,0-.359-.223A66.532,66.532,0,0,0,4.551.6Z" transform="translate(42.994 13.239)"/>
      <path id="Shape-22" data-name="Shape" d="M1.592,1.178a.3.3,0,0,1-.22-.1A2.048,2.048,0,0,0,.6.606.874.874,0,0,0,.628.785.3.3,0,1,1,.043.926C-.086.387.1.16.275.064.8-.221,1.674.523,1.812.672a.3.3,0,0,1-.22.506" transform="translate(47.503 13.783)"/>
      <path id="Shape-23" data-name="Shape" d="M.24.1A.22.22,0,0,1,.466.319a.22.22,0,0,1-.24.2A.22.22,0,0,1,0,.3.22.22,0,0,1,.24.1" transform="translate(49.936 15.757)"/>
      <path id="Shape-24" data-name="Shape" d="M.244.1A.219.219,0,0,1,.466.318a.221.221,0,0,1-.24.2A.223.223,0,0,1,0,.3.222.222,0,0,1,.244.1" transform="translate(50.103 13.692)"/>
      <path id="Shape-25" data-name="Shape" d="M1.072,1.028l.027.045" transform="translate(45.352 18.572)"/>
      <path id="Shape-26" data-name="Shape" d="M.043.069C-.246.9,1,1.242,1.3.526A.577.577,0,0,0,1.236,0" transform="translate(47.687 18.871)" fill="#fff"/>
      <path id="Shape-27" data-name="Shape" d="M.994,1.518A1.107,1.107,0,0,1,.6,1.446.893.893,0,0,1,.059.271a.3.3,0,1,1,.568.2A.3.3,0,0,0,.818.884a.377.377,0,0,0,.5-.171A.278.278,0,0,0,1.284.464a.3.3,0,1,1,.5-.326.872.872,0,0,1,.085.8.917.917,0,0,1-.879.575" transform="translate(47.387 18.57)"/>
      <path id="Shape-28" data-name="Shape" d="M1.072,1.028l.027.045" transform="translate(45.352 18.572)"/>
      <path id="Shape-29" data-name="Shape" d="M.833.929l-.2-.14" transform="translate(35.343 17.505)"/>
      <path id="Shape-30" data-name="Shape" d="M0,.676,5.28,5.949l1.535-1.42L2.12,0Z" transform="translate(35.647 17.475)"/>
      <path id="Shape-31" data-name="Shape" d="M0,4.71C.244,3.689-.122,1.93.5,1.037a2.617,2.617,0,0,1,3.991-.2,6.38,6.38,0,0,1,.954,3.852" transform="translate(52.218 11.36)"/>
      <path id="Shape-32" data-name="Shape" d="M4.213,2.111c-1.446,3.617.61,5.006,0,8.062-.235,1.176-1.8,2.153-2.491,3.071C.041,15.489-.261,19.379.186,22.074c.258,1.554,2,2.74,2.875,3.839a8.342,8.342,0,0,1,1.153,3.839c.149,1.628-.095,3.4.384,4.99a9.417,9.417,0,0,0,2.875,4.031c4.421,4.426,8.543,4.618,13.994,1.344,3.7-2.224,4.045-6.05,3.065-9.981-1.175-4.72-7.024-7.029-8.24-11.9C14.98,13,18.533,6.055,12.648,2.3A49.937,49.937,0,0,0,8.046,0" transform="translate(48.371 12.035)"/>
      <path id="Shape-33" data-name="Shape" d="M1.915,3.969H1.878A2,2,0,0,1,.241,2.795,1.814,1.814,0,0,1,.278.919,2.225,2.225,0,0,1,1.052.212,1.8,1.8,0,0,1,1.9,0,1.931,1.931,0,0,1,2.923.3a1.841,1.841,0,0,1,.594,2.534A1.859,1.859,0,0,1,1.915,3.969ZM1.91.6a1.223,1.223,0,0,0-.593.153,1.631,1.631,0,0,0-.546.508,1.228,1.228,0,0,0,.008,1.26,1.419,1.419,0,0,0,1.115.843h.031c.4,0,.757-.28,1.071-.833A1.225,1.225,0,0,0,2.6.807,1.294,1.294,0,0,0,1.91.6Z" transform="translate(12.466 48.633)"/>
      <path id="Shape-34" data-name="Shape" d="M1.915,3.969H1.878A2,2,0,0,1,.241,2.794,1.814,1.814,0,0,1,.278.919,2.224,2.224,0,0,1,1.051.212,1.8,1.8,0,0,1,1.9,0,1.933,1.933,0,0,1,2.923.3a1.841,1.841,0,0,1,.594,2.535A1.858,1.858,0,0,1,1.915,3.969ZM1.909.6a1.221,1.221,0,0,0-.592.154,1.632,1.632,0,0,0-.546.509A1.228,1.228,0,0,0,.778,2.523a1.42,1.42,0,0,0,1.115.844A1.344,1.344,0,0,0,3,2.535,1.225,1.225,0,0,0,2.6.807,1.291,1.291,0,0,0,1.909.6Z" transform="translate(23.11 58.984)"/>
      <path id="Shape-35" data-name="Shape" d="M1.915,3.969H1.878A2,2,0,0,1,.241,2.794,1.813,1.813,0,0,1,.278.919,2.224,2.224,0,0,1,1.052.212,1.8,1.8,0,0,1,1.9,0,1.931,1.931,0,0,1,2.923.3a1.841,1.841,0,0,1,.6,2.535A1.859,1.859,0,0,1,1.915,3.969ZM1.91.6a1.221,1.221,0,0,0-.592.154,1.631,1.631,0,0,0-.546.509A1.227,1.227,0,0,0,.778,2.523a1.419,1.419,0,0,0,1.115.844h.018c.405,0,.77-.28,1.084-.832A1.226,1.226,0,0,0,2.6.807,1.29,1.29,0,0,0,1.91.6Z" transform="translate(28.204 46.592)"/>
      <path id="Shape-36" data-name="Shape" d="M1.915,3.969H1.878A2,2,0,0,1,.241,2.794,1.814,1.814,0,0,1,.278.919,2.223,2.223,0,0,1,1.051.212,1.8,1.8,0,0,1,1.9,0,1.935,1.935,0,0,1,2.923.3a1.841,1.841,0,0,1,.594,2.535A1.858,1.858,0,0,1,1.915,3.969ZM1.91.6a1.221,1.221,0,0,0-.592.154,1.631,1.631,0,0,0-.546.509A1.228,1.228,0,0,0,.778,2.523a1.421,1.421,0,0,0,1.116.844h.018A1.366,1.366,0,0,0,3,2.535,1.226,1.226,0,0,0,2.6.807,1.293,1.293,0,0,0,1.91.6Z" transform="translate(4.452 62.571)"/>
      <path id="Shape-37" data-name="Shape" d="M1.915,3.969H1.878A2,2,0,0,1,.241,2.794,1.815,1.815,0,0,1,.278.919,2.225,2.225,0,0,1,1.051.212,1.8,1.8,0,0,1,1.9,0,1.933,1.933,0,0,1,2.923.3a1.842,1.842,0,0,1,.595,2.535A1.859,1.859,0,0,1,1.915,3.969ZM1.909.6a1.22,1.22,0,0,0-.592.154,1.634,1.634,0,0,0-.546.508,1.229,1.229,0,0,0,.007,1.26,1.421,1.421,0,0,0,1.115.844h.012c.4,0,.78-.288,1.09-.832A1.225,1.225,0,0,0,2.6.807,1.289,1.289,0,0,0,1.909.6Z" transform="translate(26.083 80.689)"/>
      <path id="Shape-38" data-name="Shape" d="M1.915,3.969H1.878A2,2,0,0,1,.241,2.795,1.815,1.815,0,0,1,.278.919,2.223,2.223,0,0,1,1.052.212,1.8,1.8,0,0,1,1.9,0,1.934,1.934,0,0,1,2.924.3a1.842,1.842,0,0,1,.594,2.535A1.859,1.859,0,0,1,1.915,3.969ZM1.91.6a1.22,1.22,0,0,0-.592.154,1.634,1.634,0,0,0-.546.508A1.227,1.227,0,0,0,.778,2.523a1.419,1.419,0,0,0,1.115.844h0A1.354,1.354,0,0,0,3,2.535,1.225,1.225,0,0,0,2.6.807,1.292,1.292,0,0,0,1.91.6Z" transform="translate(4.964 86.684)"/>
      <path id="Shape-39" data-name="Shape" d="M1.915,3.969H1.879A2,2,0,0,1,.241,2.795,1.814,1.814,0,0,1,.278.919,2.223,2.223,0,0,1,1.052.212,1.8,1.8,0,0,1,1.9,0,1.934,1.934,0,0,1,2.923.3a1.842,1.842,0,0,1,.595,2.535A1.859,1.859,0,0,1,1.915,3.969ZM1.909.6a1.222,1.222,0,0,0-.592.153,1.631,1.631,0,0,0-.546.508,1.228,1.228,0,0,0,.007,1.26,1.419,1.419,0,0,0,1.115.843h.016c.4,0,.776-.288,1.086-.832A1.226,1.226,0,0,0,2.6.807,1.294,1.294,0,0,0,1.909.6Z" transform="translate(14 72.061)"/>
      <path id="Shape-40" data-name="Shape" d="M1.915,3.969H1.878A2,2,0,0,1,.241,2.795,1.816,1.816,0,0,1,.278.919,2.223,2.223,0,0,1,1.051.212,1.8,1.8,0,0,1,1.9,0,1.934,1.934,0,0,1,2.923.3a1.841,1.841,0,0,1,.594,2.535A1.858,1.858,0,0,1,1.915,3.969ZM1.909.6a1.221,1.221,0,0,0-.592.154,1.635,1.635,0,0,0-.546.508A1.227,1.227,0,0,0,.778,2.523a1.418,1.418,0,0,0,1.115.844h.017a.939.939,0,0,0,.578-.211,2.056,2.056,0,0,0,.507-.621A1.226,1.226,0,0,0,2.6.807,1.291,1.291,0,0,0,1.909.6Z" transform="translate(19.501 87.983)"/>
      <path id="Shape-41" data-name="Shape" d="M1.84,3.258a.3.3,0,0,1-.273-.173,12.876,12.876,0,0,0-.8-1.4C.509,1.282.248.867.032.436A.3.3,0,1,1,.569.166a13.849,13.849,0,0,0,.7,1.2A13.376,13.376,0,0,1,2.112,2.83a.3.3,0,0,1-.145.4.3.3,0,0,1-.127.029" transform="translate(41.415 22.5)"/>
      <path id="Shape-42" data-name="Shape" d="M.3,2.343a.3.3,0,0,1-.005-.6A18.857,18.857,0,0,0,6.25.031a.3.3,0,0,1,.264.541A19.3,19.3,0,0,1,.306,2.343Z" transform="translate(26.236 66.281)"/>
      <g id="Group-3" data-name="Group" transform="translate(26.537)">
        <path id="Shape-43" data-name="Shape" d="M3.565.008A7.473,7.473,0,0,1,4.7,3.8c-.014,2.092-.811,3.108-1.2,4.577-.458,1.765.221,3.513-.2,5.285-.281,1.17-2.3,3.073-3.3,3.954-.032.026.113-.415.091-.447-.272-.366.249-1.2.3-1.557.163-1.019.376-2.032.544-3.055.48-2.99.2-6.01.82-8.993a7.336,7.336,0,0,1,.928-2.4A12.589,12.589,0,0,1,3.565.008" transform="translate(37.908 1.586)"/>
        <path id="Shape-44" data-name="Shape" d="M.632,6.423C1.9,10.249,10.646,17.369,14.587,19.172c-.6-.872-.6-.872-1.2-1.744,3.456,1.046,7.337,2.371,7.677,1.853s-3.143-1.213-5.516-2.662c3.279.531,6.4,1.4,6.553,1.062.367-.775-3.057-1.255-6.114-2.511,3.574.578,6.495,1.212,6.513.885.054-.826-2.762-.916-6.287-2.147,2.184.344,6.49,1.121,6.418.384-.041-.459-5.109-1.5-8.936-2.359C12.544,11.676,7.612,6.8,3.717,1.912S-.64,2.6.632,6.423" transform="translate(36.682 5.318)" fill="#fff"/>
        <path id="Shape-45" data-name="Shape" d="M20.966,20a27.951,27.951,0,0,1-5.633-1.451l-.9-.279c.2.284.338.49.71,1.034a.3.3,0,0,1-.249.47.3.3,0,0,1-.125-.027C11.049,18.047,1.983,10.837.651,6.82-.117,4.509-.428.9.986.136A1.123,1.123,0,0,1,1.526,0c.741,0,1.66.682,2.731,2.027C8.223,7,13.046,11.715,14.065,11.943c.477.108.962.215,1.476.329h0l.381.084c6.173,1.366,7.267,1.7,7.312,2.212a.459.459,0,0,1-.149.387,1.716,1.716,0,0,1-1.126.246c-.229,0-.49-.012-.8-.036,1.348.335,1.983.6,1.942,1.212a.35.35,0,0,1-.136.257.749.749,0,0,1-.482.113,18.46,18.46,0,0,1-2.407-.323,17.527,17.527,0,0,1,1.829.62,1.387,1.387,0,0,1,.776.6.543.543,0,0,1-.007.467c-.082.177-.243.25-.555.25a18.871,18.871,0,0,1-2.795-.473c-.443-.091-.945-.194-1.468-.3.6.254,1.2.478,1.729.676l.031.012c1.371.51,1.932.732,2.051,1.1a.422.422,0,0,1-.052.373A.713.713,0,0,1,20.966,20ZM13.691,17.43a.3.3,0,0,1,.087.013c.554.168,1.112.34,1.733.533l.035.011A40.423,40.423,0,0,0,20.812,19.4c-.344-.166-.9-.374-1.4-.558l-.007,0a21.848,21.848,0,0,1-3.715-1.663.3.3,0,0,1,.158-.556.312.312,0,0,1,.048,0c1.266.2,2.479.454,3.55.674,1.035.213,2.106.433,2.578.461a14.58,14.58,0,0,0-2.389-.841h0l-.008,0c-1.066-.32-2.273-.682-3.452-1.166a.3.3,0,0,1,.163-.574c.949.153,1.836.308,2.736.465l.015,0c1.248.218,2.538.443,3.176.494a13.827,13.827,0,0,0-2.009-.571l-.006,0A37.2,37.2,0,0,1,16.418,14.5a.3.3,0,0,1-.192-.358.3.3,0,0,1,.291-.227.288.288,0,0,1,.047,0l.717.115a40.65,40.65,0,0,0,4.767.58,3.143,3.143,0,0,0,.363-.018c-.989-.4-4.242-1.123-6.618-1.648-.744-.164-1.335-.3-1.86-.413-1.272-.286-6.3-5.3-10.147-10.129C2.862,1.241,2.061.6,1.529.6a.53.53,0,0,0-.256.062c-.87.47-.9,3.425-.05,5.966a10.041,10.041,0,0,0,1.855,2.96A35.217,35.217,0,0,0,6.392,13a45.425,45.425,0,0,0,7.577,5.662c-.133-.193-.29-.421-.527-.762a.3.3,0,0,1,.248-.471Z" transform="translate(36.378 5.015)"/>
        <g id="Group-4" data-name="Group" transform="translate(0)">
          <path id="Shape-46" data-name="Shape" d="M0,0H41.364V22.525H0Z" fill="rgba(0,0,0,0)"/>
          <g id="Group-5" data-name="Group" clip-path="url(#clip-path-2)">
            <path id="Shape-47" data-name="Shape" d="M9.743,22.525s4.755-10.85,10.9-11.012S37.9,19.248,37.9,19.248a47.544,47.544,0,0,0,1.282-6.077c.448-3.235-.032-4.13.516-6.971a11.808,11.808,0,0,1,1.667-4.391s-21.351-4.447-29.515.6C8.576,4.437,0,17.756,0,17.756Z" transform="translate(0 0)" fill="#ffbe00"/>
          </g>
        </g>
        <path id="Shape-48" data-name="Shape" d="M.3,9.635a.3.3,0,0,1-.285-.4L1.154,5.867a.316.316,0,0,1,.042-.08C1.23,5.738,4.691.967,5.2.143a.3.3,0,0,1,.513.315c-.5.813-3.653,5.161-4,5.643L.587,9.43a.3.3,0,0,1-.285.2" transform="translate(9.449 14.062)"/>
        <path id="Shape-49" data-name="Shape" d="M.3,1.615a.3.3,0,0,1-.051-.6L6.1,0A.3.3,0,1,1,6.2.6L.353,1.611a.293.293,0,0,1-.052,0" transform="translate(3.6 23.096)"/>
      </g>
    </g>
    <g id="Сharacter-2" data-name="Сharacter" transform="translate(27.188 20.525)">
      <path id="Shape-50" data-name="Shape" d="M.128,7.307c-.687-1.742,1.564-1.9,2.58-2.236C5.6,4.109,6.74.726,9.736.01c.56-.134,3.868,1.041,4.117,2.3s-2.874,2.644-3.118,2.742A37.154,37.154,0,0,0,4.873,7.581" transform="translate(71.969 43.367)"/>
      <path id="Shape-51" data-name="Shape" d="M.633,7.365C-.157,7.819-.139,6.746.313,6.3a7.2,7.2,0,0,1,.9-.645A8.518,8.518,0,0,0,2.437,4.322C3.643,2.97,4.886,1.166,6.5.257c1.83-1.033.764,1.336.407,2.029" transform="translate(25.717 107.465)"/>
      <path id="Shape-52" data-name="Shape" d="M0,13.847s3.349-3.39,3.593-5.15C4.433,2.648,9.156-3.924,15.56,2.9c1.8,1.916,4.722,11.888,4.722,11.888s-4.383,1.62-7,1.588C8.523,16.321,0,13.847,0,13.847" transform="translate(27.679 93.516)"/>
      <path id="Shape-53" data-name="Shape" d="M27.2,68.733S19.455,47.456,18.416,42.3c-.353-1.747-3.566-5.812-6.105-11.138C10.078,26.48,8.139,18.453,6.54,16.193c-1.957-2.759-4.207-1.177-3.732-5.872C3.277,5.658-1.9.329.769.008s8.64,8.7,9.382,10.562c3.064,7.709,15.9,19.109,18.944,27.441C32.963,48.589,27.2,68.733,27.2,68.733" transform="translate(48.046 12.129)" fill="#fff"/>
      <path id="Shape-54" data-name="Shape" d="M27.513,69.334H27.5a.3.3,0,0,1-.282-.2c-.02-.055-2.026-5.561-4.13-11.644-1.172-3.388-2.148-6.3-2.9-8.658-.936-2.927-1.529-5.005-1.765-6.176a18.625,18.625,0,0,0-2.184-4.112l0-.005-.008-.013a74.422,74.422,0,0,1-3.886-6.937,74.787,74.787,0,0,1-2.965-7.912c-1.007-3.007-1.957-5.847-2.78-7.01a5.518,5.518,0,0,0-2.02-1.716c-1.294-.736-2.072-1.34-1.767-4.36.223-2.208-.881-4.6-1.769-6.522C.283,2.429-.264,1.244.133.531a1.106,1.106,0,0,1,.9-.521A1.421,1.421,0,0,1,1.2,0,4.569,4.569,0,0,1,3.858,1.429,24.806,24.806,0,0,1,6.825,4.707a35.5,35.5,0,0,1,3.906,6.051c1.458,3.667,5.114,8.132,8.984,12.86,4.113,5.024,8.365,10.218,9.963,14.589,1.622,4.436,1.8,10.989.519,19.477a102.157,102.157,0,0,1-2.4,11.423l0,.009A.3.3,0,0,1,27.513,69.334ZM1.227.6a.955.955,0,0,0-.121.007C.757.65.683.78.658.824.41,1.269.98,2.5,1.584,3.813l0,0v0c.918,1.988,2.06,4.463,1.821,6.833-.282,2.784.376,3.157,1.466,3.776a6.111,6.111,0,0,1,2.213,1.891c.875,1.236,1.794,3.984,2.86,7.167a74.5,74.5,0,0,0,2.937,7.845,74.015,74.015,0,0,0,3.865,6.894l.006.01a18.076,18.076,0,0,1,2.257,4.3c.383,1.9,1.732,6.238,4.007,12.888,1.824,5.33,3.713,10.592,4.441,12.607a103.49,103.49,0,0,0,2.469-12.92,59.922,59.922,0,0,0,.477-8.805,25.475,25.475,0,0,0-1.292-7.893C27.55,34.14,23.331,28.985,19.25,24c-3.9-4.764-7.585-9.264-9.078-13.019A34.8,34.8,0,0,0,6.344,5.07,25.865,25.865,0,0,0,3.565,1.953,4.131,4.131,0,0,0,1.227.6Z" transform="translate(47.745 11.829)"/>
      <path id="Shape-55" data-name="Shape" d="M27.525,30.973c-2.079-.026-12.211-7.041-17.389-11.956C2.018,11.311-.491,3.574.077,3.423c.929-.246,1.573,1.842,2.178,2.589-.023-3.276-.443-5.632.1-5.8s.619.626,1.271,3.066C4,.291,3.794.171,4.132.119c.768-.117.9.443,1.2,3.427C5.747.29,4.915.135,5.643,0s1.7,4.1,1.469,7.652c-.027.433,6.15,6.223,10.755,9.646a44.932,44.932,0,0,0,15.03,6.83S29.6,31,27.525,30.973" transform="translate(10.164 90.605)" fill="#fff"/>
      <path id="Shape-56" data-name="Shape" d="M27.83,31.576h-.015c-2.307-.029-12.611-7.311-17.592-12.039C2.448,12.156-.232,4.71.016,3.736a.393.393,0,0,1,.278-.3A.93.93,0,0,1,.532,3.4a1.263,1.263,0,0,1,.952.574,7.839,7.839,0,0,1,.741,1.21c-.021-.652-.054-1.267-.083-1.81l0-.076C2.029,1.312,1.979.405,2.556.229A.738.738,0,0,1,2.771.194a.575.575,0,0,1,.285.075c.325.183.475.647.74,1.663.026-.284.045-.512.06-.7l0-.044v0c.059-.728.081-1,.521-1.068A1.392,1.392,0,0,1,4.595.1a.815.815,0,0,1,.512.164.92.92,0,0,1,.221.253c.01-.194.082-.428.556-.514A.485.485,0,0,1,5.971,0a.574.574,0,0,1,.385.162,2.729,2.729,0,0,1,.595,1.1,12.915,12.915,0,0,1,.469,1.92,21.312,21.312,0,0,1,.29,4.728c.425.724,6.094,6.073,10.631,9.446a35.537,35.537,0,0,0,5.093,3.116,46.889,46.889,0,0,0,4.8,2.1,42.55,42.55,0,0,0,5.023,1.564.3.3,0,0,1,.207.424C33.118,25.28,30.029,31.575,27.83,31.576ZM.594,4.017a7.924,7.924,0,0,0,.565,1.864A27.8,27.8,0,0,0,2.868,9.36,39.737,39.737,0,0,0,5.95,13.938,46.247,46.247,0,0,0,10.636,19.1c5.118,4.858,15.237,11.849,17.187,11.874h.009a1.9,1.9,0,0,0,1.144-.626,10.688,10.688,0,0,0,1.33-1.572,31.711,31.711,0,0,0,2.451-4.139,47.718,47.718,0,0,1-5.818-1.918,46.036,46.036,0,0,1-4.406-2.03,35.417,35.417,0,0,1-4.551-2.844C14,14.888,7.06,8.672,7.106,7.938a19.88,19.88,0,0,0-.324-4.865A6.052,6.052,0,0,0,5.954.608H5.946l-.018,0c.005.053.016.127.025.192v0a10.413,10.413,0,0,1-.027,3.078.3.3,0,0,1-.3.263h0a.3.3,0,0,1-.3-.27C5.149,2.122,5.01.954,4.739.745A.21.21,0,0,0,4.592.708a.8.8,0,0,0-.081,0c-.017.1-.033.29-.052.528v.005c-.036.448-.1,1.2-.246,2.375a.3.3,0,0,1-.278.262H3.913a.3.3,0,0,1-.289-.223c-.112-.42-.208-.79-.292-1.117l-.005-.021A5.855,5.855,0,0,0,2.763.794a8.673,8.673,0,0,0-.025,2.472v.007c.046.844.1,1.895.111,3.037a.3.3,0,0,1-.2.286A.3.3,0,0,1,2.315,6.5,6.732,6.732,0,0,1,1.709,5.5C1.4,4.914.974,4.116.594,4.017Z" transform="translate(9.87 90.303)"/>
      <path id="Shape-57" data-name="Shape" d="M28.556,8c1.089-2.484-1.112-5.05-6.426-6.639S7.059.013,7.059.013A14.7,14.7,0,0,1,4.194,4.381C2.318,6.162-.208,6.937.014,7.339c1.546,2.786,3.547,3.455,9.992,5.947C17.887,16.335,26.943,11.692,28.556,8" transform="translate(25.496 107.842)" fill="#ffd2e1"/>
      <path id="Shape-58" data-name="Shape" d="M15.056,85.518S20.23,49.5,19.191,44.133c-.348-1.818-3.75-6.084-6.4-11.645C10.456,27.6,8.494,19.246,6.8,16.88c-2.065-2.893-4.519-1.289-3.932-6.148C3.456,5.905-2.044.3.844.006s9.178,9.163,9.942,11.1c3.181,8.042,16.839,20.067,19.988,28.754,4,11.03-15.717,45.657-15.717,45.657" transform="translate(52.879 0.301)" fill="#fff"/>
      <path id="Shape-59" data-name="Shape" d="M15.357,86.119a.289.289,0,0,1-.1-.016.3.3,0,0,1-.2-.327v-.006C15.271,84.3,20.2,49.663,19.2,44.491a18.95,18.95,0,0,0-2.291-4.306l0-.007a76.277,76.277,0,0,1-4.084-7.26,75.724,75.724,0,0,1-3.067-8.242v0c-1.039-3.138-2.02-6.1-2.889-7.319A5.919,5.919,0,0,0,4.7,15.537C3.324,14.756,2.5,14.119,2.875,11,3.151,8.712,2,6.215,1.074,4.208v0C.289,2.5-.277,1.277.142.541A1.17,1.17,0,0,1,1.114.007C1.164,0,1.215,0,1.266,0A4.875,4.875,0,0,1,4.092,1.511,26.312,26.312,0,0,1,7.247,4.97c.917,1.17,1.872,2.519,2.689,3.8a19.024,19.024,0,0,1,1.43,2.529c1.512,3.823,5.381,8.51,9.477,13.471l0,0C25.2,30.048,29.7,35.5,31.357,40.059c1.688,4.65-.453,13.8-6.365,27.189-4.375,9.912-9.325,18.633-9.374,18.72A.3.3,0,0,1,15.357,86.119ZM1.288.6c-.038,0-.076,0-.114.006C.775.647.692.792.664.84.4,1.306.99,2.59,1.617,3.95l0,0c.958,2.075,2.15,4.658,1.853,7.114C3.124,13.951,3.83,14.35,5,15.012A6.524,6.524,0,0,1,7.35,17c.923,1.293,1.872,4.16,2.971,7.479a75.37,75.37,0,0,0,3.039,8.175,75.774,75.774,0,0,0,4.054,7.2,18.47,18.47,0,0,1,2.374,4.515,36.043,36.043,0,0,1-.08,7.237c-.221,3.073-.608,7.047-1.151,11.811-.972,8.532-2.194,17.408-2.674,20.828a226.428,226.428,0,0,0,10.109-20.9,88.992,88.992,0,0,0,4.438-13.125,31.524,31.524,0,0,0,.862-5.607,11.377,11.377,0,0,0-.5-4.351c-1.617-4.46-6.086-9.872-10.408-15.107l-.005-.006c-4.127-5-8.025-9.721-9.572-13.632A35.629,35.629,0,0,0,6.761,5.305,26.85,26.85,0,0,0,3.8,2.024,4.433,4.433,0,0,0,1.288.6Z" transform="translate(52.578 0)"/>
      <g id="Group-6" data-name="Group" transform="translate(58.712 45.654)">
        <path id="Shape-60" data-name="Shape" d="M0,0H29.044V57.665H0Z" transform="translate(0 0)" fill="rgba(0,0,0,0)"/>
        <g id="Group-7" data-name="Group" transform="translate(0 0)" clip-path="url(#clip-path-3)">
          <path id="Shape-61" data-name="Shape" d="M4.577,57.665c1.243-.07,15.392-5.291,15.392-5.291s5.716-5.446,8.677-19.119C30.092,26.6,27.137,0,27.137,0a12.52,12.52,0,0,1-5.269,3.425A38.819,38.819,0,0,1,13.1,4.957L11.762,10.64l-5.639.675S.42,26.027.081,32.054c-.71,12.474,3.452,24.144,4.5,25.61" transform="translate(0)" fill="#ff0e11"/>
        </g>
      </g>
      <path id="Shape-62" data-name="Shape" d="M.149,1.922c.538,1.72,3.606,1.931,5.057,4.492.651,1.154-.086,4.811,4.185,8.167,0,0,2.739.23,3.01-.493.335-.9,5.857-7.774,6.241-8.643.465-1.049-.267-5.825-7.719-3.452C8.152,2.876.7,0,.7,0S-.388.2.149,1.922" transform="translate(36.735 106.5)" fill="#fff"/>
      <path id="Shape-63" data-name="Shape" d="M10.673,15.23a10,10,0,0,1-1.035-.052.312.312,0,0,1-.132-.059A9.974,9.974,0,0,1,5.55,8.129a4.409,4.409,0,0,0-.3-1.265A7.077,7.077,0,0,0,2.337,4.328l0,0C1.367,3.769.454,3.242.163,2.314A2.149,2.149,0,0,1,.205.551,1.156,1.156,0,0,1,.946,0,.336.336,0,0,1,1,0a.3.3,0,0,1,.108.02C1.168.042,2.565.576,4.334,1.1c1.037.309,2,.555,2.852.731a13.884,13.884,0,0,0,2.7.331,4.187,4.187,0,0,0,1.244-.157,12.528,12.528,0,0,1,3.727-.668,5.643,5.643,0,0,1,2.254.419,3.759,3.759,0,0,1,1.32.942,3.357,3.357,0,0,1,.783,3.168A46.026,46.026,0,0,1,16.3,9.894a56.571,56.571,0,0,0-3.321,4.6C12.754,15.1,11.6,15.23,10.673,15.23ZM.992.619h0A.6.6,0,0,0,.714.872a1.647,1.647,0,0,0,.023,1.26c.22.7,1,1.152,1.894,1.67l0,0A7.565,7.565,0,0,1,5.768,6.566a4.67,4.67,0,0,1,.375,1.465v0h0a9.31,9.31,0,0,0,3.665,6.556c.222.02.48.031.746.031.837,0,1.777-.106,1.865-.339a45.1,45.1,0,0,1,3.4-4.754C17.079,7.877,18.5,6,18.667,5.624A2.8,2.8,0,0,0,17.985,3.1,3.19,3.19,0,0,0,16.84,2.3a5.063,5.063,0,0,0-1.98-.357,11.955,11.955,0,0,0-3.545.642A4.738,4.738,0,0,1,9.9,2.762,20.631,20.631,0,0,1,4.575,1.8C2.833,1.305,1.392.771.992.619Z" transform="translate(36.435 106.2)"/>
      <path id="Shape-64" data-name="Shape" d="M8.676,23.046C12.5,21.3,5.729,34.024,8.12,33.468c5.16-1.2,13.625-.874,13.625-.874l3.186-7.205s6.2-6.32,6.729-7.214c2.675-4.522,7.289-17.1,7.289-17.1S31.66,3.641,26.381,3.263C21.537,2.916,16.29,0,16.29,0S14.957,5.093,6.855,10.986.08,18.335.08,18.335s5.283,6.224,8.6,4.711" transform="translate(43.61 91.696)" fill="#ffd2e1"/>
      <path id="Shape-65" data-name="Shape" d="M1.126.723A53.426,53.426,0,0,0,.006,9.9a2.728,2.728,0,0,0,2.576,2.554A2.631,2.631,0,0,0,5.55,10.28,52.773,52.773,0,0,0,6.336,3,2.973,2.973,0,0,0,4.732.481C3.607.064,1.365-.454,1.126.723" transform="translate(34.086 98.282)" fill="#fff"/>
      <path id="Shape-66" data-name="Shape" d="M3.2,13.073a3.291,3.291,0,0,1-.347-.019,3.018,3.018,0,0,1-2.844-2.84A53.573,53.573,0,0,1,1.132.966h0A1.078,1.078,0,0,1,1.68.221,2.148,2.148,0,0,1,2.724,0,7.855,7.855,0,0,1,5.137.5a3.339,3.339,0,0,1,1.8,2.762,52.527,52.527,0,0,1-.789,7.374,3.132,3.132,0,0,1-.414,1.1,2.713,2.713,0,0,1-.7.758A3.116,3.116,0,0,1,3.2,13.073ZM2.717.6h0a1.559,1.559,0,0,0-.744.145.474.474,0,0,0-.252.338,52.961,52.961,0,0,0-1.115,9.1,2.455,2.455,0,0,0,2.308,2.27,2.639,2.639,0,0,0,.278.015,2.507,2.507,0,0,0,1.468-.46,2.291,2.291,0,0,0,.894-1.482,53.9,53.9,0,0,0,.784-7.193c-.052-.429-.309-1.862-1.41-2.271A6.9,6.9,0,0,0,2.717.6Z" transform="translate(33.786 97.98)"/>
      <path id="Shape-67" data-name="Shape" d="M.639,1.869a.576.576,0,0,1-.6-.322C-.2.993.642.168.777.064a.3.3,0,0,1,.369.475,2.078,2.078,0,0,0-.536.728.833.833,0,0,0,.179-.014.3.3,0,0,1,.094.6,1.523,1.523,0,0,1-.243.02Z" transform="translate(34.454 104.5)"/>
      <path id="Shape-68" data-name="Shape" d="M.1.207A.218.218,0,0,1,.335,0,.219.219,0,0,1,.511.258a.216.216,0,0,1-.23.206A.219.219,0,0,1,.1.207" transform="translate(36.595 103.612)"/>
      <path id="Shape-69" data-name="Shape" d="M.106.207A.225.225,0,0,1,.341,0,.219.219,0,0,1,.513.258a.216.216,0,0,1-.23.206A.222.222,0,0,1,.106.207" transform="translate(34.55 103.272)"/>
      <path id="Shape-70" data-name="Shape" d="M1.025,1.109l.046-.022" transform="translate(39.086 106.766)"/>
      <path id="Shape-71" data-name="Shape" d="M0,1.272C.8,1.628,1.247.41.56.058A.573.573,0,0,0,.032.072" transform="translate(39.56 105.246)" fill="#fff"/>
      <path id="Shape-72" data-name="Shape" d="M.584,1.937a1,1,0,0,1-.4-.089A.3.3,0,0,1,.422,1.3a.3.3,0,0,0,.43-.159A.377.377,0,0,0,.724.627a.274.274,0,0,0-.247.01A.3.3,0,0,1,.188.108.879.879,0,0,1,1,.09.969.969,0,0,1,1.4,1.4a.891.891,0,0,1-.811.54" transform="translate(39.259 104.945)"/>
      <path id="Shape-73" data-name="Shape" d="M1.025,1.109l.046-.022" transform="translate(39.086 106.766)" fill="#24160c"/>
      <path id="Shape-74" data-name="Shape" d="M20.989,11.7C14.789,6.963,11.556,1.965,7.759.219L8.915,1.907C5.586.894,1.844-.39,1.512.112S4.545,1.287,6.834,2.691C3.673,2.177.667,1.332.512,1.662c-.351.75,2.948,1.216,5.9,2.432C2.966,3.534.148,2.92.128,3.237c-.051.8,2.665.887,6.064,2.078C4.086,4.983-.065,4.23,0,4.944c.041.444,8.62,2.285,8.62,2.285a59.275,59.275,0,0,1,7.044,7.547c2.043,2.57,14.827,17.273,30.386,9.912s4.483-13.874-3.019-10.633c-9.2,3.973-13.715,4.021-22.044-2.35" transform="translate(0.3 103.356)" fill="#fff"/>
      <path id="Shape-75" data-name="Shape" d="M37.576,27.326h0a20.7,20.7,0,0,1-4.289-.457,23.739,23.739,0,0,1-3.954-1.219,30.7,30.7,0,0,1-6.679-3.8,39.259,39.259,0,0,1-4.679-4.078,33.315,33.315,0,0,1-2.242-2.507,65.638,65.638,0,0,0-4.588-5.2C9.9,8.8,9.022,8.017,8.783,7.807.063,5.935.026,5.537,0,5.273a.462.462,0,0,1,.149-.386,1.668,1.668,0,0,1,1.1-.24c.191,0,.4.008.652.026C.7,4.368.091,4.105.128,3.519a.352.352,0,0,1,.137-.258.732.732,0,0,1,.471-.111A15.638,15.638,0,0,1,2.9,3.435a14.663,14.663,0,0,1-1.652-.573A1.3,1.3,0,0,1,.534,2.3a.538.538,0,0,1,.006-.46c.082-.176.241-.247.547-.247a18.147,18.147,0,0,1,2.7.458c.438.09.868.179,1.312.267-.558-.235-1.115-.443-1.606-.626C2.17,1.192,1.628.976,1.51.617a.425.425,0,0,1,.052-.37A.7.7,0,0,1,2.2,0,26.809,26.809,0,0,1,7.646,1.408l.719.224.116.036L7.811.69A.3.3,0,0,1,8.06.219a.3.3,0,0,1,.125.027c2.1.968,4.057,2.928,6.316,5.2a67.274,67.274,0,0,0,6.97,6.322c1.18.9,2.246,1.648,3.259,2.279a22.72,22.72,0,0,0,2.94,1.57,14.716,14.716,0,0,0,2.757.908,12.522,12.522,0,0,0,2.708.292,16.96,16.96,0,0,0,4.639-.717,44.612,44.612,0,0,0,5.441-2.02,11.019,11.019,0,0,1,4.338-.862,11.281,11.281,0,0,1,2.187.21,9.086,9.086,0,0,1,1.95.609,4.817,4.817,0,0,1,2.544,2.282C56,20.243,49.4,23.879,46.48,25.261a21.876,21.876,0,0,1-4.557,1.581A19.94,19.94,0,0,1,37.576,27.326ZM1.153,5.242h0c-.08,0-.154,0-.219.006.9.317,3.8,1.075,8.05,1.987a.305.305,0,0,1,.132.065A60.308,60.308,0,0,1,16.2,14.889a32.788,32.788,0,0,0,2.2,2.458,38.608,38.608,0,0,0,4.584,4,30.1,30.1,0,0,0,6.537,3.728,23.188,23.188,0,0,0,3.866,1.2,20.163,20.163,0,0,0,4.192.449,19.355,19.355,0,0,0,4.223-.469,21.2,21.2,0,0,0,4.422-1.535c5.832-2.758,8.552-5.729,7.461-8.15a3.33,3.33,0,0,0-.86-1.12,5.663,5.663,0,0,0-1.393-.878,8.393,8.393,0,0,0-1.791-.573,10.233,10.233,0,0,0-2.055-.205,10.673,10.673,0,0,0-2.065.2,10.22,10.22,0,0,0-2.068.641,44.067,44.067,0,0,1-5.528,2.04,17.637,17.637,0,0,1-4.774.726,13.215,13.215,0,0,1-2.808-.3,15.349,15.349,0,0,1-2.858-.926,23.11,23.11,0,0,1-3.035-1.6c-1.047-.647-2.14-1.408-3.342-2.328a67.612,67.612,0,0,1-7.032-6.375l-.007-.007c-.928-.932-1.805-1.813-2.632-2.568A17.434,17.434,0,0,0,9.017,1.386l.446.652a.3.3,0,0,1-.249.471A.308.308,0,0,1,9.128,2.5c-.485-.148-.986-.3-1.47-.454h0l-.187-.058A41.14,41.14,0,0,0,2.405.605c.321.151.811.335,1.242.5l.057.021A21.057,21.057,0,0,1,7.291,2.735a.3.3,0,0,1-.159.558.3.3,0,0,1-.046,0c-1.214-.2-2.385-.439-3.419-.653l-.047-.01c-.911-.188-1.944-.4-2.415-.435a15.727,15.727,0,0,0,2.28.792c1.03.31,2.2.662,3.337,1.132a.3.3,0,0,1-.112.58.3.3,0,0,1-.051,0c-.9-.146-1.755-.3-2.624-.448C2.857,4.037,1.639,3.823,1,3.765a14.832,14.832,0,0,0,1.874.526l.012,0h0a35.911,35.911,0,0,1,3.7,1.038.3.3,0,0,1-.1.585l-.042,0-.7-.113a39.679,39.679,0,0,0-4.587-.559Z" transform="translate(0 103.054)"/>
      <g id="Group-8" data-name="Group" transform="translate(32.081 110.148)">
        <path id="Shape-76" data-name="Shape" d="M0,0H26.075V22.721H0Z" transform="translate(0 0)" fill="rgba(0,0,0,0)"/>
        <g id="Group-9" data-name="Group" transform="translate(0 0)" clip-path="url(#clip-path-4)">
          <path id="Shape-77" data-name="Shape" d="M20.431,0,0,10.021S1.668,24.491,10.647,22.54,26.075,4.586,26.075,4.586Z" fill="#ffd2e1"/>
        </g>
      </g>
      <path id="Shape-78" data-name="Shape" d="M1.127.523c0,.082,0,.163-.009.245" transform="translate(41.524 113.55)" fill="#0a0704"/>
      <path id="Shape-79" data-name="Shape" d="M.3,25.6h0a.3.3,0,0,1-.3-.3c0-.524,0-1.054.007-1.589C.022,18.982.038,14.1,1.1,9.641,2.028,5.748,3.525.276,3.54.222a.3.3,0,1,1,.58.16C4.105.436,2.61,5.9,1.686,9.781.638,14.172.623,19.019.608,23.706q0,.8-.007,1.591a.3.3,0,0,1-.3.3" transform="translate(66.979 53.502)"/>
      <path id="Shape-80" data-name="Shape" d="M8.44,1.051C7.971-.253,5.806.05,4.423,0,3.275-.039.749.667.252,1.924-.905,4.851,2.177,6.36,4.4,6.848c3.764.829,5.595.676,7.136-3.408" transform="translate(30.654 93.935)"/>
      <path id="Shape-81" data-name="Shape" d="M2.332,4.631c-2.82-.443-3.475-5.039.249-4.6,2.644.31,3.615,5.209-.249,4.6" transform="translate(41.444 91.483)"/>
      <path id="Shape-82" data-name="Shape" d="M.3,45.8a.307.307,0,0,1-.1-.016A.3.3,0,0,1,.016,45.4a89.762,89.762,0,0,0,3.56-17.285,71.172,71.172,0,0,0-.318-11.4c-.18-2.367-.365-4.816-.474-7.383-.179-4.2-.117-5.944-.08-6.984a10.1,10.1,0,0,0-.062-2,.3.3,0,1,1,.6-.078,10.625,10.625,0,0,1,.067,2.1c-.037,1.032-.1,2.759.08,6.937.109,2.557.294,5,.473,7.364a71.562,71.562,0,0,1,.317,11.505A90.525,90.525,0,0,1,.585,45.6a.3.3,0,0,1-.284.2" transform="translate(79.719 48.064)"/>
      <path id="Shape-83" data-name="Shape" d="M.3,45.393a.307.307,0,0,1-.1-.016.3.3,0,0,1-.186-.383C2.375,38.15,2.2,31.986,2.007,25.462A81.767,81.767,0,0,1,2.38,12.019C2.721,9.422,2.994.384,3,.293A.294.294,0,0,1,3.305,0,.3.3,0,0,1,3.6.311C3.586.684,3.322,9.471,2.975,12.1a81.312,81.312,0,0,0-.368,13.345C2.8,32.025,2.98,38.242.585,45.19a.3.3,0,0,1-.284.2" transform="translate(75.01 49.586)"/>
      <path id="Shape-84" data-name="Shape" d="M.3,44.376H.28A.3.3,0,0,1,0,44.054a30.3,30.3,0,0,1,.591-4.349c.19-.977.388-1.987.567-3.57C1.67,31.676,2.312,24.8,2.934,18.147,3.787,9.017,4.524,1.13,4.842.2a.3.3,0,1,1,.569.2c-.3.859-1.1,9.473-1.879,17.8-.622,6.654-1.264,13.535-1.776,18-.183,1.607-.382,2.63-.575,3.618A29.858,29.858,0,0,0,.6,44.095a.3.3,0,0,1-.3.281" transform="translate(68.896 50.368)"/>
      <path id="Shape-85" data-name="Shape" d="M1.276,36.692a.3.3,0,0,1-.26-.149C.155,35.062-.378,24.423.325,18.25c.655-5.7,2.61-11.349,4.5-16.814L5.252.2a.3.3,0,1,1,.569.2L5.394,1.634C3.514,7.067,1.57,12.685.923,18.319c-.707,6.2-.1,16.691.612,17.921a.3.3,0,0,1-.108.412.3.3,0,0,1-.151.041" transform="translate(61.797 56.511)"/>
      <path id="Shape-86" data-name="Shape" d="M.3,2.417a.3.3,0,0,1-.3-.3V.3A.3.3,0,1,1,.6.3V2.116a.3.3,0,0,1-.3.3" transform="translate(61.019 100.461)"/>
      <path id="Shape-87" data-name="Shape" d="M.3,1.77a.3.3,0,0,1-.167-.552C.554.937.788.783.94.684c.269-.177.269-.177.6-.425L1.8.061a.3.3,0,1,1,.361.482L1.9.74C1.553,1,1.553,1,1.27,1.187c-.151.1-.385.252-.8.532A.3.3,0,0,1,.3,1.77" transform="translate(61.922 108.759)"/>
      <path id="Shape-88" data-name="Shape" d="M.3,3.442a.3.3,0,0,1-.184-.064.3.3,0,0,1-.052-.422L.13,2.87C.845,1.949,1.584,1,2.366.1a.3.3,0,1,1,.452.4c-.77.881-1.5,1.827-2.213,2.74l-.068.087A.3.3,0,0,1,.3,3.442" transform="translate(51.538 122.897)"/>
      <path id="Shape-89" data-name="Shape" d="M1.263,1.563a.3.3,0,0,1-.235-.113C.88,1.264.787,1.142.721,1.056a.984.984,0,0,0-.312-.3C.339.7.247.637.121.543A.3.3,0,1,1,.48.06C.6.152.693.217.762.267A1.439,1.439,0,0,1,1.2.691c.064.084.154.2.3.383a.3.3,0,0,1-.235.49" transform="translate(61.76 117.35)"/>
      <path id="Shape-90" data-name="Shape" d="M.3,2.163a.282.282,0,0,1-.072-.009.3.3,0,0,1-.22-.364l.117-.481L.242.5A.306.306,0,0,1,.327.328l.24-.24A.3.3,0,0,1,.992.514L.823.683l-.108.741-.123.509a.3.3,0,0,1-.291.23" transform="translate(71.345 107.267)"/>
      <path id="Shape-91" data-name="Shape" d="M.424,1.443a.3.3,0,0,1-.291-.228C.095,1.063.069.969.051.905A1.038,1.038,0,0,1,0,.5V.3A.3.3,0,1,1,.6.3V.5A.576.576,0,0,0,.629.742c.019.068.047.166.087.327A.3.3,0,0,1,.5,1.434a.311.311,0,0,1-.073.009" transform="translate(68.347 98.143)"/>
      <path id="Shape-92" data-name="Shape" d="M.3,2.043a.3.3,0,0,1-.134-.032.3.3,0,0,1-.135-.4L.75.166a.3.3,0,0,1,.538.27L.569,1.876A.3.3,0,0,1,.3,2.043" transform="translate(77.455 96.462)"/>
      <path id="Shape-93" data-name="Shape" d="M.663,1.323a.3.3,0,0,1-.268-.164L.033.439A.3.3,0,1,1,.569.165L.93.885a.3.3,0,0,1-.268.438" transform="translate(61.041 95.742)"/>
      <path id="Shape-94" data-name="Shape" d="M12.73,3.57A32.008,32.008,0,0,1,3.97,2.076a21.085,21.085,0,0,1-2.417-.931C1.066.936.607.738.2.583A.3.3,0,0,1,.406.019c.425.16.89.36,1.383.573a20.9,20.9,0,0,0,2.344.9c4.376,1.236,7.878,1.868,11.8,1.2,1.326-.227,6.254-1.456,6.818-1.982a.3.3,0,0,1,.409.441c-.768.717-6.2,1.976-7.127,2.135a19.549,19.549,0,0,1-3.307.281" transform="translate(59.703 91.589)"/>
      <path id="Shape-95" data-name="Shape" d="M1.973.907A.305.305,0,0,1,1.89.9,5.522,5.522,0,0,0,.3.6.3.3,0,0,1,.3,0,6.078,6.078,0,0,1,2.055.316a.3.3,0,0,1-.082.591" transform="translate(51.741 104.874)"/>
      <path id="Shape-96" data-name="Shape" d="M.3.906A.3.3,0,0,1,.113.37l.379-.3A.3.3,0,0,1,.868.536l-.38.3A.3.3,0,0,1,.3.906" transform="translate(52.423 108.832)"/>
      <path id="Shape-97" data-name="Shape" d="M.3,1.288A.3.3,0,0,1,.129.739L1.115.053a.3.3,0,0,1,.342.5l-.985.685A.3.3,0,0,1,.3,1.288" transform="translate(50.602 114.919)"/>
      <path id="Shape-98" data-name="Shape" d="M.6,2.049a.3.3,0,0,1-.291-.228C.239,1.528.192,1.349.16,1.228A3.34,3.34,0,0,1,.047.655L0,.344A.3.3,0,1,1,.6.258L.643.572a2.855,2.855,0,0,0,.1.5c.032.122.079.3.153.6a.3.3,0,0,1-.219.365A.311.311,0,0,1,.6,2.049" transform="translate(56.296 114.767)"/>
      <path id="Shape-99" data-name="Shape" d="M.6.681A.3.3,0,0,1,.467.648L.383.6.3.6A.3.3,0,0,1,.3,0H.384A.427.427,0,0,1,.658.067L.74.111A.3.3,0,0,1,.6.681" transform="translate(44.375 117.961)"/>
      <path id="Shape-100" data-name="Shape" d="M.364,4.12c-.205,0-.324-.084-.355-.251-.057-.312.15-.367,1.025-.6h0c.432-.2.875-.363,1.3-.524.29-.109.579-.218.868-.336.666-.275,1.333-.587,1.978-.89A26.331,26.331,0,0,1,8.888.013a.3.3,0,0,1,.373.2.3.3,0,0,1-.2.374A25.957,25.957,0,0,0,5.439,2.068c-.652.305-1.325.62-2,.9-.294.121-.59.232-.884.343-.425.159-.865.325-1.284.516l0-.005a.35.35,0,0,1-.076.03C.94,3.918.776,3.965.666,4a.3.3,0,0,1-.207.117.883.883,0,0,1-.095.005" transform="translate(31.599 116.178)"/>
      <path id="Shape-101" data-name="Shape" d="M.3.844A.3.3,0,0,1,.176.269L.313.207C.445.146.577.085.712.026a.3.3,0,0,1,.244.55C.823.635.692.7.563.755L.425.817A.3.3,0,0,1,.3.844" transform="translate(42.029 127.293)"/>
      <path id="Shape-102" data-name="Shape" d="M.87,1.392c-.283,0-.564-.327-.652-.439C-.092.559,0,.3.076.188A.41.41,0,0,1,.537.017,1.279,1.279,0,0,1,1.216,1a.357.357,0,0,1-.222.367.338.338,0,0,1-.124.023" transform="translate(38.59 123.634)"/>
      <path id="Shape-103" data-name="Shape" d="M.68,1.009a.3.3,0,0,1-.219-.1L.081.507A.3.3,0,1,1,.52.1L.9.5a.3.3,0,0,1-.219.507" transform="translate(46.887 122.551)"/>
      <path id="Shape-104" data-name="Shape" d="M.358,1.416a.3.3,0,0,1-.3-.269C.04.959.027.851.017.78A1.427,1.427,0,0,1,0,.436l0-.144A.306.306,0,0,1,.318,0,.3.3,0,0,1,.61.311L.6.457A1.064,1.064,0,0,0,.614.705c.009.073.023.184.044.378a.3.3,0,0,1-.267.331l-.032,0" transform="translate(56.64 99.247)"/>
      <path id="Shape-105" data-name="Shape" d="M.3,1.313A.3.3,0,0,1,.019.906C.357,0,1.84,0,2.736.008c.157,0,.285,0,.357-.006a.3.3,0,0,1,.33.268A.3.3,0,0,1,3.157.6C3.07.611,2.923.61,2.734.611,2.151.6.773.6.582,1.116a.3.3,0,0,1-.282.2" transform="translate(71.688 101.968)"/>
      <path id="Shape-106" data-name="Shape" d="M.3,8.1A.308.308,0,0,1,.2,8.076a.3.3,0,0,1-.176-.388c.462-1.236.942-2.466,1.423-3.7S2.429,1.465,2.9.2a.3.3,0,1,1,.563.21C2.99,1.681,2.488,2.968,2,4.212,1.522,5.44,1.043,6.667.582,7.9A.3.3,0,0,1,.3,8.1" transform="translate(65.804 115.434)"/>
    </g>
    <g id="Element" transform="translate(39.564 60.616)">
      <path id="Shape-107" data-name="Shape" d="M0,20.838A21.076,21.076,0,0,1,21.3,0a21.076,21.076,0,0,1,21.3,20.838A21.076,21.076,0,0,1,21.3,41.677,21.076,21.076,0,0,1,0,20.838" transform="translate(0.3 0.301)" fill="#fff"/>
      <path id="Shape-108" data-name="Shape" d="M21.6,42.279A21.4,21.4,0,0,1,0,21.139,21.4,21.4,0,0,1,21.6,0a21.4,21.4,0,0,1,21.6,21.139A21.4,21.4,0,0,1,21.6,42.279ZM21.6.6A20.8,20.8,0,0,0,.6,21.139a20.8,20.8,0,0,0,21,20.538,20.8,20.8,0,0,0,21-20.538A20.8,20.8,0,0,0,21.6.6Z" transform="translate(0 0)"/>
      <path id="Shape-109" data-name="Shape" d="M0,13.417A13.568,13.568,0,0,1,13.715,0,13.568,13.568,0,0,1,27.431,13.417,13.569,13.569,0,0,1,13.715,26.834,13.569,13.569,0,0,1,0,13.417" transform="translate(7.889 7.722)" fill="#ff0e11"/>
      <path id="Shape-110" data-name="Shape" d="M.172,8.534C-.834,6.417,2.84,2.589,4.379,1.71c3.392-1.931,7.556-2.4,10.875-.492.841.485,3.783,3.361,3.137,4.416S13.8,3.419,8.044,3.834.815,9.89.172,8.534" transform="translate(10.512 9.96)" fill="#fff"/>
      <path id="Shape-111" data-name="Shape" d="M2.819,3.075A.718.718,0,0,1,2.23,4.216C1.594,4.27.368,4.31.161,3.887a2.01,2.01,0,0,1-.087-.9C.054,2.108.04.987,0,.155.234-.007,1.138-.127,1.306.248a26.5,26.5,0,0,1,.08,2.84,5.394,5.394,0,0,0,1.433-.014" transform="translate(11.249 20.096)" fill="#fff"/>
      <path id="Shape-112" data-name="Shape" d="M2.76,4.348a.763.763,0,0,1-.589-.236.923.923,0,0,1-.154-.6l-.317,0-.226,0a2.887,2.887,0,0,0-.034.6,1.33,1.33,0,0,1-.7.224A.71.71,0,0,1,.2,4.113a.945.945,0,0,1-.191-.746c.058-.588.13-1,.2-1.4A11.614,11.614,0,0,0,.4.434,2.535,2.535,0,0,1,1.78,0a1.6,1.6,0,0,1,.7.147,1.2,1.2,0,0,1,.532.5,6.162,6.162,0,0,1,.372,2.27q.008.153.016.307c0,.053.005.1.007.145a1.792,1.792,0,0,0,.1.621A.883.883,0,0,1,2.76,4.348ZM1.684,1.38a.2.2,0,0,0-.1.015c-.008.064-.013.224-.019.408-.009.289-.02.648-.048.867h.455c0-.085-.008-.182-.012-.284a5.426,5.426,0,0,0-.089-.971A.38.38,0,0,0,1.684,1.38Z" transform="translate(14.387 20.092)" fill="#fff"/>
      <path id="Shape-113" data-name="Shape" d="M3.245.335a6.85,6.85,0,0,1,.127,2.323c-.161,1.175-.616,1.618-1.594,1.658C.547,4.363.025,3.746,0,2.745-.009,1.94.012.993,0,.248.447-.088,1.364-.074,1.411.342c.033.322-.342,3.034.294,3.02C2.382,3.349,1.9.657,1.933.254c.335-.288,1.205-.416,1.312.081" transform="translate(18.164 20.083)" fill="#fff"/>
      <path id="Shape-114" data-name="Shape" d="M1.941.227C2.209,0,2.966-.143,3.207.267a2.174,2.174,0,0,1,.074.873c-.014.886-.014,1.846-.014,2.658a.716.716,0,0,1-1.339.054,17.8,17.8,0,0,1-.563-1.725c-.02.6-.02,1.262,0,1.92-.308.3-1.239.43-1.339-.268a5.334,5.334,0,0,1,0-1.034C.026,1.952.053,1.052.04.3c.3-.289,1.1-.49,1.366-.02a10.516,10.516,0,0,1,.523,1.792c.047-.564.013-1.228.013-1.846" transform="translate(21.924 20.091)" fill="#fff"/>
      <path id="Shape-115" data-name="Shape" d="M3.031,1.007a.676.676,0,0,1-.817.524.331.331,0,0,0-.335-.423C1.1,1.095,1.1,3.35,2.113,3.236A1.588,1.588,0,0,0,3,2.84c.763.148.04,1.5-1.3,1.45C1.229,4.27.024,4.062,0,2.209-.13-.55,3.091-.449,3.031,1.007" transform="translate(25.547 20.089)" fill="#fff"/>
      <path id="Shape-116" data-name="Shape" d="M3.328,4.008c-.06.067-.195.282-.73.282-.6.013-.623-.336-.629-.839-.006-.315-.006-.584-.006-.832a2.785,2.785,0,0,1-.556.067c.013.524.013,1.02.007,1.323-.06.067-.194.282-.73.282C.08,4.3.06,3.954.053,3.45A31.077,31.077,0,0,0,0,.174,2.745,2.745,0,0,1,.73,0c.368,0,.67.161.656.6-.007.255,0,.672.007,1.142a4.029,4.029,0,0,0,.569-.074c0-.49,0-.759-.007-.98S1.935,0,2.645,0c.368,0,.67.161.656.6-.02.692.054,2.639.027,3.4" transform="translate(29.139 20.083)" fill="#fff"/>
    </g>
  </g>
</svg>
