<svg id="thumb-premios" xmlns="http://www.w3.org/2000/svg" xmlns:xlink="http://www.w3.org/1999/xlink" width="200" height="200" viewBox="0 0 200 200">
  <defs>
    <clipPath id="clip-path">
      <path id="Shape" d="M0,0H20.311V7.44H0Z" fill="none"/>
    </clipPath>
  </defs>
  <g id="BG">
    <rect id="BG-2" data-name="BG" width="200" height="200" fill="none"/>
  </g>
  <g id="Winner" transform="translate(16.794 45.294)">
    <g id="Сharacter" transform="translate(12.113 0)">
      <g id="Group" transform="translate(0 3.793)">
        <path id="Shape-2" data-name="Shape" d="M21.351,11.9a17.506,17.506,0,0,1-2.511-4.533C17.386,4.055,15.72.556,15.72.556L11.146,0c.607,6.154,1.291,5.79-.031,13.642C10.757,15.773,0,21.132,0,21.132s1.865,4.159,1.94,4.773c1.7,13.779,26.025,13.644,26.025,13.644l3.089-23.686s-8.277-2.126-9.7-3.962" transform="translate(21.819 9.591)" fill="#fff"/>
        <path id="Shape-3" data-name="Shape" d="M28.271,40.157H28.26c-.069,0-1.715,0-4.14-.237-1.363-.131-2.714-.311-4.017-.533a45.9,45.9,0,0,1-4.6-1.021,25.4,25.4,0,0,1-8.819-4.136A13.259,13.259,0,0,1,3.535,30.8a11.085,11.085,0,0,1-1.024-2.126,11.44,11.44,0,0,1-.569-2.426A48.748,48.748,0,0,0,.027,21.56a.3.3,0,0,1,.142-.4C4.274,19.118,10.877,15.336,11.12,13.9c1-5.96.839-7.171.443-10.1l0-.028c-.126-.936-.269-2-.411-3.436a.3.3,0,0,1,.09-.247A.3.3,0,0,1,11.448,0l.039,0,4.575.556A.305.305,0,0,1,16.3.73c.015.032,1.673,3.517,3.124,6.822l.238.549A15.513,15.513,0,0,0,21.9,12.02c1.115,1.437,7.263,3.269,9.538,3.854a.3.3,0,0,1,.226.333L28.571,39.893A.305.305,0,0,1,28.271,40.157ZM11.791.652c.131,1.263.261,2.22.375,3.065.4,2.991.572,4.229-.446,10.28-.081.483-.621,1.134-1.6,1.934a31.255,31.255,0,0,1-3.325,2.282c-2.45,1.5-5.076,2.852-6.092,3.364a43.6,43.6,0,0,1,1.846,4.6,10.6,10.6,0,0,0,1.432,4.187,12.444,12.444,0,0,0,2.831,3.207,23.4,23.4,0,0,0,8.06,4,47.252,47.252,0,0,0,8.263,1.646c2.384.272,4.2.327,4.87.338l3.019-23.154c-1.368-.363-8.259-2.266-9.606-4A16,16,0,0,1,19.1,8.341L18.866,7.8c-1.3-2.963-2.765-6.062-3.045-6.654Z" transform="translate(21.514 9.287)"/>
        <path id="Shape-4" data-name="Shape" d="M.141,2.079C1.479,2.519,2,.509.841.058A.927.927,0,0,0,0,.163" transform="translate(41.932 10.209)" fill="#fff"/>
        <path id="Shape-5" data-name="Shape" d="M.81,2.749a1.47,1.47,0,0,1-.46-.078.3.3,0,1,1,.19-.577.656.656,0,0,0,.883-.428A.777.777,0,0,0,1.034.645.627.627,0,0,0,.473.719a.3.3,0,1,1-.338-.5A1.221,1.221,0,0,1,1.256.079a1.373,1.373,0,0,1,.739,1.793A1.271,1.271,0,0,1,.81,2.749" transform="translate(41.628 9.904)"/>
        <path id="Shape-6" data-name="Shape" d="M8.251,1.853A72.26,72.26,0,0,1,11.1,15.3a4.378,4.378,0,0,1-3.763,4.434,4.22,4.22,0,0,1-5.048-3.045C1.417,13.531-.045,6.5,0,5.2A6.475,6.475,0,0,1,2.215.962C4.082-.761,7.707.01,8.251,1.853" transform="translate(32.254 0.74)" fill="#fff"/>
        <path id="Shape-7" data-name="Shape" d="M6.711,20.435a4.963,4.963,0,0,1-1.369-.19,4.428,4.428,0,0,1-1.279-.6A4.181,4.181,0,0,1,3,18.607,4.864,4.864,0,0,1,2.3,17.076C1.458,14.026-.048,6.882,0,5.492A6.809,6.809,0,0,1,2.312,1.043,3.786,3.786,0,0,1,3.622.268,4.732,4.732,0,0,1,5.214,0,5.09,5.09,0,0,1,6.567.183,3.088,3.088,0,0,1,8.846,2.072,72.293,72.293,0,0,1,11.7,15.6,4.667,4.667,0,0,1,7.7,20.34,5.118,5.118,0,0,1,6.711,20.435ZM5.207.606A4.1,4.1,0,0,0,3.841.833a3.2,3.2,0,0,0-1.116.657A6.19,6.19,0,0,0,.609,5.513a84.3,84.3,0,0,0,2.273,11.4A4.206,4.206,0,0,0,3.5,18.242a3.626,3.626,0,0,0,.92.9,4.065,4.065,0,0,0,2.3.681,4.457,4.457,0,0,0,.859-.083A4.112,4.112,0,0,0,11.1,15.62,71.693,71.693,0,0,0,8.263,2.243,2.5,2.5,0,0,0,6.405.769,4.508,4.508,0,0,0,5.207.606Z" transform="translate(31.95 0.435)"/>
        <path id="Shape-8" data-name="Shape" d="M.549,2.76c-.059,0-.109,0-.148,0a.3.3,0,0,1-.294-.313A.31.31,0,0,1,.419,2.15c.5.016.679-.084.7-.145C1.216,1.773.66,1.034.1.529A.3.3,0,1,1,.508.078C.86.4,1.986,1.488,1.686,2.232c-.192.475-.8.528-1.138.528" transform="translate(39.554 10.626)"/>
        <path id="Shape-9" data-name="Shape" d="M.655.307a.353.353,0,0,0-.4-.3A.353.353,0,0,0,.008.434a.353.353,0,0,0,.4.3A.353.353,0,0,0,.655.307" transform="translate(37.769 10.53)"/>
        <path id="Shape-10" data-name="Shape" d="M.656.307a.353.353,0,0,0-.4-.3A.353.353,0,0,0,.008.434a.354.354,0,0,0,.4.3A.353.353,0,0,0,.656.307" transform="translate(41 9.757)"/>
        <path id="Shape-11" data-name="Shape" d="M1.751,1.819C.711,2.768-.583,1.145.286.262A.924.924,0,0,1,1.1.014" transform="translate(32.797 12.487)" fill="#fff"/>
        <path id="Shape-12" data-name="Shape" d="M1.386,2.713a1.345,1.345,0,0,1-.951-.422A1.372,1.372,0,0,1,.375.353,1.218,1.218,0,0,1,1.454.019a.3.3,0,1,1-.1.6A.62.62,0,0,0,.809.779.777.777,0,0,0,.872,1.869a.655.655,0,0,0,.98.03.3.3,0,1,1,.41.449,1.289,1.289,0,0,1-.877.365" transform="translate(32.491 12.183)"/>
        <path id="Shape-13" data-name="Shape" d="M1.108.893,1.085.726" transform="translate(40.379 12.146)" fill="#6295e6"/>
        <path id="Shape-14" data-name="Shape" d="M14.168,4.987c-1.865,4.721-9.9,1.665-9.9,1.665s-.237,4.862-.859,4.979c-1.572.3-3.747-2.572-3.362-6.623C.679-1.647,16.8-1.684,14.168,4.987" transform="translate(30.293 0)" fill="#ffbe00"/>
        <path id="Shape-15" data-name="Shape" d="M0,35.579,8.207,24.506l15.848,3.47a85.906,85.906,0,0,0,7.375-14.569c1.216-3.385,1.3-11.771,1.344-11.791.86-.409,1.824,5.066,1.824,5.066s1.317-3.016.59-4.828c-.38-.944-2.245.387-2.441-.769C32.6.245,36-.564,36.862.529c1.1,1.393-.069,4.8-.069,4.8S38.53,1.359,39.473,1.9c.85.481-.124.812-1.235,4.078,2-3.2,1.811-3.588,2.542-3.324.878.317.371.517-1.084,4.133,1.23-1.953,2.172-3.521,2.679-2.716.48.757-1.207,2.34-3.159,5.94-.283.528-4.837,22.175-8.792,28.239C27.625,42.534,0,35.579,0,35.579" transform="translate(52.941 1.338)" fill="#fff"/>
        <path id="Shape-16" data-name="Shape" d="M25.208,40.227a57.917,57.917,0,0,1-7.484-.6c-2.388-.322-5.071-.773-7.975-1.34C4.732,37.3.676,36.293.23,36.181a.3.3,0,0,1-.17-.475L8.266,24.632a.3.3,0,0,1,.243-.123.307.307,0,0,1,.067.007l15.639,3.425a84.952,84.952,0,0,0,7.232-14.329c.667-1.855,1.1-5.588,1.3-11.1.019-.551.025-.717.088-.793a1.138,1.138,0,0,1-.083-.281c-.039-.225.019-.659.856-1.033a5.152,5.152,0,0,1,2-.409,3.3,3.3,0,0,1,1.035.148,1.579,1.579,0,0,1,.762.5,2.624,2.624,0,0,1,.489,1.282,6.256,6.256,0,0,1,0,1.514,3.519,3.519,0,0,1,1.45-1.553.79.79,0,0,1,.249-.042.676.676,0,0,1,.338.089c.374.212.517.454.464.785a.591.591,0,0,1,.386-.138,1.217,1.217,0,0,1,.409.086.9.9,0,0,1,.584.443c.12.282.022.6-.258,1.237a1.225,1.225,0,0,1,.844-.5.673.673,0,0,1,.581.357c.394.622-.131,1.418-1.084,2.864h0c-.576.873-1.293,1.959-2.064,3.382-.05.122-.287,1.111-.587,2.364l-.031.128,0,.008c-1.495,6.245-5,20.869-8.185,25.759a3.306,3.306,0,0,1-2.073,1.164A16.32,16.32,0,0,1,25.208,40.227ZM8.638,25.152h0L.819,35.7c3.611.894,8.045,1.832,11.862,2.508,2.472.438,4.751.781,6.773,1.021a52.007,52.007,0,0,0,5.942.415,15.138,15.138,0,0,0,3.291-.291,2.818,2.818,0,0,0,1.785-.969c3.136-4.81,6.746-19.9,8.1-25.577a26.34,26.34,0,0,1,.674-2.64c.777-1.432,1.5-2.531,2.083-3.414l.009-.014c.706-1.07,1.263-1.915,1.079-2.206a.206.206,0,0,0-.066-.075h-.012c-.333,0-1.373,1.654-1.932,2.543l-.156.248A.3.3,0,0,1,40,7.394a.306.306,0,0,1-.138-.033.3.3,0,0,1-.144-.384c.428-1.064.771-1.827,1.021-2.384a4.755,4.755,0,0,0,.471-1.244h0a1,1,0,0,0-.229-.106.464.464,0,0,0-.149-.039c-.141,0-.246.185-.687.965l0,0c-.3.527-.706,1.249-1.341,2.268a.3.3,0,0,1-.546-.259,18.81,18.81,0,0,1,1.222-2.835l0,0c.385-.743.385-.743.149-.876a.067.067,0,0,0-.038-.01.182.182,0,0,0-.056.011c-.578.192-1.609,2.041-2.157,3.293a.3.3,0,0,1-.566-.22c.309-.905.933-3.482.117-4.517A1.727,1.727,0,0,0,35.6.611a4.49,4.49,0,0,0-1.744.352c-.431.192-.508.358-.5.376.029.17.092.251.373.251a4.141,4.141,0,0,0,.51-.045,4.4,4.4,0,0,1,.58-.051,1.267,1.267,0,0,1,.562.109.809.809,0,0,1,.4.443c.764,1.907-.538,4.934-.593,5.062a.3.3,0,0,1-.252.181H34.9a.309.309,0,0,1-.3-.252,19.76,19.76,0,0,0-1.246-4.576c0,.021,0,.042,0,.063v.011c-.074,2.076-.3,8.392-1.334,11.279a86.861,86.861,0,0,1-7.406,14.63.3.3,0,0,1-.253.14.3.3,0,0,1-.068-.008L8.638,25.152ZM34.834,2.1h0a4.163,4.163,0,0,0-.521.047h0c-.131.017-.28.037-.431.045a13.746,13.746,0,0,1,1.111,3.648,9.554,9.554,0,0,0,.382-1.767,3.8,3.8,0,0,0-.164-1.8c-.05-.124-.155-.173-.376-.173Z" transform="translate(52.637 1.031)"/>
        <path id="Shape-17" data-name="Shape" d="M20.618,0l3.868,13.224L12.134,23.736A86.248,86.248,0,0,0,19.29,38.412c2.687,4.124,6.9,6.805,6.861,6.979-.193.932-3.415-.388-3.414-.388s4.888,7.162,3.889,7.892c-.891.653-4.14-5.33-4.14-5.33S24.6,51.347,23.6,51.776c-.9.384-.573-.594-2.5-3.453,1.344,3.531,1.765,3.613,1.112,4.033-.785.507-.636-.018-2.64-3.362.812,2.161,1.494,3.86.545,3.773-.892-.078-1.136-2.37-2.826-6.1C17.045,46.117,2.537,29.406.1,22.591-1.632,17.771,20.618,0,20.618,0" transform="translate(0.294 34.496)" fill="#fff"/>
        <path id="Shape-18" data-name="Shape" d="M26.764,53.552a.659.659,0,0,1-.148-.017c-.48-.107-1.209-.882-2.167-2.3a1.569,1.569,0,0,1-.036.686.707.707,0,0,1-.392.439,1.128,1.128,0,0,1-.439.106.617.617,0,0,1-.467-.211c.006.265-.122.457-.44.661a1.067,1.067,0,0,1-.562.215.6.6,0,0,1-.144-.018c-.3-.076-.489-.344-.83-.955a1.22,1.22,0,0,1-.114.972.643.643,0,0,1-.538.248c-.032,0-.066,0-.1-.005-.733-.064-1.051-.964-1.629-2.6-.348-.987-.782-2.214-1.446-3.681-.071-.12-.758-.958-1.629-2.019l-.009-.011C11.6,40.1,2.071,28.487.1,23a3.326,3.326,0,0,1,.337-2.381,16.592,16.592,0,0,1,2-3.194A68.563,68.563,0,0,1,9.4,9.943C14.625,4.961,20.114.553,20.723.066A.308.308,0,0,1,20.914,0,.3.3,0,0,1,21.2.218l3.868,13.224a.3.3,0,0,1-.095.316L12.788,24.133A85.313,85.313,0,0,0,19.839,38.55,27.885,27.885,0,0,0,26,44.909h0l.005,0c.693.546.782.617.736.841-.079.381-.4.574-.964.574a3.318,3.318,0,0,1-.434-.032,9.027,9.027,0,0,1-1.539-.386,43.135,43.135,0,0,1,2.713,4.547c.821,1.662,1.016,2.666.58,2.985A.561.561,0,0,1,26.764,53.552ZM22.78,47.565a.3.3,0,0,1,.266.156c.028.05.081.144.144.263,1.509,2.735,3.111,4.961,3.57,4.961h0c.131-.218-.22-1.144-.962-2.541a54.408,54.408,0,0,0-2.987-4.875.236.236,0,0,1-.086-.242.3.3,0,0,1,.223-.273.31.31,0,0,1,.2.013,9.1,9.1,0,0,0,2.644.7.974.974,0,0,0,.231-.023c-.09-.074-.2-.163-.322-.257h0l-.075-.059a28.39,28.39,0,0,1-6.3-6.506c-.917-1.408-1.864-3.054-2.814-4.893-.761-1.474-1.527-3.074-2.275-4.757-1.3-2.925-2.09-5.065-2.1-5.087a.305.305,0,0,1,.088-.336l12.2-10.385L20.748.825c-3.49,2.809-8.718,7.309-12.923,11.512a53.958,53.958,0,0,0-5.47,6.176A12.656,12.656,0,0,0,.9,20.992a2.6,2.6,0,0,0-.219,1.8c1.93,5.389,11.416,16.95,15.466,21.888a26.087,26.087,0,0,1,1.721,2.164c.675,1.49,1.113,2.732,1.466,3.729l0,.007c.426,1.206.763,2.159,1.107,2.189l.037,0a.154.154,0,0,0,.062-.008c.223-.231-.422-1.943-.849-3.077l-.106-.281a.3.3,0,0,1,.285-.41.3.3,0,0,1,.261.148c.588.982.991,1.719,1.285,2.258l0,.005a4.63,4.63,0,0,0,.7,1.119.844.844,0,0,0,.225-.119c.23-.148.23-.148-.234-1.224-.239-.555-.567-1.315-1-2.446a.3.3,0,0,1,.536-.278,18.7,18.7,0,0,1,1.523,2.694c.262.552.332.7.448.7a.459.459,0,0,0,.161-.05c.012,0,.036-.015.057-.077a2.848,2.848,0,0,0-.287-1.491,16.673,16.673,0,0,0-.907-1.982l-.129-.236h0a.3.3,0,0,1,.267-.449Z" transform="translate(0 34.192)"/>
        <path id="Shape-19" data-name="Shape" d="M17,28.451S22.146,40.147,29.434,48c9.181,9.893,23.281,14.93,25.645,15.68.48.151,4.879-13.432,6.419-17.214C64.1,40.078,73.5,33.177,78.511,29.237c-.645-1.054-5.5.388-10.421-2.088-6.067-3.056-12.349-10-12.349-10l3.9.466L59.536,3.034S44.077-.758,38.586.137L31.405,5.414,19.7,2.32s-3.87,2.047-7.882,4.27C8.181,8.6,0,18.707,0,18.707L11.118,32.332Z" transform="translate(9.174 23.504)" fill="#ff0e11"/>
        <path id="Shape-20" data-name="Shape" d="M0,2.329l3.713,9.277,8.271.767L9.364,0Z" transform="translate(130.518 89.78)" fill="#fff"/>
        <path id="Shape-21" data-name="Shape" d="M12.288,12.98H12.26l-8.271-.767a.3.3,0,0,1-.254-.189L.022,2.746A.3.3,0,0,1,.23,2.338L9.594.009A.315.315,0,0,1,9.668,0a.3.3,0,0,1,.3.241l2.62,12.373a.3.3,0,0,1-.3.367ZM9.436.674.715,2.843,4.23,11.624l7.675.712L9.436.674Z" transform="translate(130.214 89.476)"/>
        <path id="Shape-22" data-name="Shape" d="M61.532,1.381c-3.845-5.243-41.439,5.7-48.1,11.912C3.473,22.6-1.154,26.625.245,28.7c12.99,19.237,51.575-8.153,51.575-8.153L62.652,40.071l17.919-2.512S68.006,10.214,61.532,1.381" transform="translate(64.853 53.742)"/>
        <g id="Group-2" data-name="Group" transform="translate(132.174 98.417)">
          <path id="Shape-23" data-name="Shape" d="M0,0H20.311V7.44H0Z" transform="translate(0 0)" fill="none"/>
          <g id="Group-3" data-name="Group" transform="translate(0 0)" clip-path="url(#clip-path)">
            <path id="Shape-24" data-name="Shape" d="M.457.566,0,7.44l19.711-.96a1.433,1.433,0,0,0-.251-2.439C17.7,2.982,11.184,0,11.184,0Z" transform="translate(0 0)" fill="#ffbe00"/>
          </g>
        </g>
        <path id="Shape-25" data-name="Shape" d="M.3,1.508A.3.3,0,0,1,.29.9L19.882,0a.311.311,0,0,1,.318.29.3.3,0,0,1-.29.317l-19.592.9H.3" transform="translate(132.181 102.981)" fill="#fff"/>
        <path id="Shape-26" data-name="Shape" d="M.3,2a.3.3,0,0,1-.178-.55L2.07.057A.3.3,0,1,1,2.425.55L.482,1.943A.3.3,0,0,1,.3,2" transform="translate(145.655 100.145)" fill="#fff"/>
        <path id="Shape-27" data-name="Shape" d="M.3,2a.3.3,0,0,1-.178-.55L2.07.057A.3.3,0,1,1,2.425.55L.482,1.943A.3.3,0,0,1,.3,2" transform="translate(143.904 99.515)" fill="#fff"/>
        <path id="Shape-28" data-name="Shape" d="M6.056,3.535a.3.3,0,0,1-.22-.095C4.587,2.125,3.173.634.3.607A.3.3,0,0,1,.3,0h0c3.13.029,4.7,1.689,5.97,3.023a.3.3,0,0,1-.22.512" transform="translate(132.34 100.579)" fill="#fff"/>
        <path id="Shape-29" data-name="Shape" d="M.953,1.717H.914c-.557,0-.775-.233-.86-.428A1,1,0,0,1,.344.261.736.736,0,0,1,.854,0a.436.436,0,0,1,.162.031c.911.354.788,1,.728,1.195C1.638,1.581,1.1,1.712.953,1.717ZM.853.62a.605.605,0,0,0-.243.418c0,.02.073.073.267.073l.059,0a.712.712,0,0,0,.236-.1C1.208.86,1.1.728.853.62Z" transform="translate(142.936 100.784)" fill="#fff"/>
        <path id="Shape-30" data-name="Shape" d="M0,9.008l10.379.109,3.7-6.941L1.074,0Z" transform="translate(131.703 43.369)" fill="#fff"/>
        <path id="Shape-31" data-name="Shape" d="M10.683,9.724h0L.3,9.616A.3.3,0,0,1,0,9.276L1.076.268A.3.3,0,0,1,1.378,0a.3.3,0,0,1,.05,0L14.437,2.18a.3.3,0,0,1,.219.442l-3.7,6.941A.3.3,0,0,1,10.683,9.724ZM1.643.656l-1,8.356,9.856.1,3.417-6.405L1.643.656Z" transform="translate(131.399 43.065)"/>
        <path id="Shape-32" data-name="Shape" d="M43.441.023C26.913-.512,20.786,8.49,16.145,18.2,8.509,34.181,0,54.592,0,54.592s.736,3.4,13.369,4.4c17.6,1.379,18.874-14.25,22-26.111a54.386,54.386,0,0,1,3.832-10.4L73.422,25.02,78.4,6.843S54.977.4,43.441.023" transform="translate(60.718 30.89)"/>
        <path id="Shape-33" data-name="Shape" d="M0,15.642l6.246,2.924L14.133,1.051a1.468,1.468,0,0,0-2.4-.675c-1.779,1.14-7.48,5.716-7.48,5.716Z" transform="translate(140.065 37.909)" fill="#ffbe00"/>
        <path id="Shape-34" data-name="Shape" d="M.3,18a.3.3,0,0,1-.125-.027.3.3,0,0,1-.151-.4L7.919.179a.3.3,0,0,1,.554.251L.581,17.818A.3.3,0,0,1,.3,18" transform="translate(144.576 37.896)" fill="#fff"/>
        <path id="Shape-35" data-name="Shape" d="M.743,2.808a.3.3,0,0,1-.3-.244L.006.363A.3.3,0,0,1,.6.244l.439,2.2A.3.3,0,0,1,.8,2.8a.3.3,0,0,1-.06.006" transform="translate(148.156 40.534)" fill="#fff"/>
        <path id="Shape-36" data-name="Shape" d="M.743,2.808a.3.3,0,0,1-.3-.244L.006.363A.3.3,0,0,1,.6.244l.439,2.2A.3.3,0,0,1,.8,2.8a.3.3,0,0,1-.06.006" transform="translate(146.574 41.531)" fill="#fff"/>
        <path id="Shape-37" data-name="Shape" d="M.3,25.449a.3.3,0,0,1-.124-.581C9.407,20.753,12.9.458,12.935.254a.3.3,0,0,1,.6.1,70.981,70.981,0,0,1-2.924,10.888C7.866,18.862,4.439,23.633.428,25.422a.306.306,0,0,1-.124.026" transform="translate(82.512 63.744)" fill="#fff"/>
        <path id="Shape-38" data-name="Shape" d="M.875,1.722A1.112,1.112,0,0,1,.638,1.7a.779.779,0,0,1-.61-.5A.79.79,0,0,1,.292.4,1.117,1.117,0,0,1,1.1,0a.732.732,0,0,1,.5.192.887.887,0,0,1-.085,1.274A.851.851,0,0,1,.875,1.722ZM1.1.61A.544.544,0,0,0,.732.819c-.114.119-.127.189-.124.2a.251.251,0,0,0,.16.084.5.5,0,0,0,.108.012.276.276,0,0,0,.187-.054c.182-.2.182-.369.124-.423A.125.125,0,0,0,1.1.61Z" transform="translate(146.672 43.815)" fill="#fff"/>
        <path id="Shape-39" data-name="Shape" d="M.3,2.8a.3.3,0,0,1-.23-.5A6.579,6.579,0,0,1,1.628.936,5.429,5.429,0,0,1,6.111.215a.3.3,0,1,1-.192.576,4.823,4.823,0,0,0-3.967.66A5.95,5.95,0,0,0,.534,2.691a.3.3,0,0,1-.23.1" transform="translate(139.469 50.891)" fill="#fff"/>
        <path id="Shape-40" data-name="Shape" d="M1.529,5.442a.3.3,0,0,1-.3-.275A14.679,14.679,0,0,0,.025.425.3.3,0,0,1,.583.183,15.26,15.26,0,0,1,1.832,5.109a.3.3,0,0,1-.274.331H1.529" transform="translate(98.254 47.89)" fill="#fff"/>
        <path id="Shape-41" data-name="Shape" d="M.3,3.545a.3.3,0,0,1-.29-.4A10.864,10.864,0,0,0,.444.3a.3.3,0,0,1,.3-.3h0a.3.3,0,0,1,.3.306A11.275,11.275,0,0,1,.594,3.333a.3.3,0,0,1-.29.211" transform="translate(101.103 50.059)" fill="#fff"/>
        <path id="Shape-42" data-name="Shape" d="M1.749,3.983a.3.3,0,0,1-.3-.3A6.026,6.026,0,0,0,.063.49.3.3,0,0,1,.545.118,6.491,6.491,0,0,1,2.053,3.676a.3.3,0,0,1-.3.307Z" transform="translate(113.969 70.019)" fill="#fff"/>
        <path id="Shape-43" data-name="Shape" d="M.3,3.083A.312.312,0,0,1,.216,3.07a.3.3,0,0,1-.2-.379c.2-.648.3-1.006.36-1.234A3.907,3.907,0,0,1,.731.527L.9.175a.3.3,0,1,1,.55.259L1.28.788a3.442,3.442,0,0,0-.321.832C.9,1.85.794,2.212.6,2.867A.305.305,0,0,1,.3,3.083" transform="translate(116.634 70.344)" fill="#fff"/>
        <path id="Shape-44" data-name="Shape" d="M15.451,8.894a.318.318,0,0,1-.08-.011L.224,4.754a.3.3,0,1,1,.16-.586L15.378,8.255,25.157.071a.3.3,0,1,1,.39.465l-9.9,8.286a.305.305,0,0,1-.2.071" transform="translate(25.833 23.126)"/>
        <path id="Shape-45" data-name="Shape" d="M.3,14.894h0a.3.3,0,0,1-.3-.305L.064.3a.3.3,0,0,1,.3-.3h0a.3.3,0,0,1,.3.305L.608,14.592a.3.3,0,0,1-.3.3" transform="translate(66.239 26.023)"/>
        <path id="Shape-46" data-name="Shape" d="M.3,36.153a.3.3,0,0,1-.124-.027.3.3,0,0,1-.153-.4L15.97.18a.3.3,0,0,1,.555.248L.581,35.973a.3.3,0,0,1-.278.18" transform="translate(58.183 48.829)"/>
      </g>
      <g id="Group-4" data-name="Group" transform="translate(80.645)">
        <path id="Shape-47" data-name="Shape" d="M.822,3.351a.3.3,0,0,1-.3-.254C.463,2.725.382,2.344.3,1.961.189,1.429.072.88,0,.345A.3.3,0,0,1,.262,0,.3.3,0,0,1,.6.265C.666.776.78,1.313.89,1.833c.083.392.165.782.229,1.162a.3.3,0,0,1-.247.352.32.32,0,0,1-.051,0" transform="translate(5.262 0)"/>
        <path id="Shape-48" data-name="Shape" d="M2.381,2.753a.3.3,0,0,1-.215-.091L.087.519a.308.308,0,0,1,0-.432.3.3,0,0,1,.426,0L2.6,2.233a.308.308,0,0,1,0,.432.3.3,0,0,1-.212.088" transform="translate(1.736 2.09)"/>
        <path id="Shape-49" data-name="Shape" d="M3,1.079a.277.277,0,0,1-.055-.005c-.325-.061-.653-.105-.982-.15A12.292,12.292,0,0,1,.219.6.307.307,0,0,1,.011.221.3.3,0,0,1,.384.012,11.53,11.53,0,0,0,2.046.319c.338.046.676.092,1.011.155a.305.305,0,0,1-.054.6" transform="translate(0 5.956)"/>
      </g>
    </g>
    <g id="Element" transform="translate(28.368 47.153)">
      <path id="Shape-50" data-name="Shape" d="M1.005.582A18.639,18.639,0,0,0,0,7.035C.2,16.2,6.839,23.473,14.823,23.3S29.114,15.564,28.916,6.4A18.6,18.6,0,0,0,27.628,0Z" transform="translate(2.643 6.32)" fill="#ffbe00"/>
      <path id="Shape-51" data-name="Shape" d="M3.33.589A3.278,3.278,0,0,0,0,3.814a3.208,3.208,0,0,0,2.925,3,3.367,3.367,0,0,0,.541.092l.182,0L30.272,6.32l.087,0a3.536,3.536,0,0,0,1.191-.249,3.18,3.18,0,0,0,2.138-2.992A3.276,3.276,0,0,0,30.222,0L27.545.06,6.711.515Z" transform="translate(0 0)" fill="#ffbe00"/>
      <path id="Shape-52" data-name="Shape" d="M3.33.589A3.278,3.278,0,0,0,0,3.814a3.208,3.208,0,0,0,2.925,3,3.367,3.367,0,0,0,.541.092l.182,0L30.272,6.32l.087,0a3.536,3.536,0,0,0,1.191-.249,3.18,3.18,0,0,0,2.138-2.992A3.276,3.276,0,0,0,30.222,0L27.545.06,6.711.515Z" transform="translate(0 0)" fill="rgba(0,0,0,0.1)"/>
      <path id="Shape-53" data-name="Shape" d="M3.738,0h0A4.129,4.129,0,0,1,7.663,4.292l.166,7.658a4.132,4.132,0,0,1-3.736,4.46A4.132,4.132,0,0,1,.167,12.119L0,4.461A4.133,4.133,0,0,1,3.738,0" transform="translate(13.469 22.107)" fill="#ffbe00"/>
      <path id="Shape-54" data-name="Shape" d="M2.046.262,14.075,0a2.153,2.153,0,0,1,2.142,2.166,2.157,2.157,0,0,1-2.046,2.258L2.142,4.686A2.153,2.153,0,0,1,0,2.519,2.157,2.157,0,0,1,2.046.262" transform="translate(9.271 34.162)" fill="#ffbe00"/>
      <path id="Shape-55" data-name="Shape" d="M1.875,8.209,2.22,5.263,0,3.307l2.9-.581L4.062,0,5.507,2.588l2.941.271-2,2.18L7.1,7.933,4.413,6.692Z" transform="translate(13.19 11.024)" fill="#fff"/>
      <path id="Shape-56" data-name="Shape" d="M.3.787A.3.3,0,0,1,.3.178L18.138,0h0a.3.3,0,0,1,0,.609L.306.787Z" transform="translate(3.644 6.249)"/>
      <path id="Shape-57" data-name="Shape" d="M.582,4.891q-.15,0-.3-.009a.3.3,0,0,1,.037-.608C3.865,4.491,8.7.123,8.751.079A.3.3,0,0,1,9.179.1a.306.306,0,0,1-.021.43c-.2.182-4.824,4.36-8.576,4.36" transform="translate(18.203 24.822)"/>
    </g>
    <g id="Element-2" data-name="Element" transform="translate(0 19.888)">
      <path id="Shape-58" data-name="Shape" d="M7.3.261A5.594,5.594,0,1,1,.257,3.915,5.606,5.606,0,0,1,7.3.261Z" transform="translate(0 10.337)" fill="#00b2b2"/>
      <path id="Shape-59" data-name="Shape" d="M.471,0,11,6.588S5.957,10.5,2.348,8.349C-1.411,6.107.471,0,.471,0" transform="translate(129.746 0)" fill="#ff0e11"/>
      <path id="Shape-60" data-name="Shape" d="M0,1.246,6.083,0,4.808,6.14Z" transform="translate(58.181 82.081)" fill="#ffd2e1"/>
    </g>
  </g>
</svg>
