<svg xmlns="http://www.w3.org/2000/svg" xmlns:xlink="http://www.w3.org/1999/xlink" width="170" height="150" viewBox="0 0 170 150">
  <defs>
    <clipPath id="clip-path">
      <path id="Shape" d="M0,0H3.128V9.111H0Z" fill="none"/>
    </clipPath>
  </defs>
  <g id="Success" transform="translate(0 -0.987)">
    <g id="Element" transform="translate(102.628 27.757)">
      <g id="Group" transform="translate(10.962 0)">
        <path id="Shape-2" data-name="Shape" d="M.472,36.536C-2.22,18.565,6.883,2.306,20.8.221S48.2,11.014,50.892,28.985,44.481,63.213,30.556,65.3,3.164,54.507.472,36.536" transform="translate(4.775 7.302)" fill="#fff"/>
        <path id="Shape-3" data-name="Shape" d="M27.875,66.067c-6.294,0-12.549-2.95-17.612-8.308a34.2,34.2,0,0,1-3.427-4.281A37.717,37.717,0,0,1,4,48.5,40.513,40.513,0,0,1,1.842,42.93,42.8,42.8,0,0,1,0,30.169a40.223,40.223,0,0,1,.565-6.377,37.085,37.085,0,0,1,1.517-5.925,33.147,33.147,0,0,1,2.386-5.324A28.8,28.8,0,0,1,7.64,7.969a24.717,24.717,0,0,1,3.873-3.677,21.663,21.663,0,0,1,4.492-2.63A20.308,20.308,0,0,1,21.034.226,20.535,20.535,0,0,1,24.063,0a21.433,21.433,0,0,1,8.572,1.825A27.053,27.053,0,0,1,40.52,7.159,38.3,38.3,0,0,1,51.433,29.219c2.71,18.09-6.516,34.52-20.565,36.626A20.218,20.218,0,0,1,27.875,66.067ZM24.061.547a19.8,19.8,0,0,0-7.867,1.628,21.144,21.144,0,0,0-4.4,2.584A24.191,24.191,0,0,0,8.01,8.371a28.268,28.268,0,0,0-3.1,4.5A32.62,32.62,0,0,0,2.577,18.1,36.567,36.567,0,0,0,1.1,23.927,39.719,39.719,0,0,0,.548,30.2a42.3,42.3,0,0,0,1.81,12.553,40,40,0,0,0,2.114,5.485,37.2,37.2,0,0,0,2.786,4.9,33.674,33.674,0,0,0,3.361,4.213c4.963,5.273,11.092,8.176,17.256,8.177h0a19.772,19.772,0,0,0,2.912-.217c13.752-2.062,22.771-18.213,20.106-36A37.75,37.75,0,0,0,40.142,7.554a26.507,26.507,0,0,0-7.71-5.221A20.9,20.9,0,0,0,24.061.547Z" transform="translate(4.504 7.027)"/>
        <path id="Shape-4" data-name="Shape" d="M.472,36.536C-2.22,18.565,6.883,2.306,20.8.221S48.2,11.014,50.892,28.985,44.481,63.213,30.556,65.3,3.164,54.507.472,36.536" transform="translate(0.271 8.382)" fill="#fff"/>
        <path id="Shape-5" data-name="Shape" d="M27.875,66.068c-6.294,0-12.549-2.95-17.612-8.308a34.2,34.2,0,0,1-3.427-4.281A37.717,37.717,0,0,1,4,48.5,40.512,40.512,0,0,1,1.842,42.93,42.8,42.8,0,0,1,0,30.17a40.224,40.224,0,0,1,.565-6.377,37.085,37.085,0,0,1,1.517-5.925,33.147,33.147,0,0,1,2.386-5.324A28.8,28.8,0,0,1,7.64,7.969a24.718,24.718,0,0,1,3.873-3.677,21.664,21.664,0,0,1,4.492-2.63A20.308,20.308,0,0,1,21.034.226,20.529,20.529,0,0,1,24.065,0a21.429,21.429,0,0,1,8.571,1.825A27.055,27.055,0,0,1,40.52,7.16a38.3,38.3,0,0,1,10.913,22.06c2.71,18.09-6.516,34.52-20.565,36.626A20.22,20.22,0,0,1,27.875,66.068ZM24.061.547a19.8,19.8,0,0,0-7.867,1.628,21.144,21.144,0,0,0-4.4,2.584A24.191,24.191,0,0,0,8.01,8.372a28.269,28.269,0,0,0-3.1,4.5A32.621,32.621,0,0,0,2.577,18.1,36.57,36.57,0,0,0,1.1,23.927,39.719,39.719,0,0,0,.548,30.2a42.3,42.3,0,0,0,1.81,12.553,40,40,0,0,0,2.114,5.485,37.2,37.2,0,0,0,2.786,4.9,33.675,33.675,0,0,0,3.361,4.213c4.963,5.273,11.092,8.177,17.256,8.177h0a19.771,19.771,0,0,0,2.912-.217c13.752-2.062,22.771-18.214,20.106-36A37.753,37.753,0,0,0,40.142,7.555a26.508,26.508,0,0,0-7.71-5.221A20.9,20.9,0,0,0,24.061.547Z" transform="translate(0 8.107)"/>
        <path id="Shape-6" data-name="Shape" d="M.472,36.536C-2.22,18.565,6.883,2.306,20.8.221S48.2,11.014,50.892,28.985,44.481,63.213,30.556,65.3,3.164,54.507.472,36.536" transform="translate(0.271 8.382)" fill="#fff"/>
        <path id="Shape-7" data-name="Shape" d="M27.875,66.068c-6.294,0-12.549-2.95-17.612-8.308a34.2,34.2,0,0,1-3.427-4.281A37.717,37.717,0,0,1,4,48.5,40.512,40.512,0,0,1,1.842,42.93,42.8,42.8,0,0,1,0,30.17a40.224,40.224,0,0,1,.565-6.377,37.085,37.085,0,0,1,1.517-5.925,33.147,33.147,0,0,1,2.386-5.324A28.8,28.8,0,0,1,7.64,7.969a24.718,24.718,0,0,1,3.873-3.677,21.664,21.664,0,0,1,4.492-2.63A20.308,20.308,0,0,1,21.034.226,20.529,20.529,0,0,1,24.065,0a21.429,21.429,0,0,1,8.571,1.825A27.055,27.055,0,0,1,40.52,7.16a38.3,38.3,0,0,1,10.913,22.06c2.71,18.09-6.516,34.52-20.565,36.626A20.22,20.22,0,0,1,27.875,66.068ZM24.061.547a19.8,19.8,0,0,0-7.867,1.628,21.144,21.144,0,0,0-4.4,2.584A24.191,24.191,0,0,0,8.01,8.372a28.269,28.269,0,0,0-3.1,4.5A32.621,32.621,0,0,0,2.577,18.1,36.57,36.57,0,0,0,1.1,23.927,39.719,39.719,0,0,0,.548,30.2a42.3,42.3,0,0,0,1.81,12.553,40,40,0,0,0,2.114,5.485,37.2,37.2,0,0,0,2.786,4.9,33.675,33.675,0,0,0,3.361,4.213c4.963,5.273,11.092,8.177,17.256,8.177h0a19.771,19.771,0,0,0,2.912-.217c13.752-2.062,22.771-18.214,20.106-36A37.753,37.753,0,0,0,40.142,7.555a26.508,26.508,0,0,0-7.71-5.221A20.9,20.9,0,0,0,24.061.547Z" transform="translate(0 8.107)"/>
        <path id="Shape-8" data-name="Shape" d="M.374,28.9C-1.759,14.686,5.446,1.825,16.461.175s21.667,8.538,23.8,22.754-5.072,27.08-16.086,28.727S2.5,43.119.374,28.9" transform="translate(5.411 15.6)"/>
        <path id="Shape-9" data-name="Shape" d="M22.114,52.375c-4.993,0-9.955-2.339-13.971-6.585A27.11,27.11,0,0,1,5.425,42.4a29.884,29.884,0,0,1-2.252-3.943A32.8,32.8,0,0,1,.379,29.215,30.343,30.343,0,0,1,3.524,9.965C6.6,4.464,11.282.988,16.7.177A16.1,16.1,0,0,1,19.073,0c4.992,0,9.952,2.339,13.967,6.586A27.121,27.121,0,0,1,35.758,9.98a29.9,29.9,0,0,1,2.253,3.943,32.828,32.828,0,0,1,2.8,9.237A30.359,30.359,0,0,1,37.66,42.412c-3.08,5.5-7.758,8.977-13.17,9.787A16.088,16.088,0,0,1,22.114,52.375ZM19.076.546a15.59,15.59,0,0,0-2.3.171C11.534,1.5,7,4.881,4,10.232a29.8,29.8,0,0,0-3.081,18.9,32.3,32.3,0,0,0,2.729,9.05,29.375,29.375,0,0,0,2.2,3.864A26.588,26.588,0,0,0,8.5,45.374c3.916,4.162,8.75,6.455,13.613,6.456a15.646,15.646,0,0,0,2.3-.171c5.241-.784,9.778-4.163,12.774-9.514a29.817,29.817,0,0,0,3.082-18.9,32.328,32.328,0,0,0-2.731-9.051,29.39,29.39,0,0,0-2.2-3.864A26.6,26.6,0,0,0,32.686,7C28.77,2.838,23.937.546,19.076.546Z" transform="translate(5.136 15.328)" fill="#fff"/>
        <path id="Shape-10" data-name="Shape" d="M.257,19.885C-1.21,10.1,3.746,1.255,11.325.12S26.232,5.995,27.7,15.775,24.21,34.4,16.631,35.539,1.72,29.664.257,19.885" transform="translate(11.751 23.686)" fill="#fff"/>
        <path id="Shape-11" data-name="Shape" d="M15.279,36.205a11.788,11.788,0,0,1-4.712-1,14.842,14.842,0,0,1-4.331-2.929A20.959,20.959,0,0,1,.262,20.2,20.96,20.96,0,0,1,2.435,6.9,12.708,12.708,0,0,1,11.559.123,11.151,11.151,0,0,1,13.206,0,13.453,13.453,0,0,1,22.87,4.551a19.594,19.594,0,0,1,3.44,5.071,22.659,22.659,0,0,1,1.934,6.385,23.287,23.287,0,0,1,.257,3.662,22.006,22.006,0,0,1-.312,3.5,20.3,20.3,0,0,1-.834,3.247,18.162,18.162,0,0,1-1.311,2.918A15.8,15.8,0,0,1,24.3,31.837a13.573,13.573,0,0,1-2.128,2.015,11.908,11.908,0,0,1-2.467,1.442,11.186,11.186,0,0,1-4.428.911ZM13.211.546a10.6,10.6,0,0,0-1.57.117,12.176,12.176,0,0,0-8.729,6.5A20.417,20.417,0,0,0,.8,20.117,20.413,20.413,0,0,0,6.614,31.879,14.293,14.293,0,0,0,10.773,34.7a11.271,11.271,0,0,0,4.513.963,10.769,10.769,0,0,0,1.58-.117C24.281,34.431,29.143,25.7,27.7,16.088a22.164,22.164,0,0,0-1.869-6.2,19.076,19.076,0,0,0-3.317-4.924A12.919,12.919,0,0,0,13.211.546Z" transform="translate(11.476 23.414)"/>
        <path id="Shape-12" data-name="Shape" d="M.154,11.856C-.722,6.024,2.234.748,6.75.072s8.89,3.5,9.766,9.334-2.08,11.107-6.6,11.785-8.89-3.5-9.761-9.335" transform="translate(17.394 30.885)"/>
        <path id="Shape-13" data-name="Shape" d="M9.234,21.807h0A8.13,8.13,0,0,1,3.4,19.067a11.778,11.778,0,0,1-2.075-3.054A13.6,13.6,0,0,1,.158,12.169a12.6,12.6,0,0,1,1.308-8A7.68,7.68,0,0,1,6.983.074a6.751,6.751,0,0,1,1-.074,8.134,8.134,0,0,1,5.836,2.74,11.791,11.791,0,0,1,2.077,3.053A13.6,13.6,0,0,1,17.06,9.638c.892,5.971-2.172,11.4-6.83,12.1A6.781,6.781,0,0,1,9.234,21.807ZM7.985.546a6.246,6.246,0,0,0-.92.069A7.151,7.151,0,0,0,1.942,4.437,12.061,12.061,0,0,0,.7,12.088a13.089,13.089,0,0,0,1.1,3.658,11.258,11.258,0,0,0,1.954,2.906,7.6,7.6,0,0,0,5.481,2.609,6.242,6.242,0,0,0,.914-.068c4.36-.654,7.218-5.8,6.371-11.474a13.113,13.113,0,0,0-1.1-3.658,11.27,11.27,0,0,0-1.954-2.906A7.6,7.6,0,0,0,7.985.546Z" transform="translate(17.12 30.613)" fill="#fff"/>
        <path id="Shape-14" data-name="Shape" d="M.073,5.7c-.419-2.8,1-5.336,3.169-5.661S7.513,1.717,7.936,4.519s-1,5.336-3.173,5.66S.493,8.5.073,5.7" transform="translate(21.724 36.409)" fill="#fff"/>
        <path id="Shape-15" data-name="Shape" d="M4.562,10.76a3.5,3.5,0,0,1-1.153-.2,4.154,4.154,0,0,1-1.1-.587A6,6,0,0,1,.076,6.009,6.64,6.64,0,0,1,.1,3.881,5.66,5.66,0,0,1,.742,2.048,4.348,4.348,0,0,1,1.9.7,3.446,3.446,0,0,1,3.474.037,3.394,3.394,0,0,1,3.972,0a4.05,4.05,0,0,1,2.9,1.35,6.3,6.3,0,0,1,1.608,3.4,6.2,6.2,0,0,1-.647,3.934,3.828,3.828,0,0,1-2.756,2.037A3.437,3.437,0,0,1,4.562,10.76ZM3.974.546h0a2.856,2.856,0,0,0-.419.031C1.538.879.22,3.279.616,5.928A5.46,5.46,0,0,0,2.638,9.535a3.611,3.611,0,0,0,.943.507,2.967,2.967,0,0,0,.985.171,2.872,2.872,0,0,0,.429-.032,3.3,3.3,0,0,0,2.36-1.764,5.654,5.654,0,0,0,.583-3.585A5.783,5.783,0,0,0,6.515,1.765,3.518,3.518,0,0,0,3.975.546Z" transform="translate(21.452 36.136)"/>
        <path id="Shape-16" data-name="Shape" d="M3.744,8.231a.273.273,0,0,1-.273-.268c-.009-.545,0-1.09.009-1.616a13.48,13.48,0,0,0-.513-4.91A1.384,1.384,0,0,0,1.691.547a1.094,1.094,0,0,0-1.083.691A22.288,22.288,0,0,0,.735,5.245c.062.8.117,1.489.122,1.873a.274.274,0,0,1-.27.277h0a.273.273,0,0,1-.273-.27C.305,6.759.252,6.078.19,5.288A16.742,16.742,0,0,1,.1,1.03,1.625,1.625,0,0,1,1.7,0,1.928,1.928,0,0,1,3.482,1.255a14.1,14.1,0,0,1,.545,5.1c-.009.521-.019,1.061-.009,1.6a.274.274,0,0,1-.268.278Z" transform="translate(24.998 0.313)"/>
        <path id="Shape-17" data-name="Shape" d="M0,1.66A1.574,1.574,0,0,1,1.472,0,1.57,1.57,0,0,1,3,1.609,1.572,1.572,0,0,1,1.528,3.268,1.574,1.574,0,0,1,0,1.66" transform="translate(24.451 0.273)" fill="#fff"/>
        <path id="Shape-18" data-name="Shape" d="M1.777,3.815A1.7,1.7,0,0,1,.535,3.267,1.978,1.978,0,0,1,0,1.938H0A1.85,1.85,0,0,1,1.741,0h.027A1.711,1.711,0,0,1,2.961.492a1.98,1.98,0,0,1,.586,1.386,1.978,1.978,0,0,1-.54,1.4,1.7,1.7,0,0,1-1.2.532ZM1.791.546H1.75a1.3,1.3,0,0,0-1.2,1.382,1.443,1.443,0,0,0,.369.947,1.144,1.144,0,0,0,.847.393H1.8A1.161,1.161,0,0,0,2.613,2.9,1.431,1.431,0,0,0,3,1.887a1.431,1.431,0,0,0-.42-1A1.109,1.109,0,0,0,1.791.546Z" transform="translate(24.178)"/>
        <path id="Shape-19" data-name="Shape" d="M.273.741A.273.273,0,0,1,.258.2l3.5-.2a.273.273,0,1,1,.03.546l-3.5.2H.273" transform="translate(27.134 1.371)"/>
      </g>
      <g id="Group-2" data-name="Group" transform="translate(0 12.065)">
        <path id="Shape-20" data-name="Shape" d="M0,0,13.684,7.742" transform="translate(7.609 3.422)" fill="#fff"/>
        <g id="Group-3" data-name="Group" transform="translate(2.902 0)">
          <path id="Shape-21" data-name="Shape" d="M13.877,8.195a.274.274,0,0,1-.134-.035L.139.509A.272.272,0,1,1,.408.035l13.6,7.651a.272.272,0,0,1-.135.509" transform="translate(4.414 3.292)"/>
          <path id="Shape-22" data-name="Shape" d="M4.607,3.411,4.324,1.929,1.586,0l.748,2.159L0,2.4,3.144,4.015Z" transform="translate(0.273 0.272)" fill="#fff"/>
          <path id="Shape-23" data-name="Shape" d="M3.417,4.559a.271.271,0,0,1-.125-.031L.147,2.91a.272.272,0,0,1,.1-.512l1.991-.2L1.6.36A.273.273,0,0,1,2.017.05L4.755,1.979a.271.271,0,0,1,.111.171l.283,1.481a.273.273,0,0,1-.164.3l-1.463.6A.286.286,0,0,1,3.417,4.559ZM2.4.983l.471,1.36a.268.268,0,0,1-.028.235.272.272,0,0,1-.2.124l-1.422.144L3.43,3.987l1.14-.471L4.349,2.36Z" transform="translate(0)"/>
          <path id="Shape-24" data-name="Shape" d="M.273,2.346a.272.272,0,0,1-.22-.433A14.565,14.565,0,0,0,1.071.222L1.114.143A.273.273,0,0,1,1.595.4L1.551.48A14.99,14.99,0,0,1,.493,2.235a.274.274,0,0,1-.221.111" transform="translate(2.52 1.605)"/>
          <path id="Shape-25" data-name="Shape" d="M.128,1.71C.008.913.062,1.028.457,0" transform="translate(17.218 11.231)" fill="#fff"/>
          <path id="Shape-26" data-name="Shape" d="M.329,2.254a.273.273,0,0,1-.27-.232A1.886,1.886,0,0,1,.22.637C.27.513.331.363.4.175a.273.273,0,0,1,.51.194C.84.561.778.714.727.841A1.406,1.406,0,0,0,.6,1.942a.273.273,0,0,1-.23.309.28.28,0,0,1-.041,0" transform="translate(17.016 10.959)"/>
        </g>
        <path id="Shape-27" data-name="Shape" d="M0,10.083l13.527-7.76-1-2.208L16.925,0,15.162,4.12,13.494,2.434" transform="translate(4.548 45.915)" fill="#fff"/>
        <g id="Group-4" data-name="Group" transform="translate(0 45.729)">
          <path id="Shape-28" data-name="Shape" d="M.273,10.639a.274.274,0,0,1-.136-.511L13.456,2.485,12.558.5a.274.274,0,0,1,.017-.258A.271.271,0,0,1,12.8.115L17.2,0a.282.282,0,0,1,.233.12.274.274,0,0,1,.025.262L15.694,4.506a.272.272,0,0,1-.444.085l-1.58-1.6L.408,10.6A.27.27,0,0,1,.273,10.639ZM16.788.558,13.225.651l.83,1.834a.279.279,0,0,1,.023.144l1.273,1.288Z" transform="translate(4.278 0)"/>
          <path id="Shape-29" data-name="Shape" d="M4.479.519,3.06,0,0,1.362l2.239.469L1.255,3.963l3-1.877Z" transform="translate(0.273 9.739)" fill="#fff"/>
          <path id="Shape-30" data-name="Shape" d="M1.528,4.51a.273.273,0,0,1-.181-.069.276.276,0,0,1-.067-.32L2.12,2.3l-1.9-.4a.274.274,0,0,1-.055-.518L3.222.024A.266.266,0,0,1,3.332,0a.272.272,0,0,1,.093.016L4.844.535a.274.274,0,0,1,.177.3L4.8,2.4a.273.273,0,0,1-.126.193l-3,1.877A.27.27,0,0,1,1.528,4.51ZM3.342.569l-2.185.973,1.41.3a.275.275,0,0,1,.188.145.272.272,0,0,1,0,.238l-.6,1.3L4.274,2.2,4.449.973,3.342.569Z" transform="translate(0 9.466)"/>
          <path id="Shape-31" data-name="Shape" d="M1.27,2.407a.272.272,0,0,1-.252-.169A13.494,13.494,0,0,0,.126.562L.038.413A.273.273,0,1,1,.508.134L.595.281a13.75,13.75,0,0,1,.927,1.748.274.274,0,0,1-.252.378" transform="translate(2.411 9.923)"/>
        </g>
        <path id="Shape-32" data-name="Shape" d="M0,3.6,16.385,0" transform="translate(21.473 29.17)" fill="#fff"/>
        <g id="Group-5" data-name="Group" transform="translate(16.639 28.804)">
          <path id="Shape-33" data-name="Shape" d="M.272,4.215a.275.275,0,0,1-.059-.543L16.545.007a.271.271,0,0,1,.326.208.275.275,0,0,1-.207.328L.332,4.208a.271.271,0,0,1-.06.007" transform="translate(4.622 0)"/>
          <path id="Shape-34" data-name="Shape" d="M4.86.989,3.568,0,0,.426l2.153,1.2L.463,3.5l3.67-.971Z" transform="translate(0.273 2.909)" fill="#fff"/>
          <path id="Shape-35" data-name="Shape" d="M.736,4.05A.271.271,0,0,1,.5,3.918a.278.278,0,0,1,.031-.327L1.993,1.97.141.941a.275.275,0,0,1,.1-.513L3.808,0l.033,0a.268.268,0,0,1,.164.056L5.3,1.045a.276.276,0,0,1,.081.336L4.653,2.922a.274.274,0,0,1-.177.148l-3.67.971A.262.262,0,0,1,.736,4.05ZM3.763.56,1.147.873l1.41.784a.276.276,0,0,1,.071.425L1.554,3.275l2.66-.7.577-1.224Z" transform="translate(0 2.634)"/>
          <path id="Shape-36" data-name="Shape" d="M.707,2.78a.274.274,0,0,1-.271-.249A14.864,14.864,0,0,0,.05.519L.008.339a.275.275,0,0,1,.2-.331.274.274,0,0,1,.329.2L.581.39a15.275,15.275,0,0,1,.4,2.089.274.274,0,0,1-.246.3H.707" transform="translate(2.76 2.898)"/>
        </g>
      </g>
    </g>
    <g id="Element-2" data-name="Element" transform="translate(0.914 66.628)">
      <path id="Shape-37" data-name="Shape" d="M15.4.147S4.6-2.115.75,11.111C-2.77,23.2,7.243,26.329,7.243,26.329l.969-2.206s-5.536-2.89-5.582-7.117S4.712,7.965,6.616,5.121s8.513-3.035,8.513-3.035Z" transform="translate(0 0)"/>
      <path id="Shape-38" data-name="Shape" d="M.274,23.772a.29.29,0,0,1-.081-.012.273.273,0,0,1-.181-.341L7.23.193a.274.274,0,0,1,.524.161L.536,23.58a.274.274,0,0,1-.262.192" transform="translate(6.507 0.829)"/>
    </g>
    <g id="Сharacter" transform="translate(0 0.987)">
      <path id="Shape-39" data-name="Shape" d="M63.506,13.072S46.631,3.389,47.091,0c0,0-6.037,39.361-10.809,39.111-1.619-.087-8.984-2.2-14.125-3.832-10.032-3.186-18.436-4.86-18.436-4.86S-.1,41.027,0,43.568s2.544-.913,3.571-3.133S6.31,37.45,8.082,37.882c7.352,1.784,23.779,15.106,31.686,16.792,10.04,2.138,23.738-41.6,23.738-41.6" transform="translate(1.26 66.732)" fill="#fff"/>
      <path id="Shape-40" data-name="Shape" d="M40.766,55.3a3.764,3.764,0,0,1-.782-.082c-4.145-.883-10.576-4.911-16.8-8.805l-.005,0c-5.86-3.67-11.394-7.136-14.892-7.984a3.654,3.654,0,0,0-.864-.107,3.734,3.734,0,0,0-3.332,2.509A18.973,18.973,0,0,1,2.7,43.238,8.058,8.058,0,0,1,1.69,44.476a1.557,1.557,0,0,1-.969.534A.59.59,0,0,1,.609,45C.234,44.925.03,44.539,0,43.852a13.075,13.075,0,0,1,.52-3.092c.3-1.18.717-2.638,1.252-4.333C2.718,33.434,3.7,30.714,3.738,30.6a.273.273,0,0,1,.256-.181.27.27,0,0,1,.055.006c.021,0,2.18.438,5.54,1.257,3.062.747,7.79,1.979,12.925,3.611,5.6,1.775,12.573,3.74,14.057,3.82h.037c1.048,0,2.311-2.329,3.752-6.921.689-2.195,1.789-6.114,3.123-12.324C45.563,10.176,47.08.33,47.095.232A.272.272,0,0,1,47.365,0L47.4,0a.274.274,0,0,1,.232.307c-.32,2.353,9.56,8.943,16.28,12.8a.275.275,0,0,1,.125.319v0c-.144.455-3.568,11.263-8.113,21.626-1.466,3.342-2.9,6.314-4.269,8.832A52.382,52.382,0,0,1,47.7,50.217a18.385,18.385,0,0,1-3.634,3.807,7.426,7.426,0,0,1-1.692.954A4.469,4.469,0,0,1,40.766,55.3ZM7.4,37.763a4.3,4.3,0,0,1,1.016.127c3.584.87,9.155,4.359,15.054,8.053,6.181,3.871,12.573,7.874,16.625,8.738a3.2,3.2,0,0,0,.663.069c1.933,0,4.166-1.7,6.637-5.054a80.625,80.625,0,0,0,8.025-14.853c1.8-4.1,3.625-8.725,5.428-13.746,1.407-3.919,2.347-6.825,2.6-7.623-1-.576-4.52-2.64-7.994-5-1.956-1.33-3.6-2.553-4.888-3.634a14.149,14.149,0,0,1-3.125-3.321c-.48,2.989-1.777,10.772-3.428,18.465-1.74,8.1-3.37,13.792-4.846,16.905a7.685,7.685,0,0,1-1.533,2.35,1.376,1.376,0,0,1-.963.426c-.049,0-.094,0-.133,0-1.7-.091-9.326-2.3-14.194-3.844-8.977-2.852-16.716-4.5-18.176-4.805-.264.743-1.192,3.382-2.05,6.141C1.641,38.7,1.264,40.025,1,41.091a11.738,11.738,0,0,0-.452,2.74c.02.492.13.624.168.632a.149.149,0,0,0,.031,0c.227,0,.694-.442,1.251-1.183a15.544,15.544,0,0,0,1.6-2.69A4.238,4.238,0,0,1,7.4,37.763Z" transform="translate(0.986 66.462)"/>
      <path id="Shape-41" data-name="Shape" d="M17.487,1.492S6.576-2.235,3.83,2.092c-2.659,4.2,2.86,16.471,1.541,15.427,0,0,20.541,17.943,17.9,21.927a83.085,83.085,0,0,1-9.711,10.768C5.717,57.241,0,63.63,0,63.63s7.188,8.68,9.432,9.888.505-2.656-.884-4.666-1.179-3.878.095-5.185c5.277-5.427,25.09-12.8,30.56-18.757C46.148,37.349,17.487,1.492,17.487,1.492" transform="translate(50.87 74.759)" fill="#fff"/>
      <path id="Shape-42" data-name="Shape" d="M10.4,74.3a1.823,1.823,0,0,1-.82-.26,13.054,13.054,0,0,1-2.4-2.02c-.866-.855-1.907-1.959-3.095-3.281C2.054,66.482.26,64.323.062,64.084a.275.275,0,0,1,.007-.357c.06-.067,1.5-1.665,3.9-4.134,2.2-2.259,5.665-5.706,9.679-9.3a82.966,82.966,0,0,0,9.666-10.716C25.374,36.469,11.128,22.951,5.464,18a.272.272,0,0,1-.03-.381.277.277,0,0,1,.133-.088c-.061-.428-.342-1.4-.613-2.344l0-.015v0C3.865,11.408,2.05,5.1,3.872,2.226,4.809.749,6.706,0,9.51,0a20.569,20.569,0,0,1,2.883.223c.836.12,1.718.287,2.621.5,1.578.368,2.711.75,2.835.792a.273.273,0,0,1,.125.088C19.15,3.072,46.7,37.729,39.677,45.375c-2.868,3.124-9.607,6.618-16.124,10l0,0-.006,0c-6.132,3.179-11.923,6.181-14.432,8.762-1.266,1.3-1.29,3.063-.065,4.839.554.8,2.619,4.232,1.824,5.122A.607.607,0,0,1,10.4,74.3ZM9.465.553h0c-2.578,0-4.3.661-5.131,1.966-1.691,2.67.152,9.069,1.142,12.507a9.418,9.418,0,0,1,.639,2.823c1.234,1.093,5.579,4.99,9.667,9.23,6.569,6.814,9.182,11,7.989,12.8A83.811,83.811,0,0,1,14.013,50.7C7.006,56.977,1.639,62.812.635,63.918c.508.608,2.317,2.759,4.244,4.887,1.089,1.2,2.039,2.2,2.824,2.97a11.725,11.725,0,0,0,2.132,1.783,1.277,1.277,0,0,0,.552.2c.055,0,.072-.014.076-.018.291-.325-.578-2.584-1.866-4.447-1.387-2.011-1.342-4.027.124-5.531,2.571-2.644,8.4-5.667,14.574-8.867l0,0,0,0c6.475-3.357,13.17-6.827,15.973-9.881,2.747-2.991-.117-11.363-8.283-24.213C25.074,11.479,18.345,2.948,17.6,2.006c-.312-.1-1.447-.461-2.96-.8A24.158,24.158,0,0,0,9.466.553Z" transform="translate(50.597 74.479)"/>
      <path id="Shape-43" data-name="Shape" d="M8.447,1.1c.966,1.664-1.085,4.24-.115,7.232.436,1.349,3.608,3.758,4.282,5.085,1.348,2.666.806,3.8.916,4.732a14.813,14.813,0,0,0-2.277-1.8c-.842-.06-1.315,3.506-2.075,3.2-.953-.386-3.312-.437-4.274-.759-1.163-.388-1.212-5.23-2.318-5.75C2.127,12.826-.072,14.98,0,14.471c.308-2.085,3.419-4.313,4.989-7S6.536.152,6.536.152s.945-.714,1.911.951" transform="translate(46.512 39.094)" fill="#fff"/>
      <path id="Shape-44" data-name="Shape" d="M9.546,20.117a.519.519,0,0,1-.2-.039,10.907,10.907,0,0,0-2.233-.406H7.109a11.99,11.99,0,0,1-2.018-.346c-.74-.247-1.036-1.573-1.379-3.108h0c-.244-1.094-.548-2.455-.968-2.653a7.157,7.157,0,0,0-1.306.866c-.594.445-.891.669-1.117.669a.316.316,0,0,1-.166-.047A.33.33,0,0,1,0,14.705c.19-1.287,1.347-2.587,2.572-3.963l0,0A20.464,20.464,0,0,0,5.028,7.607C6.521,5.054,6.537.616,6.536.428a.275.275,0,0,1,.108-.22A1.173,1.173,0,0,1,7.32,0a1.274,1.274,0,0,1,.251.025A2.243,2.243,0,0,1,8.957,1.239c.513.883.281,1.924.012,3.13a7.609,7.609,0,0,0-.1,4.154A10.393,10.393,0,0,0,11.086,11.2a12.219,12.219,0,0,1,2.045,2.367,7.191,7.191,0,0,1,.945,4.122,4.307,4.307,0,0,0,0,.7.279.279,0,0,1-.272.308.4.4,0,0,1-.256-.138h0A10.447,10.447,0,0,0,11.486,16.9h0c-.2,0-.595,1.058-.765,1.51v0c-.3.8-.56,1.486-.962,1.661A.519.519,0,0,1,9.546,20.117ZM2.785,13.027a.441.441,0,0,1,.192.041c.662.312.943,1.57,1.269,3.027v0c.254,1.141.571,2.56,1.019,2.71a12.1,12.1,0,0,0,1.915.322,11.1,11.1,0,0,1,2.375.442,4.387,4.387,0,0,0,.652-1.356l.016-.043c.368-.976.686-1.818,1.273-1.818l.051,0c.126.009.36.025,1.976,1.453,0-.04,0-.081.006-.122v-.022a6.7,6.7,0,0,0-.886-3.847A12.345,12.345,0,0,0,10.7,11.59l0,0a10.023,10.023,0,0,1-2.354-2.9,8.049,8.049,0,0,1,.089-4.437v0a3.967,3.967,0,0,0,.049-2.737,1.8,1.8,0,0,0-1.01-.95A.717.717,0,0,0,7.323.547a.682.682,0,0,0-.24.044A23.248,23.248,0,0,1,6.827,3.64,12.138,12.138,0,0,1,5.5,7.883,20.93,20.93,0,0,1,2.987,11.1,11.474,11.474,0,0,0,.662,14.321c.139-.1.29-.212.446-.329C1.886,13.409,2.423,13.027,2.785,13.027Z" transform="translate(46.239 38.817)"/>
      <path id="Shape-45" data-name="Shape" d="M4.853.5A57.2,57.2,0,0,1,8.4,9.714a2.923,2.923,0,0,1-2.014,3.318,2.811,2.811,0,0,1-3.641-1.48A56.134,56.134,0,0,1,.037,4.211,3.175,3.175,0,0,1,1.048,1.187C2.108.462,4.3-.658,4.853.5" transform="translate(48.13 30.329)" fill="#fff"/>
      <path id="Shape-46" data-name="Shape" d="M5.559,13.775a3.051,3.051,0,0,1-1.578-.424,3.084,3.084,0,0,1-1.214-1.412A55.913,55.913,0,0,1,.036,4.519c-.067-.543-.183-2.386,1.128-3.284a10.158,10.158,0,0,1,1.208-.7A4.418,4.418,0,0,1,4.216,0a1.647,1.647,0,0,1,.427.052,1.1,1.1,0,0,1,.729.6A57.343,57.343,0,0,1,8.939,9.934a3.186,3.186,0,0,1-2.188,3.628A3.494,3.494,0,0,1,5.559,13.775ZM4.219.547A3.586,3.586,0,0,0,2.889.9a8.849,8.849,0,0,0-1.416.788C.416,2.41.521,3.986.579,4.452a56.122,56.122,0,0,0,2.686,7.261,2.45,2.45,0,0,0,2.306,1.513,2.909,2.909,0,0,0,.992-.177A2.679,2.679,0,0,0,8.4,10.041,56.775,56.775,0,0,0,4.878.891.547.547,0,0,0,4.5.581,1.071,1.071,0,0,0,4.219.547Z" transform="translate(47.858 30.052)"/>
      <path id="Shape-47" data-name="Shape" d="M.725,1.809A.274.274,0,0,1,.7,1.263a.75.75,0,0,0,.254-.055A2,2,0,0,0,.163.524a.273.273,0,0,1,.221-.5C.546.1,1.6.71,1.5,1.316c-.032.2-.189.441-.751.492Z" transform="translate(52.738 36.406)"/>
      <path id="Shape-48" data-name="Shape" d="M1.046,1.138H.993" transform="translate(48.838 40.259)" fill="#231009"/>
      <path id="Shape-49" data-name="Shape" d="M1.12,1.256C.38,1.833-.4.686.228.143A.614.614,0,0,1,.779.019" transform="translate(49.298 38.599)" fill="#fff"/>
      <path id="Shape-50" data-name="Shape" d="M.97,1.96A.926.926,0,0,1,.253,1.6.986.986,0,0,1,.324.21a.89.89,0,0,1,.8-.182.273.273,0,0,1-.134.53.344.344,0,0,0-.3.063.449.449,0,0,0-.008.632.365.365,0,0,0,.552.06.273.273,0,0,1,.336.431A.962.962,0,0,1,.97,1.96" transform="translate(49.023 38.323)"/>
      <path id="Shape-51" data-name="Shape" d="M.137.955.5.851" transform="translate(66.786 55.512)" fill="#090603"/>
      <path id="Shape-52" data-name="Shape" d="M.43.166a.236.236,0,0,0-.3-.153A.234.234,0,0,0,.019.324.233.233,0,0,0,.311.477.236.236,0,0,0,.43.166" transform="translate(51.542 36.45)"/>
      <path id="Shape-53" data-name="Shape" d="M.429.166a.236.236,0,0,0-.3-.153A.238.238,0,0,0,.018.324a.236.236,0,0,0,.3.153A.238.238,0,0,0,.429.166" transform="translate(53.573 35.549)"/>
      <path id="Shape-54" data-name="Shape" d="M1.046,1.138H.993" transform="translate(48.838 40.259)" fill="#231009"/>
      <path id="Shape-55" data-name="Shape" d="M10.211.056C13.186.423,22.532,2.27,24.792,9.242c1.069,3.294-1.771,3.788-1.771,3.788s8.922,19,8.039,22.339c-.037.136-30.979.1-30.979.1S-1.321,4.656,7.577.357a4.758,4.758,0,0,1,2.634-.3" transform="translate(42.583 48.311)" fill="#ffd2e1"/>
      <path id="Shape-56" data-name="Shape" d="M.137.955.5.851" transform="translate(66.786 55.512)" fill="#090603"/>
      <path id="Shape-57" data-name="Shape" d="M12.2,13.848C12.5,10.706,9.542,4.655,7.29,2.129c.156.813.156.813.308,1.626C5.457,1.924,3.1-.242,2.687.022S4.557,1.876,5.8,3.66C3.624,2.253,1.667.65,1.445.845.94,1.287,3.237,2.7,5.029,4.561,2.658,3.028.767,1.659.648,1.887c-.3.576,1.689,1.522,3.826,3.509C3.019,4.465.184,2.56,0,3.109-.112,3.452,3.192,5.784,5.658,7.6c.74.544,2.182,3.036,3.432,7.758s2.823,1.632,3.115-1.51" transform="translate(20.472 21.06)" fill="#fff"/>
      <path id="Shape-58" data-name="Shape" d="M10.8,18.331c-.676,0-1.232-.86-1.7-2.63C7.858,11,6.429,8.576,5.772,8.093c-.4-.3-.822-.6-1.23-.9C.291,4.088-.11,3.682.02,3.295A.4.4,0,0,1,.273,3.04a.514.514,0,0,1,.172-.027,2.464,2.464,0,0,1,.956.307c-.617-.5-.932-.873-.72-1.287a.369.369,0,0,1,.205-.162.35.35,0,0,1,.089-.011c.219,0,.561.178,1.464.76-.7-.616-1.06-.994-1.063-1.347A.472.472,0,0,1,1.542.912.322.322,0,0,1,1.764.826c.312,0,.853.374,2.156,1.3l.627.443c-.254-.259-.5-.5-.77-.759C2.948,1,2.613.662,2.643.344a.37.37,0,0,1,.17-.279A.412.412,0,0,1,3.043,0,2.564,2.564,0,0,1,4.287.652c.631.472,1.536,1.24,2.7,2.248l.476.412c-.04-.212-.078-.412-.155-.81L7.3,2.454a.274.274,0,0,1,.147-.3.271.271,0,0,1,.121-.029.275.275,0,0,1,.2.091c2.221,2.492,5.293,8.6,4.983,11.927-.182,1.953-.848,4.1-1.882,4.182ZM.806,3.645h0c.7.652,2.553,2.006,4.042,3.094l.016.012c.466.34.853.623,1.233.9.891.655,2.329,3.354,3.534,7.908.547,2.062,1.045,2.222,1.184,2.222h.012c.495-.041,1.191-1.627,1.383-3.687a7.806,7.806,0,0,0-.257-2.471,19.467,19.467,0,0,0-.972-2.9,26.782,26.782,0,0,0-2.941-5.3l.026.137.078.415a.275.275,0,0,1-.132.287.271.271,0,0,1-.136.037A.275.275,0,0,1,7.7,4.235c-.336-.287-.68-.586-1.014-.875l-.054-.047-.006-.005A40.045,40.045,0,0,0,3.508.766c.186.2.424.427.651.646l0,0A17.163,17.163,0,0,1,6.3,3.776a.273.273,0,0,1-.372.386c-.848-.548-1.667-1.128-2.325-1.594-.531-.376-1.134-.8-1.508-1.029A15.2,15.2,0,0,0,3.385,2.713l.007.006h0c.663.565,1.415,1.2,2.109,1.924a.273.273,0,0,1-.345.42C4.53,4.658,3.93,4.26,3.4,3.908L3.358,3.88c-.664-.441-1.416-.941-1.895-1.225.28.253.713.578,1.061.84A29.2,29.2,0,0,1,4.936,5.468.273.273,0,0,1,4.6,5.9l-.481-.309A28.869,28.869,0,0,0,.806,3.645Z" transform="translate(20.196 20.787)"/>
      <path id="Shape-59" data-name="Shape" d="M.523,16.014C-.677,13.1.375,6.443,1.789,3.368L1.97,5.014C3.482,2.635,5.106-.129,5.57,0S4.325,2.326,3.659,4.4C5.332,2.411,6.733.306,7,.426c.612.275-1.167,2.3-2.338,4.6C6.482,2.87,7.888,1.006,8.069,1.189c.452.464-1.171,1.951-2.63,4.477C6.556,4.35,8.71,1.7,9.043,2.169c.21.294-2.264,3.492-4.089,5.952-.551.737-1.2,3.542-1.011,8.424S1.719,18.933.523,16.014" transform="translate(74.328 12.828)" fill="#fff"/>
      <path id="Shape-60" data-name="Shape" d="M3.406,19.857c-.592,0-1.2-.649-1.6-1.193A10.947,10.947,0,0,1,.55,16.393C-.722,13.3.426,6.561,1.82,3.528a.273.273,0,0,1,.247-.159.266.266,0,0,1,.045,0,.274.274,0,0,1,.228.24l.1.869.213-.34,0-.008.118-.188C3.68,2.5,4.338,1.473,4.809.851c.457-.6.748-.851,1-.851a.4.4,0,0,1,.112.017A.369.369,0,0,1,6.17.233c.123.295-.1.717-.656,1.729-.159.288-.34.615-.518.96l.382-.494.1-.133C6.583.869,6.946.418,7.246.418a.355.355,0,0,1,.147.034.469.469,0,0,1,.262.3.944.944,0,0,1-.086.622,7.088,7.088,0,0,1-.536.98C7.8,1.441,8.073,1.188,8.3,1.178h.013a.378.378,0,0,1,.23.094c.325.334.132.782-.311,1.442.434-.4.755-.6.982-.6h.014a.4.4,0,0,1,.317.171c.236.331-.029.836-3.182,5.052-.282.377-.608.813-.91,1.221-.488.653-1.146,3.389-.958,8.25.072,1.889-.23,2.88-.923,3.03A.788.788,0,0,1,3.406,19.857Zm-1.49-15.1h0A26.757,26.757,0,0,0,.658,10.692a19.467,19.467,0,0,0-.081,3.054,7.809,7.809,0,0,0,.478,2.439,9.906,9.906,0,0,0,1.264,2.254c.43.554.824.872,1.081.872a.27.27,0,0,0,.056-.006c.1-.021.577-.239.493-2.475-.182-4.711.4-7.713,1.065-8.6.236-.318.478-.642.734-.985h0l.176-.235c1.05-1.4,2.488-3.326,2.969-4.16A29.143,29.143,0,0,0,6.3,5.675l-.007.008-.367.435A.273.273,0,0,1,5.481,5.8,29.068,29.068,0,0,1,7.206,3.216l.006-.009c.254-.349.57-.784.762-1.107C7.6,2.51,7.036,3.2,6.536,3.809l-.017.021c-.411.5-.877,1.068-1.369,1.652a.273.273,0,0,1-.453-.3c.453-.89.983-1.721,1.451-2.453l.008-.012a15.285,15.285,0,0,0,.888-1.5c-.291.326-.737.9-1.131,1.414-.524.679-1.118,1.447-1.766,2.216a.272.272,0,0,1-.209.1.276.276,0,0,1-.132-.034.273.273,0,0,1-.128-.323A17.07,17.07,0,0,1,5.033,1.7v0c.159-.288.311-.566.43-.8-.558.672-1.48,2.144-2.221,3.326l-.009.014c-.234.373-.5.8-.755,1.2a.272.272,0,0,1-.231.127.273.273,0,0,1-.271-.243l-.062-.561Z" transform="translate(74.048 12.553)"/>
      <path id="Shape-61" data-name="Shape" d="M23.216,18.062c-3.58-2.62-6.382-2-9.757-4.453C9.108,10.444,4.936,0,4.936,0S-1.487.994.321,4C1.106,5.3,2.2,14.75,6.227,19.1c6.05,6.546,11.088,8.024,13.139,8.061,4.743.086,6.687-7.028,3.851-9.1" transform="translate(28.229 32.823)" fill="#ffd2e1"/>
      <path id="Shape-62" data-name="Shape" d="M.686,24.232c2.659-3.555,11.873-6.926,11.873-6.926L16.8.249,22.586,0s1.138,11.966-1.87,18.135C16.746,26.276,7.943,30.343,6.094,30.946c-4.508,1.472-7.513-3.9-5.408-6.714" transform="translate(56.912 26.938)" fill="#ffd2e1"/>
      <path id="Shape-63" data-name="Shape" d="M4.434,0,5.869.448,3.275,9.637s1.64.856,1.853,1.74-.986,1.8-.986,1.8L2.507,11.895a17,17,0,0,1-1.295,3.4A.744.744,0,0,1,0,15.36Z" transform="translate(0 96.23)"/>
      <path id="Shape-64" data-name="Shape" d="M0,1.007,1.114,0,7.706,6.9s1.566-.974,2.441-.712S11.195,7.96,11.195,7.96l-1.94.752a17.118,17.118,0,0,1,2.273,2.85.747.747,0,0,1-.563,1.077Z" transform="translate(49.765 137.361)"/>
      <path id="Shape-65" data-name="Shape" d="M6.937,2.129,6.633.085,1.352,0,0,1.738a34.747,34.747,0,0,0,3.608.574,15.278,15.278,0,0,0,3.329-.183" transform="translate(49.564 46.641)"/>
      <path id="Shape-66" data-name="Shape" d="M9.176.582C13.98,5.43,5.21,5.51,3.821,6.724c-.826.722-.4,4.158-2.277,3.282C-.092,9.242-.363,5.574.426,4.229c1.352-2.3,6.843-5.57,8.75-3.647" transform="translate(46.355 27.445)"/>
      <path id="Shape-67" data-name="Shape" d="M0,26.836l2.729,2.953L12.757,40.648,24.617,17.787,38.262,33.115l18.05-3.166L38.167,0,8.215,1.016Z" transform="translate(35.331 78.349)" fill="#00b2b2"/>
      <path id="Shape-68" data-name="Shape" d="M26.611,1C26.767-.072,23.985.081,23.106.03A9.336,9.336,0,0,0,15.088,3c-2.906,2.832-1.175,7.663-3.218,10.952-1.878,3.028-5.137,2.689-7.615,4.672C2.236,20.234.588,23.917.12,26.409c-.962,5.095,4.036,9.4,8.856,9.01,3.337-.272,6.222-2.348,8.474-4.688,3.8-3.952,2.318-8.363,1.829-13.129a29.169,29.169,0,0,1,.308-9.673,6.277,6.277,0,0,1,3.46-4.471C24.86,2.639,26.3,3.108,26.611,1" transform="translate(23.544 30.182)"/>
      <path id="Shape-69" data-name="Shape" d="M3.56,28.5a.272.272,0,0,1-.129-.033,5.971,5.971,0,0,1-2.739-4.2c-.058-.28-.145-.6-.238-.944A6.773,6.773,0,0,1,.09,20.108c.719-2.745,3.183-4.564,7.531-5.561,1.425-.328,3.1-.991,3.508-1.87a14.783,14.783,0,0,0,1-4.1c.363-2.448.738-4.98,2.805-6.685C15.817,1.161,18.777-.3,19.977.054a4.586,4.586,0,0,1,1.671,1.017,5.257,5.257,0,0,0,2.393,1.3.273.273,0,1,1-.119.534A5.783,5.783,0,0,1,21.3,1.492,4.1,4.1,0,0,0,19.824.579c-.93-.271-3.687,1.028-4.546,1.733-1.9,1.571-2.264,4-2.612,6.343a15.418,15.418,0,0,1-1.042,4.255c-.607,1.293-2.916,1.949-3.88,2.171-4.132.947-6.462,2.638-7.125,5.167a6.442,6.442,0,0,0,.362,2.942c.095.349.184.68.245.976A5.45,5.45,0,0,0,3.689,27.99a.273.273,0,0,1-.13.514" transform="translate(20.873 30.491)"/>
      <path id="Shape-70" data-name="Shape" d="M13.691,14.189a.272.272,0,0,1-.195-.081L.078.465A.274.274,0,0,1,.468.081L13.886,13.724a.274.274,0,0,1,0,.387.271.271,0,0,1-.192.079" transform="translate(36.016 101.91)"/>
      <path id="Shape-71" data-name="Shape" d="M.273,3.877a.273.273,0,0,1-.049-.542L18.245,0a.274.274,0,0,1,.1.538L.323,3.872a.3.3,0,0,1-.05,0" transform="translate(71.709 105.345)"/>
      <path id="Shape-72" data-name="Shape" d="M.273,7.056A.262.262,0,0,1,.21,7.048a.273.273,0,0,1-.2-.329A65.49,65.49,0,0,1,1.891.17.273.273,0,1,1,2.4.378,66.725,66.725,0,0,0,.539,6.846a.273.273,0,0,1-.265.21" transform="translate(59.647 89.365)"/>
      <path id="Shape-73" data-name="Shape" d="M4.4,3.245c-.366,1.122-1.775,1.6-2.441,2.5C.844,7.25-.985,10.28.651,11.97c2.121,2.191,4.866,1.6,6.859-.251.6-.555,2-2.467,3.082-2.113,2.281.744,1.484,3.409,4.685,4.058,5.371,1.089,3.834-4.461,7.032-4.943,1.993-.3,3.818,2.5,5.844,2.722,5.211.58,5.034-3.314,6.3-3.667,2.914-.819,3.571,2.426,6.255-.062C42.534,6.025,39.394,1.839,35.728.4s-5.26,1.517-9.674,1.546c-3.728.028-7.447-.3-11.158-.559" transform="translate(38.765 72.596)" fill="#ffd2e1"/>
      <path id="Shape-74" data-name="Shape" d="M8.208,2.329A17.19,17.19,0,0,1,.146.516.273.273,0,0,1,.4.031,17.55,17.55,0,0,0,9.871,1.723a.268.268,0,0,1,.292.254.274.274,0,0,1-.254.292q-.868.06-1.7.06" transform="translate(42.439 76.523)"/>
      <path id="Shape-75" data-name="Shape" d="M3.418,1.767A10.649,10.649,0,0,1,.189,1.059.273.273,0,0,1,.358.538c2.468.805,3.96,1.18,5.933-.474a.273.273,0,1,1,.351.419A4.842,4.842,0,0,1,3.418,1.767" transform="translate(60.485 59.765)"/>
      <path id="Shape-76" data-name="Shape" d="M0,0A9.96,9.96,0,0,0,1.792,1.136" transform="translate(47.315 60.944)" fill="#fff"/>
      <path id="Shape-77" data-name="Shape" d="M2.065,1.683a.271.271,0,0,1-.129-.032A10.181,10.181,0,0,1,.1.482.274.274,0,0,1,.451.065a9.758,9.758,0,0,0,1.744,1.1.274.274,0,0,1-.129.514" transform="translate(47.042 60.669)"/>
      <path id="Shape-78" data-name="Shape" d="M.382,22.7,16.817,1.581,20.812,0,16.094,9.8l.275,5.95-5.8,6.474L5,21.75,0,27.271Z" transform="translate(42.638 47.851)" fill="#ffbe00"/>
      <path id="Shape-79" data-name="Shape" d="M1.761,9.045a.276.276,0,0,1-.167-.057L.106,7.837a.273.273,0,0,1-.041-.394L6.341.1A.274.274,0,0,1,6.549,0a.269.269,0,0,1,.166.057L8.4,1.348A.275.275,0,0,1,8.5,1.54a.271.271,0,0,1-.069.208L1.964,8.954A.275.275,0,0,1,1.761,9.045ZM6.588.649.668,7.58,1.727,8.4l6.1-6.8Z" transform="translate(48.382 58.913)" fill="#fff"/>
      <path id="Shape-80" data-name="Shape" d="M3.331,3a.274.274,0,0,1-.171-.06L.1.487A.273.273,0,0,1,.444.06L3.5,2.518A.274.274,0,0,1,3.331,3" transform="translate(55.66 53.981)" fill="#fff"/>
      <path id="Shape-81" data-name="Shape" d="M2.965,2.644A.273.273,0,0,1,2.8,2.586L.105.489A.273.273,0,0,1,.441.058l2.692,2.1a.273.273,0,0,1-.168.489" transform="translate(57.288 51.874)" fill="#fff"/>
      <path id="Shape-82" data-name="Shape" d="M2.665,2.286A.275.275,0,0,1,2.5,2.234L.113.494A.273.273,0,0,1,.434.052l2.392,1.74a.273.273,0,0,1-.161.495" transform="translate(58.615 49.88)" fill="#fff"/>
      <path id="Shape-83" data-name="Shape" d="M1.58,1.425a.274.274,0,0,1-.152-.046L.121.5a.273.273,0,0,1,.3-.454L1.733.925a.273.273,0,0,1-.152.5" transform="translate(60.727 48.469)" fill="#fff"/>
      <path id="Shape-84" data-name="Shape" d="M1.212,1.535a.272.272,0,0,1-.2-.084C.706,1.13.211.616.1.51A.286.286,0,0,1,.069.476.28.28,0,0,1,.087.089C.2-.014.249-.059.469.128L.482.118A.279.279,0,0,1,.518.17c.174.156.443.436.891.9a.273.273,0,0,1-.2.463" transform="translate(42.745 72.472)" fill="#fff"/>
      <path id="Shape-85" data-name="Shape" d="M2.279,2.279A.27.27,0,0,1,2.1,2.212L.095.48A.273.273,0,1,1,.452.066L2.457,1.8a.273.273,0,0,1-.179.48" transform="translate(43.384 69.798)" fill="#fff"/>
      <path id="Shape-86" data-name="Shape" d="M2.455,2.435a.272.272,0,0,1-.179-.067L.094.48A.273.273,0,0,1,.452.067L2.635,1.954a.274.274,0,0,1-.179.48" transform="translate(44.732 68.065)" fill="#fff"/>
      <path id="Shape-87" data-name="Shape" d="M.273.588A.273.273,0,0,1,.1.106.891.891,0,0,1,.178.047.273.273,0,0,1,.484.5.418.418,0,0,0,.449.524.272.272,0,0,1,.273.588" transform="translate(49.253 66.731)" fill="#fff"/>
      <path id="Shape-88" data-name="Shape" d="M.273,1.054A.273.273,0,0,1,.069.6L.1.564A3.239,3.239,0,0,1,.634.05.273.273,0,1,1,.948.5,2.813,2.813,0,0,0,.509.926L.478.962a.273.273,0,0,1-.2.092" transform="translate(50.182 65.175)" fill="#fff"/>
      <path id="Shape-89" data-name="Shape" d="M.273,1.044A.27.27,0,0,1,.109.99.273.273,0,0,1,.055.607,4.076,4.076,0,0,1,.423.2L.532.084A.273.273,0,1,1,.926.463L.813.58A3.632,3.632,0,0,0,.492.935a.272.272,0,0,1-.219.109" transform="translate(51.579 63.691)" fill="#fff"/>
      <path id="Shape-90" data-name="Shape" d="M.273,1.044A.273.273,0,0,1,.053.609L.078.575A1.061,1.061,0,0,1,.239.383C.282.34.359.264.527.086a.273.273,0,1,1,.4.375C.749.647.669.727.623.772A.677.677,0,0,0,.52.9L.494.933a.272.272,0,0,1-.221.112" transform="translate(52.796 62.292)" fill="#fff"/>
      <path id="Shape-91" data-name="Shape" d="M.273,1.151A.27.27,0,0,1,.113,1.1.274.274,0,0,1,.052.717,4.761,4.761,0,0,1,.585.077.273.273,0,0,1,.965.47a4.18,4.18,0,0,0-.471.568.273.273,0,0,1-.222.113" transform="translate(53.947 60.796)" fill="#fff"/>
      <path id="Shape-92" data-name="Shape" d="M.273.822a.273.273,0,0,1-.158-.5L.3.171.339.114A.273.273,0,1,1,.783.433L.73.507A.31.31,0,0,1,.7.54L.586.657A.258.258,0,0,1,.55.687L.431.771a.272.272,0,0,1-.157.05" transform="translate(55.069 59.779)" fill="#fff"/>
      <path id="Shape-93" data-name="Shape" d="M1.021,1.8a.273.273,0,0,1-.27-.235l-.01-.073C.707,1.238.636.72.446.578A.164.164,0,0,0,.314.55.273.273,0,1,1,.233.009.707.707,0,0,1,.774.14a1.943,1.943,0,0,1,.508,1.273l.009.071a.273.273,0,0,1-.232.309.248.248,0,0,1-.039,0" transform="translate(49.389 65.476)" fill="#fff"/>
      <path id="Shape-94" data-name="Shape" d="M1.342,1.329a.273.273,0,0,1-.27-.234A.657.657,0,0,0,.852.644.715.715,0,0,0,.314.562.274.274,0,0,1,.233.021,1.229,1.229,0,0,1,1.177.2a1.176,1.176,0,0,1,.435.812.274.274,0,0,1-.231.31.269.269,0,0,1-.04,0" transform="translate(50.552 64.137)" fill="#fff"/>
      <path id="Shape-95" data-name="Shape" d="M1.391,1.4a.273.273,0,0,1-.253-.169C.918.7.809.644.226.542A.273.273,0,0,1,.321,0,1.387,1.387,0,0,1,1.643,1.025a.273.273,0,0,1-.252.377" transform="translate(51.945 62.63)" fill="#fff"/>
      <path id="Shape-96" data-name="Shape" d="M1.1,1.678a.274.274,0,0,1-.27-.232A.977.977,0,0,0,.189.533.273.273,0,0,1,.358.014a1.516,1.516,0,0,1,1.016,1.35.274.274,0,0,1-.229.312.286.286,0,0,1-.042,0" transform="translate(53.186 61.195)" fill="#fff"/>
      <path id="Shape-97" data-name="Shape" d="M1.33,1.644a.273.273,0,0,1-.252-.168A1.059,1.059,0,0,0,.594.93,1.833,1.833,0,0,1,.05.431.273.273,0,0,1,.5.117,1.319,1.319,0,0,0,.9.475a1.594,1.594,0,0,1,.685.79.274.274,0,0,1-.252.379" transform="translate(54.255 59.92)" fill="#fff"/>
      <path id="Shape-98" data-name="Shape" d="M1.682,3.909A1.521,1.521,0,0,1,.908,3.7,1.715,1.715,0,0,1,.372,3.2,2,2,0,0,1,.7.518,2.017,2.017,0,0,1,1.977,0,1.573,1.573,0,0,1,2.6.128,1.946,1.946,0,0,1,3.7,1.777,1.936,1.936,0,0,1,2.7,3.6,1.988,1.988,0,0,1,1.682,3.909Zm.3-3.363A1.5,1.5,0,0,0,1.043.94,1.453,1.453,0,0,0,.819,2.889a1.024,1.024,0,0,0,.856.471,1.454,1.454,0,0,0,.743-.23A1.383,1.383,0,0,0,3.15,1.813,1.387,1.387,0,0,0,2.381.63,1,1,0,0,0,1.979.546Z" transform="translate(46.717 87.161)" fill="#fff"/>
      <path id="Shape-99" data-name="Shape" d="M1.166,2.97a1.078,1.078,0,0,1-.615-.184,1.187,1.187,0,0,1-.381-.43A1.685,1.685,0,0,1,.71.246,1.311,1.311,0,0,1,1.457,0a1.244,1.244,0,0,1,.624.171,1.5,1.5,0,0,1,.743,1.392,1.514,1.514,0,0,1-1.108,1.3A1.538,1.538,0,0,1,1.166,2.97ZM1.455.547a.758.758,0,0,0-.434.148A1.14,1.14,0,0,0,.653,2.1a.56.56,0,0,0,.517.321.982.982,0,0,0,.35-.073,1.012,1.012,0,0,0,.758-.828.959.959,0,0,0-.47-.875A.709.709,0,0,0,1.455.547Z" transform="translate(52.228 102.153)" fill="#fff"/>
      <path id="Shape-100" data-name="Shape" d="M1.707,4.179a1.461,1.461,0,0,1-.364-.045C.982,4.042.334,3.712.05,2.537A2.178,2.178,0,0,1,1.668.092,2.034,2.034,0,0,1,2.257,0a1.507,1.507,0,0,1,.887.274,1.63,1.63,0,0,1,.569.781A2.371,2.371,0,0,1,3.2,3.449,2.068,2.068,0,0,1,1.707,4.179ZM2.261.548a1.547,1.547,0,0,0-.436.067A1.63,1.63,0,0,0,.581,2.408c.163.675.473,1.089.9,1.2a.913.913,0,0,0,.224.027,1.549,1.549,0,0,0,1.091-.551,1.8,1.8,0,0,0,.4-1.84A1.044,1.044,0,0,0,2.78.685.969.969,0,0,0,2.261.548Z" transform="translate(75.156 89.157)" fill="#fff"/>
      <path id="Shape-101" data-name="Shape" d="M1.569,3.042A1.279,1.279,0,0,1,.7,2.7,1.693,1.693,0,0,1,.052.984,1.4,1.4,0,0,1,1.176.019,1.408,1.408,0,0,1,1.408,0,1.568,1.568,0,0,1,2.682.713a1.448,1.448,0,0,1-.2,1.97A1.389,1.389,0,0,1,1.569,3.042ZM1.408.547a.9.9,0,0,0-.144.012.851.851,0,0,0-.687.58,1.164,1.164,0,0,0,.487,1.152.733.733,0,0,0,.5.2.861.861,0,0,0,.556-.222.894.894,0,0,0,.116-1.246A1.019,1.019,0,0,0,1.408.547Z" transform="translate(71.842 102.706)" fill="#fff"/>
      <path id="Shape-102" data-name="Shape" d="M1.736,3.7a1.2,1.2,0,0,1-.366-.058A1.746,1.746,0,0,1,.065,1.46,2.183,2.183,0,0,1,.673.448,1.523,1.523,0,0,1,1.714,0a1.312,1.312,0,0,1,.27.028A1.727,1.727,0,0,1,3.451,1.207a2.118,2.118,0,0,1-.635,2A1.568,1.568,0,0,1,1.736,3.7ZM1.714.547a1.015,1.015,0,0,0-.7.324A1.67,1.67,0,0,0,.593,1.6a1.188,1.188,0,0,0,.946,1.521.639.639,0,0,0,.2.03,1.092,1.092,0,0,0,.7-.336,1.572,1.572,0,0,0,.49-1.461A1.251,1.251,0,0,0,1.87.563.753.753,0,0,0,1.714.547Z" transform="translate(40.584 97.194)" fill="#fff"/>
      <path id="Shape-103" data-name="Shape" d="M1.315,2.378H1.3A1.283,1.283,0,0,1,.02,1.444h0A1.225,1.225,0,0,1,.495.159,1.078,1.078,0,0,1,1.069,0a1.275,1.275,0,0,1,.7.217A1.308,1.308,0,0,1,2.3,1.575.942.942,0,0,1,1.315,2.378ZM1.069.547A.534.534,0,0,0,.785.623a.706.706,0,0,0-.224.743c.035.235.4.461.743.466h.011a.4.4,0,0,0,.448-.351.748.748,0,0,0-.3-.809A.717.717,0,0,0,1.069.547Z" transform="translate(84.847 101.569)" fill="#fff"/>
      <path id="Shape-104" data-name="Shape" d="M1.678,2.567A2.545,2.545,0,0,1,.517,2.222a.923.923,0,0,1-.5-1A1.579,1.579,0,0,1,1.357.016,1.285,1.285,0,0,1,1.556,0,1.189,1.189,0,0,1,2.633.71a1.372,1.372,0,0,1-.171,1.562A1.084,1.084,0,0,1,1.678,2.567ZM1.551.547h0a.751.751,0,0,0-.112.009,1.049,1.049,0,0,0-.885.754.378.378,0,0,0,.219.428,2.052,2.052,0,0,0,.9.282.558.558,0,0,0,.4-.14A.844.844,0,0,0,2.144.954.668.668,0,0,0,1.551.547Z" transform="translate(64.412 88.554)" fill="#fff"/>
      <g id="Group-6" data-name="Group" transform="translate(14.807 0)">
        <path id="Shape-105" data-name="Shape" d="M.91,3.754a.273.273,0,0,1-.249-.16A9.549,9.549,0,0,1,0,.294.272.272,0,0,1,.252,0a.271.271,0,0,1,.294.25,9.016,9.016,0,0,0,.613,3.118.273.273,0,0,1-.249.385" transform="translate(63.436 5.415)"/>
        <g id="Group-7" data-name="Group" transform="translate(66.037)">
          <path id="Shape-106" data-name="Shape" d="M0,0H3.128V9.111H0Z" transform="translate(0)" fill="none"/>
          <g id="Group-8" data-name="Group" transform="translate(0)" clip-path="url(#clip-path)">
            <path id="Shape-107" data-name="Shape" d="M.273,9.111A.269.269,0,0,1,.188,9.1a.272.272,0,0,1-.175-.344C.6,6.973.878,5.8,1.125,4.764A24.91,24.91,0,0,1,2.6.167a.273.273,0,0,1,.5.212A24.2,24.2,0,0,0,1.656,4.89C1.407,5.936,1.124,7.121.533,8.924a.273.273,0,0,1-.26.188" transform="translate(0 0)"/>
          </g>
        </g>
        <path id="Shape-108" data-name="Shape" d="M.273,4.214a.273.273,0,0,1-.247-.388A18.254,18.254,0,0,1,2.058.7c.148-.2.3-.393.441-.589a.273.273,0,0,1,.44.323c-.146.2-.294.4-.443.593A17.871,17.871,0,0,0,.521,4.058a.274.274,0,0,1-.248.157" transform="translate(68.162 5.366)"/>
        <path id="Shape-109" data-name="Shape" d="M.273,5.56A.273.273,0,0,1,.09,5.085,33.793,33.793,0,0,1,6.178,1.03C6.761.7,7.34.371,7.906.038a.273.273,0,1,1,.278.469c-.568.335-1.15.665-1.736,1A33.34,33.34,0,0,0,.457,5.489a.275.275,0,0,1-.184.07" transform="translate(69.979 5.087)"/>
        <path id="Shape-110" data-name="Shape" d="M4.313,5.5a.273.273,0,0,1-.255-.175C3.259,3.251,1.779.753.236.542A.272.272,0,1,1,.311,0c2.236.306,3.824,4,4.258,5.128a.273.273,0,0,1-.255.37" transform="translate(0.041 10.645)"/>
        <path id="Shape-111" data-name="Shape" d="M6.3,11.149a.273.273,0,0,1-.259-.185C4.895,7.583,3.321,2.954.107.488A.273.273,0,1,1,.44.056C3.785,2.623,5.39,7.342,6.562,10.789a.273.273,0,0,1-.259.36" transform="translate(0 4.723)"/>
        <path id="Shape-112" data-name="Shape" d="M.492,10.209A.273.273,0,0,1,.223,9.98,17.442,17.442,0,0,1,1.515.167a.273.273,0,0,1,.5.211A16.92,16.92,0,0,0,.763,9.892a.274.274,0,0,1-.27.316" transform="translate(7.647 3.663)"/>
        <path id="Shape-113" data-name="Shape" d="M.274,5.089l-.038,0A.273.273,0,0,1,0,4.779,9.291,9.291,0,0,1,2.594.081a.273.273,0,0,1,.388.383A8.72,8.72,0,0,0,.544,4.854a.273.273,0,0,1-.27.235" transform="translate(9.494 9.582)"/>
      </g>
    </g>
  </g>
</svg>
