<svg id="thumb-professor" xmlns="http://www.w3.org/2000/svg" xmlns:xlink="http://www.w3.org/1999/xlink" width="200" height="200" viewBox="0 0 200 200">
  <defs>
    <clipPath id="clip-path">
      <path id="Shape" d="M0,0H39V32.171H0Z" fill="rgba(0,0,0,0)"/>
    </clipPath>
    <clipPath id="clip-path-2">
      <path id="Shape-2" data-name="Shape" d="M0,0H6.043V17.761H0Z" fill="rgba(0,0,0,0)"/>
    </clipPath>
    <clipPath id="clip-path-3">
      <path id="Shape-3" data-name="Shape" d="M0,0H17.235V6.677H0Z" fill="rgba(0,0,0,0)"/>
    </clipPath>
  </defs>
  <rect id="BG" width="200" height="200" fill="none"/>
  <g id="Customize_your_experience" data-name="Customize your experience" transform="translate(6.808 10.64)">
    <g id="Element" transform="translate(79.006 10.077)">
      <path id="Shape-4" data-name="Shape" d="M0,4.873A4.9,4.9,0,1,1,4.9,9.751,4.89,4.89,0,0,1,0,4.873" transform="translate(0 10.67)" fill="#00b2b2"/>
      <path id="Shape-5" data-name="Shape" d="M0,4.878A4.9,4.9,0,1,1,4.9,9.756,4.891,4.891,0,0,1,0,4.878" transform="translate(77.907 14.962)" fill="#00b2b2"/>
      <path id="Shape-6" data-name="Shape" d="M0,0,10.482,2.734S7.3,7.31,3.742,6.457C.031,5.573,0,0,0,0" transform="translate(12.294 14.222)" fill="#ff0e11"/>
      <path id="Shape-7" data-name="Shape" d="M0,2.962A2.976,2.976,0,1,1,2.976,5.923,2.967,2.967,0,0,1,0,2.962" transform="translate(76.542)" fill="#ffd2e1"/>
      <path id="Shape-8" data-name="Shape" d="M0,.359,12.793,0,8.009,12.013Z" transform="translate(88.879 70.599)" fill="#ff0e11"/>
      <path id="Shape-9" data-name="Shape" d="M0,6.934,3.589,0l5,6.1Z" transform="translate(73.745 76.199)" fill="#ffbe00"/>
      <path id="Shape-10" data-name="Shape" d="M0,3.946,6.736,0l.971,7.826Z" transform="translate(82.218 76.627)" fill="#00b2b2"/>
      <path id="Shape-11" data-name="Shape" d="M0,2.126A2.069,2.069,0,0,1,2,0,2.069,2.069,0,0,1,4,2.126,2.065,2.065,0,0,1,2,4.248,2.065,2.065,0,0,1,0,2.126" transform="translate(20.08 16.414)" fill="#ffd2e1"/>
      <path id="Shape-12" data-name="Shape" d="M0,2.122A2.064,2.064,0,0,1,2,0,2.062,2.062,0,0,1,4,2.122,2.062,2.062,0,0,1,2,4.243,2.064,2.064,0,0,1,0,2.122" transform="translate(91.641 20.762)" fill="#ff0e11"/>
      <path id="Shape-13" data-name="Shape" d="M0,2.126A2.069,2.069,0,0,1,2,0,2.069,2.069,0,0,1,4,2.126,2.065,2.065,0,0,1,2,4.248,2.065,2.065,0,0,1,0,2.126" transform="translate(86.988 16.558)"/>
      <path id="Shape-14" data-name="Shape" d="M.312,0,2.234.914s-.4,1.5.713,2.109S5.14,2.441,5.14,2.441l1.882.8A6.508,6.508,0,0,1,4.536,5.035,3.566,3.566,0,0,1,.689,3.478,3.352,3.352,0,0,1,.312,0" transform="translate(24.621 15.338)" fill="#00b2b2"/>
      <path id="Shape-15" data-name="Shape" d="M.652,2.26,5.443.1a1.107,1.107,0,1,1,.911,2.018L1.563,4.277A1.107,1.107,0,1,1,.652,2.26" transform="translate(23.205 75.524)" fill="#ffbe00"/>
      <path id="Shape-16" data-name="Shape" d="M.6,0H5.7a.592.592,0,0,1,.6.591V6.208a.592.592,0,0,1-.6.591H.6A.592.592,0,0,1,0,6.208V.591A.592.592,0,0,1,.6,0" transform="translate(9.143 2.612)"/>
      <path id="Shape-17" data-name="Shape" d="M.39,0H3.716a.387.387,0,0,1,.39.385V4.047a.387.387,0,0,1-.39.385H.39A.387.387,0,0,1,0,4.047V.385A.387.387,0,0,1,.39,0" transform="translate(27.691 66.482)"/>
      <path id="Shape-18" data-name="Shape" d="M1.857.005,9.078.833a.848.848,0,0,1,.744.936L8.907,9.709a.845.845,0,0,1-.936.743L.75,9.621a.845.845,0,0,1-.744-.936L.92.749A.847.847,0,0,1,1.857.005" transform="translate(30.906 80.327)" fill="#00b2b2"/>
      <path id="Shape-19" data-name="Shape" d="M.275,1,3.452.017a.389.389,0,0,1,.486.258l1.077,3.5a.38.38,0,0,1-.254.481l-3.182.98a.392.392,0,0,1-.485-.254L.017,1.482A.39.39,0,0,1,.275,1" transform="translate(25.101 84.481)" fill="#ffd2e1"/>
    </g>
    <g id="Element-2" data-name="Element" transform="translate(74.054 0)">
      <path id="Shape-20" data-name="Shape" d="M.747,40.735a.291.291,0,0,1-.291-.288L0,.294A.291.291,0,0,1,.288,0h0A.291.291,0,0,1,.582.288L1.038,40.44a.291.291,0,0,1-.288.294Z" transform="translate(31.209 32.079)"/>
      <g id="Group" transform="translate(0)">
        <path id="Shape-21" data-name="Shape" d="M0,0H39V32.171H0Z" fill="rgba(0,0,0,0)"/>
        <g id="Group-2" data-name="Group" clip-path="url(#clip-path)">
          <path id="Shape-22" data-name="Shape" d="M35.139,32.171H3.86A3.864,3.864,0,0,1,0,28.313V3.863A3.866,3.866,0,0,1,3.86,0H35.139A3.866,3.866,0,0,1,39,3.863v24.45A3.864,3.864,0,0,1,35.139,32.171ZM3.86.583A3.283,3.283,0,0,0,.582,3.863v24.45A3.28,3.28,0,0,0,3.86,31.588H35.139a3.28,3.28,0,0,0,3.278-3.276V3.863A3.283,3.283,0,0,0,35.139.583Z" transform="translate(0 0)"/>
        </g>
      </g>
      <path id="Shape-23" data-name="Shape" d="M6.33,42.79a.292.292,0,0,1-.291-.287l-.4-26.97L.288,15.479a.291.291,0,0,1,0-.583h0l5.636.057a.292.292,0,0,1,.288.287l.4,26.963,20.616-.3L27.1.442a.292.292,0,0,1,.288-.292L40.965,0a.278.278,0,0,1,.294.288.291.291,0,0,1-.289.294L27.681.729l.134,41.458a.291.291,0,0,1-.287.292L6.334,42.79Z" transform="translate(38.391 12.546)"/>
      <path id="Shape-24" data-name="Shape" d="M20.461,29.481H3.86A3.866,3.866,0,0,1,0,25.617V3.863A3.866,3.866,0,0,1,3.86,0h16.6a3.864,3.864,0,0,1,3.856,3.863V25.617A3.864,3.864,0,0,1,20.461,29.481ZM3.86.583A3.283,3.283,0,0,0,.582,3.863V25.617A3.283,3.283,0,0,0,3.86,28.9h16.6a3.28,3.28,0,0,0,3.273-3.28V3.863A3.28,3.28,0,0,0,20.461.583Z" transform="translate(79.352 7.091)"/>
      <path id="Shape-25" data-name="Shape" d="M20.457,29.476H3.856A3.864,3.864,0,0,1,0,25.613V3.859A3.862,3.862,0,0,1,3.856,0h16.6a3.864,3.864,0,0,1,3.86,3.859V25.613A3.866,3.866,0,0,1,20.457,29.476ZM3.856.583A3.279,3.279,0,0,0,.582,3.859V25.613a3.281,3.281,0,0,0,3.274,3.28h16.6a3.283,3.283,0,0,0,3.278-3.28V3.859A3.28,3.28,0,0,0,20.457.583Z" transform="translate(23.463 72.442)"/>
      <path id="Shape-26" data-name="Shape" d="M28.12,44.092H6.172A6.184,6.184,0,0,1,0,37.91V6.181A6.184,6.184,0,0,1,6.172,0H28.12A6.186,6.186,0,0,1,34.3,6.181V37.91A6.186,6.186,0,0,1,28.12,44.092ZM6.172.583a5.6,5.6,0,0,0-5.59,5.6V37.91a5.6,5.6,0,0,0,5.59,5.6H28.12a5.6,5.6,0,0,0,5.594-5.6V6.181A5.6,5.6,0,0,0,28.12.583Z" transform="translate(73.318 51.265)"/>
      <path id="Shape-27" data-name="Shape" d="M19.611,60.867a.291.291,0,0,1-.291-.289l-.571-60H.291A.291.291,0,0,1,.291,0H19.038a.291.291,0,0,1,.291.289L19.9,60.282l14.568-.112h0a.291.291,0,0,1,0,.583l-14.858.114Z" transform="translate(38.75 15.146)"/>
    </g>
    <g id="Сharacter" transform="translate(0 19.419)">
      <path id="Shape-28" data-name="Shape" d="M8.714,0c-1.375.455-3.2,2.763-4.072,3.848-.521.644-5.215,8.073-4.584,9.023a8.031,8.031,0,0,0,2.36,1.366C6.24,15.332,4.887,16.291,7.764,11.5c1.011-1.686,2-3.463,2.955-5.171a11.273,11.273,0,0,0,1.69-4.01" transform="translate(59.227 1.794)" fill="#ffbe00"/>
      <path id="Shape-29" data-name="Shape" d="M21.094,0,.99,4.339,0,11.51s8.1-.928,18.31-1.764S21.094,0,21.094,0" transform="translate(2.824 112.922)" fill="#fff"/>
      <path id="Shape-30" data-name="Shape" d="M.291,12.092A.289.289,0,0,1,.083,12,.293.293,0,0,1,0,11.761L.993,4.59a.291.291,0,0,1,.227-.245L21.324.006A.3.3,0,0,1,21.384,0a.293.293,0,0,1,.225.1,15.311,15.311,0,0,1,1.734,2.674,9.074,9.074,0,0,1,.85,2.39,4.221,4.221,0,0,1-.182,2.425c-.659,1.574-2.471,2.494-5.385,2.734C8.59,11.148.4,12.081.324,12.09ZM21.27.613h0L1.542,4.871l-.912,6.6c2.012-.224,9.253-1.011,17.947-1.723,2.679-.22,4.326-1.02,4.9-2.378a3.57,3.57,0,0,0,.167-1.977,7.9,7.9,0,0,0-.669-2.035A15.219,15.219,0,0,0,21.27.613Z" transform="translate(2.533 112.631)"/>
      <path id="Shape-31" data-name="Shape" d="M24.188,61.119C29.627,59.53,40.2,29.277,43.677,15.358,46.558,3.83,34.309-.487,32.192.043c-4.717,1.182-11.137.7-13.051,17.229s-3.528,31.79-3.528,31.79L.7,52.94,0,64.95S15.025,63.8,24.188,61.119" transform="translate(15.043 59.631)"/>
      <g id="Group-3" data-name="Group" transform="translate(0 115.299)">
        <path id="Shape-32" data-name="Shape" d="M0,0H6.043V17.761H0Z" transform="translate(0 0)" fill="rgba(0,0,0,0)"/>
        <g id="Group-4" data-name="Group" transform="translate(0 0)" clip-path="url(#clip-path-2)">
          <path id="Shape-33" data-name="Shape" d="M5.972.662,0,0,.066,17.189A1.247,1.247,0,0,0,2.2,17.067c.992-1.489,3.845-7.045,3.845-7.045Z" transform="translate(0)" fill="#ffbe00"/>
        </g>
      </g>
      <path id="Shape-34" data-name="Shape" d="M.31,17.67a.291.291,0,0,1-.291-.291L0,.292A.291.291,0,0,1,.291,0h0A.291.291,0,0,1,.582.291L.6,17.378a.291.291,0,0,1-.291.292Z" transform="translate(1.153 115.341)" fill="#fff"/>
      <path id="Shape-35" data-name="Shape" d="M1.427,2.324a.291.291,0,0,1-.244-.132L.047.45A.291.291,0,1,1,.535.132L1.67,1.874a.291.291,0,0,1-.244.45" transform="translate(2.669 127.162)" fill="#fff"/>
      <path id="Shape-36" data-name="Shape" d="M1.426,2.329A.289.289,0,0,1,1.181,2.2L.047.449A.291.291,0,0,1,.535.132L1.67,1.879a.291.291,0,0,1-.244.45" transform="translate(3.286 125.66)" fill="#fff"/>
      <path id="Shape-37" data-name="Shape" d="M.69,1.61A.8.8,0,0,1,.412,1.56C.109,1.46,0,1,0,.825.013.305.237.111.423.039A.6.6,0,0,1,.638,0a.85.85,0,0,1,.379.1,1.182,1.182,0,0,1,.317.236.58.58,0,0,1,.183.628h0A.935.935,0,0,1,.69,1.61ZM.645.581H.632v0A.581.581,0,0,0,.582.838a.567.567,0,0,0,.063.185.2.2,0,0,0,.04,0c.1,0,.188-.081.27-.24A.546.546,0,0,0,.645.581Z" transform="translate(2.44 124.796)" fill="#fff"/>
      <path id="Shape-38" data-name="Shape" d="M0,5.233.158,23.262,6.53,25.806S7.695,17.461,9.744,5.4,0,5.233,0,5.233" transform="translate(45.495 127.702)" fill="#fff"/>
      <path id="Shape-39" data-name="Shape" d="M6.821,26.387a.291.291,0,0,1-.108-.021L.342,23.822a.289.289,0,0,1-.183-.268L0,5.525a.292.292,0,0,1,.084-.208L.09,5.312A37.122,37.122,0,0,1,3.6,2.266C5.609.762,7.217,0,8.385,0a2.056,2.056,0,0,1,.949.212c1.194.614,1.517,2.423.988,5.529C8.343,17.388,7.16,25.778,7.11,26.13v.006a.29.29,0,0,1-.142.212A.294.294,0,0,1,6.821,26.387ZM8.374.578h0a4.579,4.579,0,0,0-1.92.567,15.77,15.77,0,0,0-2.2,1.367A33.442,33.442,0,0,0,.583,5.642L.739,23.354l5.846,2.334C6.8,24.206,7.941,16.277,9.748,5.644,10.215,2.9,9.98,1.2,9.067.73A1.507,1.507,0,0,0,8.374.579Z" transform="translate(45.204 127.412)"/>
      <path id="Shape-40" data-name="Shape" d="M20.775,62.113C24.208,48.12,29.751,9.3,22.295,3.6,10.036-5.788-1.623,4.969.186,15.516,1.833,25.109,4.53,56.093,4.53,56.093L2.6,85.6H14.957s3.428-13.726,5.819-23.489" transform="translate(40.804 58.326)"/>
      <g id="Group-5" data-name="Group" transform="translate(44.244 149.69)">
        <path id="Shape-41" data-name="Shape" d="M0,0H17.235V6.677H0Z" transform="translate(0 0)" fill="rgba(0,0,0,0)"/>
        <g id="Group-6" data-name="Group" transform="translate(0 0)" clip-path="url(#clip-path-3)">
          <path id="Shape-42" data-name="Shape" d="M.336,0,0,6l16.735.674A1.282,1.282,0,0,0,16.5,4.518C15,3.454,9.445.333,9.445.333Z" fill="#ffbe00"/>
        </g>
      </g>
      <path id="Shape-43" data-name="Shape" d="M16.929,1.3h-.013L.279.583A.291.291,0,0,1,0,.28.283.283,0,0,1,.3,0L16.941.72a.291.291,0,0,1-.012.582" transform="translate(44.204 153.955)" fill="#fff"/>
      <path id="Shape-44" data-name="Shape" d="M.291,1.65a.291.291,0,0,1-.159-.535L1.77.047a.291.291,0,1,1,.318.487L.45,1.6a.291.291,0,0,1-.159.047" transform="translate(55.666 152.048)" fill="#fff"/>
      <path id="Shape-45" data-name="Shape" d="M.291,1.651a.291.291,0,0,1-.159-.535L1.77.047a.291.291,0,1,1,.318.487L.45,1.6a.29.29,0,0,1-.159.047" transform="translate(54.344 151.093)" fill="#fff"/>
      <path id="Shape-46" data-name="Shape" d="M.894,1.542A1.155,1.155,0,0,1,.5,1.469.841.841,0,0,1,.012.8.7.7,0,0,1,.23.127.591.591,0,0,1,.609,0,1.015,1.015,0,0,1,.983.081c.6.239.734.7.611,1.023a.651.651,0,0,1-.254.312A.808.808,0,0,1,.894,1.542ZM.611.582a.055.055,0,0,0-.023,0A.345.345,0,0,0,.6.764.261.261,0,0,0,.7.923.578.578,0,0,0,.894.961c.091,0,.143-.032.155-.064C1.071.84,1,.713.766.621A.43.43,0,0,0,.611.582Z" transform="translate(53.401 152.124)" fill="#fff"/>
      <path id="Shape-47" data-name="Shape" d="M1.472.913A4.172,4.172,0,0,1,.2.746.291.291,0,1,1,.387.2,5.247,5.247,0,0,0,3.4.014a.291.291,0,0,1,.176.555,6.943,6.943,0,0,1-2.1.344" transform="translate(30.145 107.122)" fill="#fff"/>
      <path id="Shape-48" data-name="Shape" d="M2.063,2.032a.29.29,0,0,1-.207-.086l-.232-.235a2.993,2.993,0,0,0-.584-.51C.87,1.08.6.89.116.524A.291.291,0,1,1,.466.059c.48.361.743.549.911.668a3.459,3.459,0,0,1,.661.575l.231.234a.291.291,0,0,1-.207.5" transform="translate(31.244 108.966)" fill="#fff"/>
      <path id="Shape-49" data-name="Shape" d="M.291,40.949a.291.291,0,0,1-.276-.384C3.65,29.683,9,8.091,9.057,7.874a.293.293,0,0,1,.113-.167c.051-.036,5.116-3.664,7.761-7.579a.291.291,0,0,1,.482.326C14.9,4.168,10.291,7.61,9.6,8.117,9.188,9.759,4.08,30.234.568,40.75a.292.292,0,0,1-.276.2" transform="translate(44.508 74.002)" fill="#fff"/>
      <path id="Shape-50" data-name="Shape" d="M20.895,13.126a15.319,15.319,0,0,1-.359-4.505c.039-3.157-.022-6.532-.022-6.532L17.086,0c-1.738,5.1-1.064,5.066-4.939,10.823C11.1,12.386.629,12.776.629,12.776S.611,16.751.45,17.263c-3.614,11.558,15.734,20.2,15.734,20.2l10.981-17.7s-5.8-4.667-6.27-6.637" transform="translate(47.282 8.042)" fill="#fff"/>
      <path id="Shape-51" data-name="Shape" d="M16.467,38.047a.29.29,0,0,1-.119-.025c-.012-.005-1.233-.553-3.026-1.566-1.026-.58-2.028-1.193-2.977-1.823A40.128,40.128,0,0,1,7.06,32.214c-5.837-4.8-8.121-9.9-6.6-14.747a42.771,42.771,0,0,0,.166-4.4.29.29,0,0,1,.28-.29c3.989-.148,10.581-.775,11.287-1.824,2.936-4.363,3.243-5.383,3.983-7.846l0-.013c.238-.793.509-1.692.918-2.895a.288.288,0,0,1,.176-.18.284.284,0,0,1,.1-.018.293.293,0,0,1,.152.043l3.428,2.088a.29.29,0,0,1,.14.243V2.4c.01.59.057,3.68.021,6.515L21.1,9.44a13.552,13.552,0,0,0,.36,3.91c.365,1.535,4.577,5.2,6.169,6.478a.291.291,0,0,1,.065.38l-10.981,17.7A.288.288,0,0,1,16.467,38.047ZM17.529.73h0c-.34,1.014-.579,1.808-.789,2.509l-.01.034v0c-.758,2.523-1.072,3.567-4.056,8-.181.27-.734,1.09-6.363,1.689-2.19.233-4.3.343-5.107.38a36.359,36.359,0,0,1-.191,4.3,9.236,9.236,0,0,0-.372,3.823,10.813,10.813,0,0,0,1.081,3.55,20.264,20.264,0,0,0,4.923,6.053,40.933,40.933,0,0,0,5.944,4.275c1.8,1.081,3.237,1.786,3.77,2.039L27.066,20.118c-.548-.449-1.969-1.636-3.313-2.945A23.191,23.191,0,0,1,21.9,15.182a4.884,4.884,0,0,1-1-1.7,14.029,14.029,0,0,1-.375-4.055l.008-.521c.034-2.7-.006-5.552-.019-6.363L17.529.73Z" transform="translate(46.999 7.751)"/>
      <path id="Shape-52" data-name="Shape" d="M0,20.853l6.567-9.606,10.184,6.812S29,6.908,34.729,3.611a54.082,54.082,0,0,1,8.717-3.4c.582.587-3.639,2.973-3.639,2.973s2.863.2,4.142-.919c.666-.587-.972-1.729-.078-2.233.648-.359,2.3,2.193,1.655,3.218C44.7,4.561,41.554,4.6,41.554,4.6s3.77.271,3.6,1.2c-.149.836-.7.131-3.713.166,3.213.714,3.476.447,3.472,1.125,0,.814-.319.451-3.712.311,1.961.442,3.525.757,3.012,1.41-.486.613-2.277-.311-5.8-.867C37.9,7.863,21.734,29.565,15.6,28.077,11.261,27.022,0,20.853,0,20.853" transform="translate(75.59 21.225)" fill="#fff"/>
      <path id="Shape-53" data-name="Shape" d="M16.522,28.73a2.954,2.954,0,0,1-.7-.08C11.492,27.6.612,21.65.151,21.4a.291.291,0,0,1-.1-.42l6.568-9.606a.291.291,0,0,1,.4-.078l10,6.686c.859-.777,3.941-3.542,7.5-6.525,2.058-1.727,3.922-3.23,5.538-4.466a48.023,48.023,0,0,1,4.825-3.342,38.01,38.01,0,0,1,5.411-2.316,18.015,18.015,0,0,1,3.5-1.1H43.8a1,1,0,0,1,.218-.162A.57.57,0,0,1,44.3,0a1.274,1.274,0,0,1,.862.489c.717.76,1.452,2.34.9,3.209a3.293,3.293,0,0,1-2.071,1.2,2.943,2.943,0,0,1,1.607.726.643.643,0,0,1,.137.518.667.667,0,0,1-.469.614.692.692,0,0,1,.233.628.8.8,0,0,1-.2.627.855.855,0,0,1-.631.176c-.093,0-.2,0-.338-.013a.965.965,0,0,1,.537.5.615.615,0,0,1-.128.606.915.915,0,0,1-.779.313,9.241,9.241,0,0,1-1.913-.36l-.009,0c-.86-.213-1.93-.478-3.268-.693-.273.247-1.154,1.3-2.174,2.509l0,0c-2.456,2.921-6.167,7.335-9.92,11.025a43.326,43.326,0,0,1-5.505,4.709,14.774,14.774,0,0,1-2.486,1.422A5.585,5.585,0,0,1,16.522,28.73ZM6.936,11.939l-6.222,9.1c.806.436,3.681,1.981,6.835,3.528,1.759.863,3.322,1.587,4.644,2.152a26.3,26.3,0,0,0,3.767,1.363,2.539,2.539,0,0,0,.6.068,5.152,5.152,0,0,0,2.064-.533,14.963,14.963,0,0,0,2.434-1.45,45.954,45.954,0,0,0,5.457-4.761c3.727-3.7,7.425-8.1,9.635-10.732,2.084-2.48,2.321-2.736,2.527-2.736a.5.5,0,0,1,.079.009c1.4.222,2.52.5,3.416.719l.007,0a9.65,9.65,0,0,0,1.782.347c.166,0,.272-.031.322-.094a.165.165,0,0,0,.036-.06c-.1-.26-1.559-.587-2.623-.826h0l-.26-.058a.289.289,0,0,1-.224-.322A.293.293,0,0,1,41.49,7.4h.017c.991.041,1.723.1,2.257.145h.016c.354.029.688.057.9.057a.565.565,0,0,0,.229-.027s0-.005,0-.015.007-.076.008-.183a.45.45,0,0,0-.014-.166,3.846,3.846,0,0,0-.971-.227l-.025,0c-.519-.092-1.229-.218-2.234-.441a.291.291,0,0,1,.06-.576l.245,0a16.119,16.119,0,0,1,2.447.184h.008a5.317,5.317,0,0,0,.58.062.231.231,0,0,0,.1-.014.432.432,0,0,0,.048-.157c0-.009,0-.023-.024-.058-.321-.413-2.131-.719-3.314-.805a.291.291,0,0,1,.018-.581c.831-.01,3.12-.246,3.728-1.208.276-.436-.03-1.354-.475-2.035C44.718.775,44.4.58,44.306.58H44.3c-.162.092-.19.171.106.751.218.428.517,1.013.03,1.443a4.133,4.133,0,0,1-1.935.837,9.892,9.892,0,0,1-1.871.171c-.321,0-.527-.014-.549-.016a.291.291,0,0,1-.123-.544A18.681,18.681,0,0,0,43.3.931c-.813.25-2.295.742-3.8,1.3a31.075,31.075,0,0,0-4.336,1.917,50,50,0,0,0-5.159,3.6c-1.713,1.323-3.688,2.929-5.868,4.775-3.718,3.146-6.771,5.917-6.9,6.033a.291.291,0,0,1-.358.027L6.936,11.939Zm36.8-10.652a13.527,13.527,0,0,1-2.566,1.9,5.056,5.056,0,0,0,2.879-.846c.127-.112.056-.31-.164-.741C43.838,1.507,43.784,1.4,43.736,1.287Z" transform="translate(75.299 20.936)"/>
      <path id="Shape-54" data-name="Shape" d="M14.393,17.11S.069,51.685,1.676,53.125c.187.171,16.59-3.2,26.6-.332,7.382,2.115,9.694,5.564,11.983,5C40.127,56.724,49.6,24.75,49.6,24.75l2.925,1.769L57.688,14.9S46.79,6.326,42.11,5.066l-7.6,1.607L26.335,0S16.581.841,11.969,2.588,0,11.812,0,11.812L11.22,22.535Z" transform="translate(28.935 19.46)" fill="#00b2b2"/>
      <path id="Shape-55" data-name="Shape" d="M10.821,9.308a.29.29,0,0,1-.186-.067L.105.515A.291.291,0,1,1,.477.067L10.89,8.7,21.584,5.719a.291.291,0,1,1,.156.561L10.9,9.3a.293.293,0,0,1-.078.011" transform="translate(52.177 19.59)"/>
      <path id="Shape-56" data-name="Shape" d="M.291,11.9a.291.291,0,0,1-.264-.412L5.224.17a.291.291,0,0,1,.529.243L.556,11.734a.291.291,0,0,1-.265.17" transform="translate(79.541 33.149)"/>
      <path id="Shape-57" data-name="Shape" d="M10.089,0l8.394,4.711L13.233,15s7.031-1.743,13.441-2.566c4.256-.547,10.916-.5,11.034.276s-4.435,1.173-4.435,1.173,8.354,1.589,7.837,2.526c-.464.841-6.025-1.147-6.025-1.147s6.681,2.815,5.906,3.472-6.322-2.11-6.322-2.11,5.223,3.271,4.891,3.6c-.9.893-5.416-2.522-5.849-2.15s4.54,2.929,4.116,3.643c-.4.67-5.263-3.4-8.831-3.485-.525-.013-23.718,9.61-28.119,4.6S10.089,0,10.089,0" transform="translate(24.733 31.036)" fill="#fff"/>
      <path id="Shape-58" data-name="Shape" d="M5.951,24.85a10.677,10.677,0,0,1-3.081-.385A4.115,4.115,0,0,1,.939,23.311a4.055,4.055,0,0,1-.922-2.442A10.285,10.285,0,0,1,.4,17.622a33.957,33.957,0,0,1,3.242-7.561C4.806,7.943,6.217,5.677,7.831,3.326,9.059,1.536,9.969.336,10.139.114A.29.29,0,0,1,10.37,0a.3.3,0,0,1,.142.037l8.394,4.711a.291.291,0,0,1,.117.386l-4.962,9.721c1.673-.4,7.544-1.741,12.857-2.424a59.84,59.84,0,0,1,6.489-.365,23.167,23.167,0,0,1,3.343.19c.965.149,1.479.383,1.527.7a.51.51,0,0,1-.114.4,2.229,2.229,0,0,1-1.077.54,13.6,13.6,0,0,1-1.694.352c1.57.336,2.882.667,3.9.983,1.408.437,2.2.831,2.364,1.172a.471.471,0,0,1-.011.437c-.125.225-.451.339-.971.339a7.737,7.737,0,0,1-1.52-.195c1.576.822,2.405,1.441,2.466,1.84a.452.452,0,0,1-.159.422.891.891,0,0,1-.578.153,8.583,8.583,0,0,1-2.695-.71c1.268.891,1.926,1.479,1.956,1.747a.348.348,0,0,1-.1.287.875.875,0,0,1-.65.235,9.848,9.848,0,0,1-3.566-1.487c-.227-.126-.45-.248-.668-.365.217.152.449.31.654.448l.054.036c1.827,1.239,2.844,1.969,2.487,2.568a.425.425,0,0,1-.4.223,6.819,6.819,0,0,1-2.3-1.057c-1.834-1.037-4.345-2.458-6.395-2.509-.074.018-.7.247-1.425.511h0l-.085.031a128.945,128.945,0,0,1-13.914,4.369A35.8,35.8,0,0,1,5.951,24.85ZM10.45.669h0c-.371.5-1.366,1.848-2.595,3.677-1.543,2.3-2.881,4.484-3.976,6.5A32.153,32.153,0,0,0,.921,17.827a9.458,9.458,0,0,0-.349,2.932,3.572,3.572,0,0,0,.8,2.168A3.637,3.637,0,0,0,3.1,23.946a9.79,9.79,0,0,0,2.778.34,25.357,25.357,0,0,0,3.849-.343c1.452-.228,3.1-.573,4.9-1.028,3.6-.911,7.955-2.293,12.931-4.107l.4-.144a7.1,7.1,0,0,1,1.3-.434h.027c2.195.054,4.779,1.516,6.665,2.583h0a15.967,15.967,0,0,0,1.794.933,14.8,14.8,0,0,0-2.2-1.679c-1.4-.946-1.848-1.281-1.869-1.624a.366.366,0,0,1,.126-.3.413.413,0,0,1,.284-.1,6.113,6.113,0,0,1,2.027.913,11.437,11.437,0,0,0,3.273,1.427l.057,0A42.766,42.766,0,0,0,34.8,17.157a.291.291,0,0,1,.155-.538.288.288,0,0,1,.13.031,21.4,21.4,0,0,0,5.793,2.194A.626.626,0,0,0,41,18.833c-.43-.554-3.259-1.969-5.744-3.016a.292.292,0,0,1,.112-.56.285.285,0,0,1,.1.018,21.665,21.665,0,0,0,5.3,1.349.9.9,0,0,0,.311-.041c-.534-.53-4.274-1.5-7.581-2.128a.291.291,0,0,1,.029-.576,12.667,12.667,0,0,0,4.126-.833,14.985,14.985,0,0,0-4.488-.4,50.9,50.9,0,0,0-6.174.366c-6.306.81-13.34,2.542-13.409,2.56a.291.291,0,0,1-.33-.415L18.377,5.119,10.45.669Z" transform="translate(24.452 30.746)"/>
      <path id="Shape-59" data-name="Shape" d="M6.308,0C4.8.757,0,4.851,0,5.289,0,5.9,10.514,15.77,10.951,15.267c.726-.836,5.331-8.052,5.331-8.91" transform="translate(29.982 26.286)" fill="#00b2b2"/>
      <path id="Shape-60" data-name="Shape" d="M10.933,10.6a.289.289,0,0,1-.2-.082C9.112,8.95,7.339,7.308,5.623,5.719,3.76,3.994,1.833,2.21.087.5A.291.291,0,0,1,.495.083c1.74,1.7,3.664,3.486,5.524,5.209C7.737,6.882,9.513,8.527,11.135,10.1a.291.291,0,0,1-.2.5" transform="translate(30.746 29.441)"/>
      <path id="Shape-61" data-name="Shape" d="M0,1.586C.9,2.413,2.036,1,1.283.233A.819.819,0,0,0,.578.01" transform="translate(70.624 11.876)" fill="#fff"/>
      <path id="Shape-62" data-name="Shape" d="M.877,2.419a1.143,1.143,0,0,1-.782-.327.291.291,0,1,1,.394-.429.547.547,0,0,0,.819-.025.649.649,0,0,0,.059-.91A.529.529,0,0,0,.914.589.291.291,0,1,1,.825.013a1.1,1.1,0,0,1,.957.307,1.221,1.221,0,0,1-.057,1.723,1.2,1.2,0,0,1-.848.375" transform="translate(70.333 11.585)"/>
      <path id="Shape-63" data-name="Shape" d="M10.134,3.028A63.352,63.352,0,0,1,7.547,14.735,3.821,3.821,0,0,1,2.963,16.9,3.676,3.676,0,0,1,.055,12.668,73.509,73.509,0,0,1,2.385,2.717,5.635,5.635,0,0,1,5.664.147c2.1-.7,4.7,1.222,4.47,2.881" transform="translate(62.737 2.169)" fill="#fff"/>
      <path id="Shape-64" data-name="Shape" d="M4.313,17.6a4.93,4.93,0,0,1-1.125-.13A3.949,3.949,0,0,1,.059,12.911,73.355,73.355,0,0,1,2.416,2.875,5.953,5.953,0,0,1,5.865.159,3.236,3.236,0,0,1,6.884,0,4.293,4.293,0,0,1,9.575,1.012a2.719,2.719,0,0,1,1.139,2.345A63.466,63.466,0,0,1,8.108,15.133a3.817,3.817,0,0,1-1.6,1.9A4.3,4.3,0,0,1,4.313,17.6ZM6.89.58a2.676,2.676,0,0,0-.843.131,5.363,5.363,0,0,0-3.11,2.423A73.729,73.729,0,0,0,.635,13a3.384,3.384,0,0,0,2.687,3.9,4.285,4.285,0,0,0,.963.107,3.889,3.889,0,0,0,1.827-.433,3.2,3.2,0,0,0,1.457-1.668A62.878,62.878,0,0,0,10.137,3.276,2.158,2.158,0,0,0,9.2,1.459,3.7,3.7,0,0,0,6.89.58Z" transform="translate(62.445 1.88)"/>
      <path id="Shape-65" data-name="Shape" d="M.922,2.52A1.832,1.832,0,0,1,.163,2.3.291.291,0,1,1,.42,1.777c.393.194.554.167.579.143.136-.13,0-.865-.283-1.513A.291.291,0,0,1,1.25.175c.166.383.67,1.671.151,2.166a.67.67,0,0,1-.479.179" transform="translate(68.372 11.293)"/>
      <path id="Shape-66" data-name="Shape" d="M.571.389A.308.308,0,0,0,.366.008a.3.3,0,0,0-.355.25A.3.3,0,0,0,.217.638.31.31,0,0,0,.571.389" transform="translate(67.68 10.609)"/>
      <path id="Shape-67" data-name="Shape" d="M.571.389A.308.308,0,0,0,.366.008a.3.3,0,0,0-.355.25A.3.3,0,0,0,.217.638.31.31,0,0,0,.571.389" transform="translate(70.522 11.156)"/>
      <path id="Shape-68" data-name="Shape" d="M1.164,1.815C0,2.191-.447.435.56.05A.81.81,0,0,1,1.3.142" transform="translate(62.762 10.544)" fill="#fff"/>
      <path id="Shape-69" data-name="Shape" d="M1.141,2.449A1.137,1.137,0,0,1,.079,1.657,1.22,1.22,0,0,1,.747.069a1.1,1.1,0,0,1,1,.123.291.291,0,0,1-.328.481A.516.516,0,0,0,.955.612a.649.649,0,0,0-.327.851.55.55,0,0,0,.737.365.291.291,0,1,1,.179.554,1.313,1.313,0,0,1-.4.067" transform="translate(62.471 10.254)"/>
      <path id="Shape-70" data-name="Shape" d="M1.039.917c.013-.048.026-.1.039-.14" transform="translate(68.85 12.931)" fill="#6295e6"/>
      <path id="Shape-71" data-name="Shape" d="M4.5,1.628c2.518-2.369,4.032-1.992,5.7.1a1.693,1.693,0,0,1,2.68-.841c.416.263.941.954,1.432,1.007.1.013,4.8-1.821,3.573.477-.8,1.5-7.474,6.747-8.905,6.589C7.168,8.756,6.271,7.026,4.046,7.5,2.334,7.871.947,9.933.312,9.338-1.356,7.771,4.2,1.912,4.5,1.628" transform="translate(62.651 0)" fill="#ffbe00"/>
      <path id="Shape-72" data-name="Shape" d="M0,2.108A2.063,2.063,0,0,1,2.012,0,2.063,2.063,0,0,1,4.025,2.108,2.063,2.063,0,0,1,2.012,4.217,2.063,2.063,0,0,1,0,2.108" transform="translate(116.733 17.453)" fill="#ff0e11"/>
    </g>
  </g>
</svg>
