<svg xmlns="http://www.w3.org/2000/svg" xmlns:xlink="http://www.w3.org/1999/xlink" width="121.757" height="135.38" viewBox="0 0 121.757 135.38">
  <defs>
    <clipPath id="clip-path">
      <path id="Shape" d="M0,0H46.751V86.171H0Z" fill="none"/>
    </clipPath>
    <clipPath id="clip-path-2">
      <path id="Shape-2" data-name="Shape" d="M0,0H32.645V12.373H0Z" fill="none"/>
    </clipPath>
  </defs>
  <g id="aluno01-top" transform="translate(-375 -80)">
    <rect id="Retângulo_25" data-name="Retângulo 25" width="120" height="120" rx="6" transform="translate(375 80)" fill="#fdc800"/>
    <g id="Instagram_post" data-name="Instagram post" transform="translate(394.39 96.065)">
      <g id="Сharacter" transform="translate(0 -1.954)">
        <path id="Shape-3" data-name="Shape" d="M0,96.454H74.646V0H0Z" transform="translate(0.265 0.346)" fill="#fff"/>
        <g id="Group" transform="translate(0 0)">
          <path id="Shape-4" data-name="Shape" d="M74.891,96.992H.269A.27.27,0,0,1,0,96.722V.27A.27.27,0,0,1,.269,0H74.891a.27.27,0,0,1,.27.27V96.722A.27.27,0,0,1,74.891,96.992ZM.539.539V96.453H74.622V.539Z"/>
          <path id="Shape-5" data-name="Shape" d="M0,62.191H57.311V0H0Z" transform="translate(9.155 10.258)" fill="#ffbe00"/>
          <path id="Shape-6" data-name="Shape" d="M57.58,62.73H.269A.27.27,0,0,1,0,62.461V.27A.27.27,0,0,1,.269,0H57.58a.27.27,0,0,1,.269.27V62.461A.27.27,0,0,1,57.58,62.73ZM.539.539V62.191H57.311V.539Z" transform="translate(8.886 9.988)"/>
          <path id="Shape-7" data-name="Shape" d="M.692,6.045C-1.086,5.208,1,2.237,2.044,1.059c.288-.328.556-1.317.851-1,.9.983-1.061,6.52-2.2,5.981" transform="translate(57.723 46.873)" fill="#fff"/>
          <path id="Shape-8" data-name="Shape" d="M1.533,4.849C.126,5.727-.923-3.235,1.227,1.277a4.541,4.541,0,0,1,.638,1.462c.061.709.272,1.733-.332,2.11" transform="translate(33.481 13.465)" fill="#fff"/>
          <path id="Shape-9" data-name="Shape" d="M1.533,4.849C.126,5.727-.923-3.235,1.227,1.277a4.536,4.536,0,0,1,.638,1.462c.061.709.272,1.733-.332,2.11" transform="translate(59.592 14.824)" fill="#fff"/>
          <path id="Shape-10" data-name="Shape" d="M1.533,4.848C.126,5.727-.923-3.235,1.227,1.277a4.528,4.528,0,0,1,.638,1.462c.061.709.272,1.733-.332,2.11" transform="translate(54.296 63.627)" fill="#fff"/>
          <path id="Shape-11" data-name="Shape" d="M4.013,1.369A1.962,1.962,0,0,1,6.867.306c.973.493.759,1.652.288,2.661A27.349,27.349,0,0,1,4.012,6.73S.471,3.979.09,2.4A1.744,1.744,0,0,1,1.86,0C3.138-.065,4.013,1.369,4.013,1.369" transform="translate(9.041 76.596)" fill="#ff0e11"/>
          <path id="Shape-12" data-name="Shape" d="M0,3.216A3.257,3.257,0,0,1,3.3,0a3.257,3.257,0,0,1,3.3,3.216A3.257,3.257,0,0,1,3.3,6.432,3.257,3.257,0,0,1,0,3.216" transform="translate(20.211 77.017)" fill="#fff"/>
          <path id="Shape-13" data-name="Shape" d="M3.566,6.971A3.531,3.531,0,0,1,0,3.485,3.531,3.531,0,0,1,3.566,0,3.531,3.531,0,0,1,7.133,3.485,3.531,3.531,0,0,1,3.566,6.971Zm0-6.432A2.991,2.991,0,0,0,.539,3.485,2.991,2.991,0,0,0,3.566,6.432,2.991,2.991,0,0,0,6.594,3.485,2.991,2.991,0,0,0,3.566.539Z" transform="translate(19.941 76.748)"/>
          <path id="Shape-14" data-name="Shape" d="M1.441,0l.887,2L0,1.552" transform="translate(24.954 81.315)" fill="#fff"/>
          <path id="Shape-15" data-name="Shape" d="M2.6,2.535a.268.268,0,0,1-.051,0L.219,2.087a.27.27,0,0,1,.1-.53L2.142,1.9,1.464.379A.27.27,0,0,1,1.956.16l.887,2a.27.27,0,0,1-.246.379" transform="translate(24.685 81.045)"/>
          <path id="Shape-16" data-name="Shape" d="M0,.165,6.667,0,3.159,6.1l-.61-3.382Z" transform="translate(30.905 77.074)" fill="#fff"/>
          <path id="Shape-17" data-name="Shape" d="M3.428,6.638a.251.251,0,0,1-.046,0,.27.27,0,0,1-.219-.218l-.6-3.3L.079.626A.27.27,0,0,1,.263.165L6.93,0h.014a.261.261,0,0,1,.225.132A.271.271,0,0,1,7.17.4L3.662,6.5A.27.27,0,0,1,3.428,6.638ZM6.464.551h0L.9.689l2.1,2.106a.271.271,0,0,1,.075.143l.479,2.657L6.464.551Z" transform="translate(30.636 76.804)"/>
          <path id="Shape-18" data-name="Shape" d="M0,2.384,3.99,0" transform="translate(33.343 77.239)" fill="#fff"/>
          <path id="Shape-19" data-name="Shape" d="M.27,2.923a.27.27,0,0,1-.138-.5L4.122.038A.269.269,0,0,1,4.4.5L.407,2.885a.266.266,0,0,1-.138.038" transform="translate(33.074 76.97)"/>
          <path id="Shape-20" data-name="Shape" d="M0,.669A.673.673,0,0,1,.678,0a.674.674,0,0,1,.678.669.674.674,0,0,1-.678.67A.674.674,0,0,1,0,.669" transform="translate(41.335 79.785)" fill="#fff"/>
          <path id="Shape-21" data-name="Shape" d="M.947,1.878A.944.944,0,0,1,0,.938a.947.947,0,0,1,1.895,0A.945.945,0,0,1,.947,1.878Zm0-1.339a.4.4,0,0,0-.408.4.409.409,0,0,0,.817,0A.4.4,0,0,0,.947.539Z" transform="translate(41.066 79.515)"/>
          <path id="Shape-22" data-name="Shape" d="M0,.669A.674.674,0,0,1,.678,0a.674.674,0,0,1,.678.669.673.673,0,0,1-.678.669A.673.673,0,0,1,0,.669" transform="translate(44.43 79.824)" fill="#fff"/>
          <path id="Shape-23" data-name="Shape" d="M.947,1.878A.944.944,0,0,1,0,.939a.947.947,0,0,1,1.894,0A.944.944,0,0,1,.947,1.878Zm0-1.339a.4.4,0,0,0-.408.4.408.408,0,0,0,.817,0A.4.4,0,0,0,.947.539Z" transform="translate(44.161 79.554)"/>
          <path id="Shape-24" data-name="Shape" d="M0,.669A.674.674,0,0,1,.679,0a.674.674,0,0,1,.678.669.674.674,0,0,1-.678.67A.674.674,0,0,1,0,.669" transform="translate(47.525 79.863)"/>
          <path id="Shape-25" data-name="Shape" d="M.948,1.879A.945.945,0,0,1,0,.939a.948.948,0,0,1,1.9,0A.945.945,0,0,1,.948,1.879Zm0-1.339a.4.4,0,0,0-.409.4.409.409,0,0,0,.818,0A.4.4,0,0,0,.948.539Z" transform="translate(47.255 79.593)"/>
          <path id="Shape-26" data-name="Shape" d="M0,.669A.674.674,0,0,1,.678,0a.674.674,0,0,1,.678.669.674.674,0,0,1-.678.669A.674.674,0,0,1,0,.669" transform="translate(50.62 79.902)" fill="#fff"/>
          <path id="Shape-27" data-name="Shape" d="M.948,1.878A.945.945,0,0,1,0,.939a.947.947,0,0,1,1.895,0A.944.944,0,0,1,.948,1.878Zm0-1.339a.4.4,0,0,0-.409.4.409.409,0,0,0,.817,0A.4.4,0,0,0,.948.539Z" transform="translate(50.35 79.632)"/>
          <path id="Shape-28" data-name="Shape" d="M0,.67A.674.674,0,0,1,.678,0a.674.674,0,0,1,.679.67.674.674,0,0,1-.679.669A.674.674,0,0,1,0,.67" transform="translate(53.714 79.941)" fill="#fff"/>
          <path id="Shape-29" data-name="Shape" d="M.948,1.878A.944.944,0,0,1,0,.939a.948.948,0,0,1,1.9,0A.945.945,0,0,1,.948,1.878Zm0-1.339a.4.4,0,0,0-.409.4.409.409,0,0,0,.818,0A.405.405,0,0,0,.948.539Z" transform="translate(53.445 79.671)"/>
          <path id="Shape-30" data-name="Shape" d="M1.278,0H30.755a1.279,1.279,0,0,1,0,2.559H1.278A1.279,1.279,0,0,1,1.278,0" transform="translate(9.933 87.008)"/>
          <path id="Shape-31" data-name="Shape" d="M2.372.059c-.434-.173-.9.077-1.348.2-2.032.549-.775,3.02,1.459.882.58-.554.675-.765-.111-1.078" transform="translate(20.38 55.956)" fill="#fff"/>
          <path id="Shape-32" data-name="Shape" d="M1.846,2.816C.908,3.827.347,2.272.042.918c-.493-2.188,3.587-.024,1.8,1.9" transform="translate(13.028 48.337)" fill="#fff"/>
          <path id="Shape-33" data-name="Shape" d="M.9,3.76C.231,4.212,0,2.325,0,1.521-.009-1.188,1.764.172,1.609,2.108,1.521,3.211,1.743,3.186.9,3.76" transform="translate(20.12 44.156)" fill="#fff"/>
          <path id="Shape-34" data-name="Shape" d="M.967,3.363C-1.6,4.171,1.73-1.389,1.9.333a4.282,4.282,0,0,1-.385,2.241c-.162.285-.283.705-.551.79" transform="translate(12.33 61.254)" fill="#fff"/>
          <path id="Shape-35" data-name="Shape" d="M.208,2.822c-.355-.2-.18-.849-.025-1.227,1.933-4.719,2.575,2.68.025,1.227" transform="translate(57.172 23.897)" fill="#fff"/>
          <path id="Shape-36" data-name="Shape" d="M0,1.744l.463-.721L.632.9,1.9.044,2.447,0,2.7.126l0,.423,0,.423-.295.593-.464.3-1.1.512-.507.171" transform="translate(53.534 31.886)" fill="#fff"/>
          <path id="Shape-37" data-name="Shape" d="M1.176,3.539C-1.134,4.621.586-2.038,1.082.64a9.6,9.6,0,0,1,.132,1.438c.016.487.4,1.254-.037,1.46" transform="translate(62.117 27.117)" fill="#fff"/>
          <path id="Shape-38" data-name="Shape" d="M.393,2.786C-.411,3.04.2.987.637.267,1.334-.874,3,1.962.393,2.786" transform="translate(45.749 12.159)" fill="#fff"/>
          <path id="Shape-39" data-name="Shape" d="M.392,2.786C-.411,3.04.2.987.638.267,1.334-.874,3,1.962.392,2.786" transform="translate(12.86 25.386)" fill="#fff"/>
          <path id="Shape-40" data-name="Shape" d="M.963,3.16C-.474,3.755-.085,1.149.721.135,1.391-.709,2.2,2.65.963,3.16" transform="translate(19.603 30.433)" fill="#fff"/>
          <path id="Shape-41" data-name="Shape" d="M.733,3.035c-.722.041-.889-.568-.6-1.352,1.646-4.414,2.617,1.238.6,1.352" transform="translate(14.512 13.714)" fill="#fdfdfd"/>
          <path id="Shape-42" data-name="Shape" d="M1.236,3.256.684,2.665l-.17-.3L0,.636.252.127.421,0l.635.209.3.253.426,1.056.213.423" transform="translate(13.869 34.863)" fill="#fff"/>
          <path id="Shape-43" data-name="Shape" d="M0,1.614l.21-.424L.462.682,1.856,0l.678.336.045.762L1.9,2.031l-.928.6" transform="translate(19.287 22.737)" fill="#fff"/>
          <path id="Shape-44" data-name="Shape" d="M.632,2.546C-.4,2.183-.107,1.19,1.048.216,2.48-.991,2.731,3.284.632,2.546" transform="translate(49.435 19.12)" fill="#fff"/>
          <path id="Shape-45" data-name="Shape" d="M1.46,2.573a2.673,2.673,0,0,1-1.081-.8C-1.315.057,3.273-1.384,2.327,2.316c-.075.292-.576.338-.866.257" transform="translate(23.564 13.876)" fill="#fff"/>
          <path id="Shape-46" data-name="Shape" d="M.9,3.13a2.379,2.379,0,0,1-.663-.974C-.807.07,2.008-1.683,1.427,2.817A.36.36,0,0,1,.9,3.13" transform="translate(18.107 66.352)" fill="#fff"/>
        </g>
        <g id="Group-2" data-name="Group" transform="translate(20.868 11.743)">
          <path id="Shape-47" data-name="Shape" d="M5.844.053c3.809.794,3.128,15.775,4.691,16.364,5.99,2.255,15.933,3.52,21.511,4.648s6.743,8.087,5.6,8.586c-.661.288-1.8-3.185-6.136-4.4s-23.322.42-29.159-2.7S3.4,7.653,3.4,7.653,2.034-.741,5.844.053" transform="translate(22.311 23.792)" fill="#fff"/>
          <path id="Shape-48" data-name="Shape" d="M37.828,30.21c-.332,0-.644-.377-1.075-.9A9.63,9.63,0,0,0,31.7,25.778c-1.625-.456-5.394-.5-9.758-.56h-.009c-7.031-.091-15.781-.2-19.447-2.165A4.457,4.457,0,0,1,.248,20.221a8.839,8.839,0,0,1-.111-3.684,20.229,20.229,0,0,1,1.019-3.828A33.57,33.57,0,0,1,3.388,7.87a21.488,21.488,0,0,1-.224-3.357,10.475,10.475,0,0,1,.26-2.266A3.5,3.5,0,0,1,4.3.527,1.861,1.861,0,0,1,5.626,0a2.674,2.674,0,0,1,.544.059c2.522.526,3.178,6.377,3.7,11.08.256,2.284.574,5.126,1.027,5.3,4.35,1.638,10.9,2.767,16.16,3.675l.012,0c1.945.335,3.782.652,5.3.958,4.068.822,5.925,4.7,6.181,7.114.113,1.065-.08,1.787-.529,1.983A.473.473,0,0,1,37.828,30.21ZM5.628.539a1.326,1.326,0,0,0-.96.377C3.1,2.416,3.9,7.656,3.934,7.878h0a.266.266,0,0,1-.033.179C3.857,8.134-.485,15.638.767,20.075a3.937,3.937,0,0,0,1.978,2.5c3.549,1.9,12.226,2.011,19.2,2.1h.011c4.4.056,8.2.1,9.9.58a10.111,10.111,0,0,1,5.318,3.708l.009.011a3.159,3.159,0,0,0,.663.691c.082-.046.275-.47.173-1.427-.239-2.251-1.967-5.878-5.751-6.643-1.5-.3-3.338-.62-5.282-.955h0c-5.287-.912-11.866-2.046-16.267-3.7-.727-.274-.971-2.157-1.372-5.741C8.857,6.908,8.2,1.033,6.059.587A2.14,2.14,0,0,0,5.628.539Z" transform="translate(22.04 23.522)"/>
          <path id="Shape-49" data-name="Shape" d="M17.768,1.753C10.54-3.935,8.361,5.8,5.684,8.594,3.189,11.2.978,13.235,0,14.786c3.585-.333,10.776,4.047,16.759,3.92a77.475,77.475,0,0,0,13.048-1.731s-.98-5.88-9.25-8.7" transform="translate(2.51 2.09)"/>
          <path id="Shape-50" data-name="Shape" d="M17.692,11.46a14.738,14.738,0,0,1-1.355-4.147c-.677-2.971-1.5-6.129-1.5-6.129L11.148,0c-.475,5.185.149,4.993-2.188,11.278C8.326,12.983,0,14.96,0,14.96s.992,7.167.958,7.686C.177,34.311,18.773,35.374,18.773,35.374l5.289-20.607S18.579,13.2,17.692,11.46" transform="translate(4.007 9.466)" fill="#fff"/>
          <path id="Shape-51" data-name="Shape" d="M19.042,35.912h-.017a36.4,36.4,0,0,1-6.035-1c-3.041-.769-7.2-2.287-9.724-5.148A9.107,9.107,0,0,1,.959,22.9c.024-.355-.574-4.87-.956-7.631a.268.268,0,0,1,.2-.3c3.165-.751,8.344-2.37,8.77-3.514,1.773-4.768,1.83-5.795,1.966-8.276V3.161c.044-.8.094-1.7.206-2.917a.268.268,0,0,1,.12-.2A.272.272,0,0,1,11.418,0,.269.269,0,0,1,11.5.013L15.191,1.2a.269.269,0,0,1,.178.189c.007.025.833,3.211,1.5,6.137l.109.491A13.075,13.075,0,0,0,18.2,11.607c.683,1.343,4.709,2.743,6.2,3.169a.269.269,0,0,1,.187.326L19.3,35.709A.269.269,0,0,1,19.042,35.912ZM11.656.628c-.091,1.047-.135,1.858-.175,2.573v0c-.14,2.54-.2,3.591-2,8.435a2.994,2.994,0,0,1-1.437,1.246,19.011,19.011,0,0,1-2.67,1.136c-1.951.689-4.01,1.216-4.8,1.41.161,1.165.96,7,.926,7.5a8.587,8.587,0,0,0,2.172,6.478,13.491,13.491,0,0,0,3.965,2.964,24.9,24.9,0,0,0,4.649,1.786,36.665,36.665,0,0,0,6.555,1.2L24.006,15.22a29.011,29.011,0,0,1-3.249-1.2,12.574,12.574,0,0,1-1.861-1,3.44,3.44,0,0,1-1.174-1.165,13.511,13.511,0,0,1-1.27-3.721l-.109-.488c-.578-2.54-1.263-5.217-1.459-5.977Z" transform="translate(3.738 9.197)"/>
          <path id="Shape-52" data-name="Shape" d="M29,1.045l-.327,10.186,2.226,6.34-3.076,7.367S31.954,38.2,31.482,38.17C31.1,38.144,0,38.232,0,38.232L4.683,23.751,6.819.774S10.765-.54,11.073.256,15.579,11,16.183,10.819c.049-.015,7.46.181,7.46.181S24.093,1.031,24.928.38C25.639-.175,29,1.045,29,1.045" transform="translate(0 22.352)" fill="#00b2b2"/>
          <path id="Shape-53" data-name="Shape" d="M0,1.671c1.035.576,1.781-1,.9-1.56A.779.779,0,0,0,.187.064" transform="translate(22.254 11.467)" fill="#fff"/>
          <path id="Shape-54" data-name="Shape" d="M.707,2.334a1.161,1.161,0,0,1-.569-.158A.269.269,0,1,1,.4,1.706.538.538,0,0,0,1.179,1.5.641.641,0,0,0,1.025.609.509.509,0,0,0,.562.582a.269.269,0,1,1-.211-.5,1.038,1.038,0,0,1,.961.066,1.17,1.17,0,0,1,.331,1.618,1.107,1.107,0,0,1-.935.563" transform="translate(21.984 11.197)"/>
          <path id="Shape-55" data-name="Shape" d="M7.492,2.134a60.882,60.882,0,0,1,.217,11.575A3.685,3.685,0,0,1,3.9,16.78,3.551,3.551,0,0,1,.21,13.461,71.088,71.088,0,0,1,.146,3.594,5.456,5.456,0,0,1,2.646.441C4.462-.688,7.335.524,7.492,2.134" transform="translate(15.003 2.738)" fill="#fff"/>
          <path id="Shape-56" data-name="Shape" d="M4.168,17.317H4.147a4.286,4.286,0,0,1-1.333-.212,3.935,3.935,0,0,1-1.225-.651A3.711,3.711,0,0,1,.21,13.75,70.96,70.96,0,0,1,.152,3.8,5.752,5.752,0,0,1,2.773.48,3.386,3.386,0,0,1,4.566,0,4.255,4.255,0,0,1,6.438.442,2.61,2.61,0,0,1,8.029,2.375a60.908,60.908,0,0,1,.215,11.642A3.943,3.943,0,0,1,4.168,17.317ZM4.565.537a2.846,2.846,0,0,0-1.507.4A5.2,5.2,0,0,0,.678,3.921a71.342,71.342,0,0,0,.07,9.787,3.188,3.188,0,0,0,1.19,2.327A3.4,3.4,0,0,0,3,16.6a3.713,3.713,0,0,0,1.151.183h.018a3.448,3.448,0,0,0,3.547-2.843A60.42,60.42,0,0,0,7.493,2.427,2.093,2.093,0,0,0,6.2.925,3.713,3.713,0,0,0,4.565.537Z" transform="translate(14.734 2.47)"/>
          <path id="Shape-57" data-name="Shape" d="M.7,2.392a2.228,2.228,0,0,1-.49-.064A.269.269,0,1,1,.329,1.8c.42.094.568.031.589,0,.1-.156-.2-.821-.609-1.368A.269.269,0,1,1,.737.107c.242.32,1,1.409.633,1.984a.75.75,0,0,1-.67.3" transform="translate(20.116 11.395)"/>
          <path id="Shape-58" data-name="Shape" d="M.555.313A.3.3,0,0,0,.276,0,.3.3,0,0,0,0,.315.3.3,0,0,0,.279.627.3.3,0,0,0,.555.313" transform="translate(18.914 11.049)"/>
          <path id="Shape-59" data-name="Shape" d="M.555.312A.3.3,0,0,0,.276,0,.3.3,0,0,0,0,.314.3.3,0,0,0,.279.627.3.3,0,0,0,.555.312" transform="translate(21.705 10.921)"/>
          <path id="Shape-60" data-name="Shape" d="M1.325,1.649C.315,2.268-.5.721.361.128A.779.779,0,0,1,1.07.052" transform="translate(14.391 11.968)" fill="#fff"/>
          <path id="Shape-61" data-name="Shape" d="M1.132,2.332a1.113,1.113,0,0,1-.916-.524A1.17,1.17,0,0,1,.478.177,1.036,1.036,0,0,1,1.435.07a.269.269,0,0,1-.189.5A.512.512,0,0,0,.784.62a.641.641,0,0,0-.117.893.539.539,0,0,0,.787.177.269.269,0,0,1,.282.459,1.148,1.148,0,0,1-.6.183" transform="translate(14.121 11.697)"/>
          <path id="Shape-62" data-name="Shape" d="M1.123.886c0-.047,0-.094.007-.141" transform="translate(20.527 12.781)" fill="#7394e3"/>
          <path id="Shape-63" data-name="Shape" d="M.34,8.276c.442,1.928,2.28-.2,4.258-.817C21.22,2.291-3.11-6.763.34,8.276" transform="translate(13.494 2.246)"/>
          <path id="Shape-64" data-name="Shape" d="M.638,4.919S-1.248,1.713,1.466.3C3.672-.841,4.757,1.617,4.757,1.617A6.511,6.511,0,0,0,2.542,2.693a9.514,9.514,0,0,0-1.9,2.226" transform="translate(10.64 0)"/>
          <path id="Shape-65" data-name="Shape" d="M1.124,1.011c8.3-5.813,13.6,15.381,15.037,14.523C21.653,12.248,25.651,8.055,30,4.39c1.969-1.657,1.877-2.056,3.737-2.623,2.252-.687,8.788.071,7.449.752a57.592,57.592,0,0,0-8.245,4.9c-3.654,2.64-11.428,16.636-17.506,19.262S-3.932,4.553,1.124,1.011" transform="translate(2.09 23.087)" fill="#fff"/>
          <path id="Shape-66" data-name="Shape" d="M14.768,27.406a4.875,4.875,0,0,1-2.524-.869,14.43,14.43,0,0,1-2.719-2.323,30.557,30.557,0,0,1-2.7-3.348,44.533,44.533,0,0,1-2.476-3.945C.859,10.678-1.6,3.051,1.244,1.058A5.286,5.286,0,0,1,4.28,0,4.463,4.463,0,0,1,5.44.156c4.04,1.09,7.048,7.606,9.039,11.917l0,.01a15.734,15.734,0,0,0,1.852,3.465,66.879,66.879,0,0,0,10.23-7.991l.053-.048c1.135-1.016,2.309-2.066,3.486-3.056.552-.464.942-.831,1.256-1.126l.025-.024a5.113,5.113,0,0,1,2.55-1.524,10.725,10.725,0,0,1,2.79-.275,21.287,21.287,0,0,1,3.343.252,6.977,6.977,0,0,1,1.228.3c.332.123.53.259.588.4.033.082.108.364-.3.57l-.326.165h0A56.319,56.319,0,0,0,33.378,7.9c-1.393,1.006-3.416,3.725-5.758,6.873-3.763,5.057-8.028,10.789-11.8,12.418A2.63,2.63,0,0,1,14.768,27.406ZM4.265.535h0a4.017,4.017,0,0,0-1.348.24A5.784,5.784,0,0,0,1.553,1.5c-2.43,1.7-.132,9.08,3.264,15.158A38.224,38.224,0,0,0,9.776,23.7a14.646,14.646,0,0,0,2.6,2.3,4.452,4.452,0,0,0,2.363.871,2.175,2.175,0,0,0,.868-.174c3.639-1.573,8.042-7.49,11.58-12.245h0c2.368-3.183,4.414-5.933,5.874-6.988a56.8,56.8,0,0,1,7.956-4.754l.234-.118a16.87,16.87,0,0,0-4.68-.56,9.167,9.167,0,0,0-2.477.26,4.594,4.594,0,0,0-2.338,1.4l-.013.012c-.321.3-.721.678-1.291,1.158-1.2,1.009-2.382,2.069-3.526,3.094l0,0a67.094,67.094,0,0,1-10.349,8.072.449.449,0,0,1-.23.063.476.476,0,0,1-.14-.021c-.526-.162-1.059-1.275-2.213-3.776h0C12.041,8.078,9.1,1.7,5.3.676A3.965,3.965,0,0,0,4.266.536Z" transform="translate(1.816 22.819)"/>
          <path id="Shape-67" data-name="Shape" d="M.269,7.066a.269.269,0,0,1-.088-.524C3.608,5.368,4.181,3.9,5.323.971c.1-.256.2-.523.314-.8a.269.269,0,1,1,.5.2c-.11.277-.213.543-.313.8C4.661,4.152,4.019,5.8.357,7.052a.275.275,0,0,1-.088.015" transform="translate(24.796 39.995)"/>
          <path id="Shape-68" data-name="Shape" d="M3.212,2.548a.267.267,0,0,1-.14-.039c-.227-.138-.449-.267-.667-.394A10.7,10.7,0,0,1,.079.46.27.27,0,0,1,.46.078,10.246,10.246,0,0,0,2.677,1.649c.22.129.446.26.676.4a.269.269,0,0,1-.14.5" transform="translate(5.594 49.73)"/>
          <path id="Shape-69" data-name="Shape" d="M.349,1.573A.27.27,0,0,1,.08,1.3,4.272,4.272,0,0,0,.042.817,4.662,4.662,0,0,1,0,.269a.269.269,0,0,1,.539,0A4.272,4.272,0,0,0,.577.756,4.669,4.669,0,0,1,.619,1.3a.27.27,0,0,1-.269.269" transform="translate(19.626 31.552)"/>
        </g>
        <g id="Group-3" data-name="Group" transform="translate(55.616 35.098)">
          <path id="Shape-70" data-name="Shape" d="M0,.886S2.885,5.959,3.638,9.671A121.932,121.932,0,0,1,6.183,34.007c.087,3.706-.416,15.933,2.465,18.68,3.389,3.23,9.771-2.153,10.266,5.942.457,7.476.788,27,.788,27l26.511-1.213s-.162-27.988-3.442-35.159c-1.478-3.231-8.13-2-9.172-5.209-1.165-3.585-1.623-9.982-1.8-13.688-.387-8.1-1.008-17.054-1.635-21.148S26.41,0,26.41,0Z" transform="translate(0.269 0.271)" fill="#fff"/>
          <g id="Group-4" data-name="Group" transform="translate(0 0)">
            <path id="Shape-71" data-name="Shape" d="M0,0H46.751V86.171H0Z" fill="none"/>
            <g id="Group-5" data-name="Group" clip-path="url(#clip-path)">
              <path id="Shape-72" data-name="Shape" d="M19.972,86.171a.269.269,0,0,1-.269-.265c-.014-.8-.34-19.672-.788-26.99a8.315,8.315,0,0,0-.455-2.436,3.221,3.221,0,0,0-.921-1.372,4.281,4.281,0,0,0-2.837-.741c-.314,0-.629.009-.963.019h0c-.338.01-.687.02-1.031.02a8.033,8.033,0,0,1-2.1-.222,4.2,4.2,0,0,1-1.873-1.032C6.195,50.735,6.2,41.432,6.2,36.434v-.094c0-.82,0-1.527-.012-2.057A121.521,121.521,0,0,0,3.644,10a19.2,19.2,0,0,0-.87-2.883c-.328-.87-.732-1.815-1.2-2.811C.772,2.594.042,1.3.035,1.29A.27.27,0,0,1,.26.887L26.67,0h.023a.264.264,0,0,1,.215.13c.129.211,3.164,5.216,3.791,9.315.67,4.377,1.285,13.808,1.638,21.175.17,3.555.628,10.05,1.788,13.617.478,1.472,2.322,1.936,4.274,2.427h0c2.014.507,4.1,1.031,4.884,2.753A32.754,32.754,0,0,1,45.2,57.78c.424,3.154.773,7.03,1.037,11.521.453,7.708.506,14.623.511,15.386a.268.268,0,0,1-.257.271L19.984,86.171ZM14.695,53.828a7.706,7.706,0,0,1,1.684.148,3.468,3.468,0,0,1,1.461.669c.958.769,1.485,2.155,1.613,4.238.425,6.96.748,24.733.783,26.737l25.975-1.188c-.028-2.857-.361-28.111-3.415-34.79-.68-1.486-2.635-1.978-4.526-2.454h0c-2.008-.505-4.084-1.027-4.655-2.783-1.119-3.443-1.6-9.382-1.814-13.758-.352-7.354-.965-16.765-1.632-21.12C29.614,5.909,27.04,1.411,26.529.545L.718,1.411c.355.65,1.053,1.974,1.745,3.528A24.888,24.888,0,0,1,4.17,9.888,121.929,121.929,0,0,1,6.722,34.271c.013.551.013,1.3.013,2.159h0c0,4.918,0,14.072,2.369,16.33a3.705,3.705,0,0,0,1.688.908,7.708,7.708,0,0,0,1.939.2c.327,0,.661-.01.983-.019h.008C14.083,53.836,14.384,53.828,14.695,53.828Z" transform="translate(0 0)"/>
            </g>
          </g>
          <path id="Shape-73" data-name="Shape" d="M0,.84,3.84.694,4.391.673" transform="translate(6.839 4.004)" fill="#fff"/>
          <path id="Shape-74" data-name="Shape" d="M.269.707A.27.27,0,0,1,.259.168L4.649,0A.256.256,0,0,1,4.929.26.269.269,0,0,1,4.67.54L.279.707H.269" transform="translate(6.57 4.406)"/>
          <path id="Shape-75" data-name="Shape" d="M0,.875,3.886.727" transform="translate(16.422 3.605)" fill="#fff"/>
          <path id="Shape-76" data-name="Shape" d="M.269.687A.27.27,0,0,1,.259.148L4.145,0A.256.256,0,0,1,4.424.26a.269.269,0,0,1-.259.28L.279.687H.269" transform="translate(16.153 4.062)"/>
          <path id="Shape-77" data-name="Shape" d="M0,1.01,1.919.937" transform="translate(24.173 3.176)" fill="#fff"/>
          <path id="Shape-78" data-name="Shape" d="M.269.613A.27.27,0,0,1,.259.074L2.178,0A.254.254,0,0,1,2.457.26.269.269,0,0,1,2.2.54L.279.613H.269" transform="translate(23.904 3.843)"/>
          <path id="Shape-79" data-name="Shape" d="M0,.73,19.254,0" transform="translate(7.198 7.788)" fill="#fff"/>
          <path id="Shape-80" data-name="Shape" d="M.269,1.269A.27.27,0,0,1,.259.73L19.513,0a.258.258,0,0,1,.279.259.269.269,0,0,1-.259.28L.279,1.269H.269" transform="translate(6.929 7.519)"/>
          <path id="Shape-81" data-name="Shape" d="M0,.807,4.858.623" transform="translate(7.559 11.386)" fill="#fff"/>
          <path id="Shape-82" data-name="Shape" d="M.269.724A.27.27,0,0,1,.259.185L5.116,0A.258.258,0,0,1,5.4.26a.269.269,0,0,1-.259.28L.279.724H.269" transform="translate(7.29 11.739)"/>
          <path id="Shape-83" data-name="Shape" d="M0,.408,10.754,0" transform="translate(16.058 11.463)" fill="#fff"/>
          <path id="Shape-84" data-name="Shape" d="M.269.947A.27.27,0,0,1,.259.408L11.013,0a.257.257,0,0,1,.279.259.269.269,0,0,1-.258.28L.279.947H.269" transform="translate(15.79 11.194)"/>
          <path id="Shape-85" data-name="Shape" d="M0,.5,11.488.062,13.131,0" transform="translate(7.919 15.371)" fill="#fff"/>
          <path id="Shape-86" data-name="Shape" d="M.269,1.038A.27.27,0,0,1,.259.5L13.39,0a.258.258,0,0,1,.279.259.268.268,0,0,1-.258.279l-13.132.5H.269" transform="translate(7.65 15.1)"/>
          <path id="Shape-87" data-name="Shape" d="M0,.945.317.933l2.549-.1" transform="translate(24.307 14.302)" fill="#fff"/>
          <path id="Shape-88" data-name="Shape" d="M.269.648A.27.27,0,0,1,.259.109L3.124,0A.257.257,0,0,1,3.4.26a.268.268,0,0,1-.259.279L.279.648H.269" transform="translate(24.038 14.868)"/>
          <path id="Shape-89" data-name="Shape" d="M0,.731,12.751.247,14.7.173,19.254,0" transform="translate(8.278 18.813)" fill="#fff"/>
          <path id="Shape-90" data-name="Shape" d="M.269,1.27A.27.27,0,0,1,.259.731L19.513,0a.256.256,0,0,1,.279.259.269.269,0,0,1-.259.28L.279,1.27H.269" transform="translate(8.009 18.543)"/>
          <path id="Shape-91" data-name="Shape" d="M0,.771l5.394-.2" transform="translate(8.639 22.447)" fill="#fff"/>
          <path id="Shape-92" data-name="Shape" d="M.269.746A.269.269,0,0,1,.259.207L5.652,0a.252.252,0,0,1,.279.259.268.268,0,0,1-.259.279L.279.745H.269" transform="translate(8.37 22.743)"/>
          <path id="Shape-93" data-name="Shape" d="M0,.947,2.83.839" transform="translate(17.685 21.929)" fill="#fff"/>
          <path id="Shape-94" data-name="Shape" d="M.269.648A.269.269,0,0,1,.259.109L3.089,0A.255.255,0,0,1,3.368.26.268.268,0,0,1,3.11.54L.279.648H.269" transform="translate(17.416 22.498)"/>
          <path id="Shape-95" data-name="Shape" d="M0,.86,4.1.7" transform="translate(23.792 21.784)" fill="#fff"/>
          <path id="Shape-96" data-name="Shape" d="M.269.695A.269.269,0,0,1,.259.156L4.359,0h.011a.269.269,0,0,1,.01.539L.279.694H.269" transform="translate(23.523 22.219)"/>
          <path id="Shape-97" data-name="Shape" d="M0,.889,3.678.75" transform="translate(8.999 26.004)" fill="#fff"/>
          <path id="Shape-98" data-name="Shape" d="M.269.679A.269.269,0,0,1,.259.141L3.937,0A.256.256,0,0,1,4.216.26.268.268,0,0,1,3.957.54L.279.679H.269" transform="translate(8.73 26.484)"/>
          <path id="Shape-99" data-name="Shape" d="M0,.453,11.948,0" transform="translate(16.305 26.164)" fill="#fff"/>
          <path id="Shape-100" data-name="Shape" d="M.269.993A.269.269,0,0,1,.259.454L12.206,0a.255.255,0,0,1,.279.259.269.269,0,0,1-.258.28L.279.993H.269" transform="translate(16.036 25.893)"/>
          <path id="Shape-101" data-name="Shape" d="M0,.549,12.551.073,14.464,0" transform="translate(9.359 30.02)" fill="#fff"/>
          <path id="Shape-102" data-name="Shape" d="M.269,1.088A.269.269,0,0,1,.259.549L14.722,0h.01a.27.27,0,0,1,.01.539L.279,1.088H.269" transform="translate(9.09 29.75)"/>
          <path id="Shape-103" data-name="Shape" d="M0,1.061l1.2-.045" transform="translate(27.415 28.823)" fill="#fff"/>
          <path id="Shape-104" data-name="Shape" d="M.269.585A.269.269,0,0,1,.259.047L1.456,0A.254.254,0,0,1,1.734.26a.269.269,0,0,1-.259.28L.279.585H.269" transform="translate(27.147 29.568)"/>
          <path id="Shape-105" data-name="Shape" d="M0,.628,7.466.345" transform="translate(21.506 33.169)" fill="#fff"/>
          <path id="Shape-106" data-name="Shape" d="M.269.824A.269.269,0,0,1,.259.285L7.725,0A.253.253,0,0,1,8,.261a.269.269,0,0,1-.258.28L.279.823H.269" transform="translate(21.237 33.243)"/>
          <path id="Shape-107" data-name="Shape" d="M0,.715,6.209.48" transform="translate(10.078 37.204)" fill="#fff"/>
          <path id="Shape-108" data-name="Shape" d="M.269.775A.269.269,0,0,1,.259.237L6.467,0A.254.254,0,0,1,6.746.26a.269.269,0,0,1-.259.28L.279.775H.269" transform="translate(9.81 37.413)"/>
          <path id="Shape-109" data-name="Shape" d="M0,.5,9.3.149" transform="translate(20.037 37.04)" fill="#fff"/>
          <path id="Shape-110" data-name="Shape" d="M.269.894A.269.269,0,0,1,.259.355L9.554,0a.253.253,0,0,1,.279.259.269.269,0,0,1-.259.28L.279.893H.269" transform="translate(19.768 36.918)"/>
          <path id="Shape-111" data-name="Shape" d="M0,.41l10.62-.4" transform="translate(10.438 41.185)" fill="#fff"/>
          <path id="Shape-112" data-name="Shape" d="M.269.943A.269.269,0,0,1,.259.4L10.879,0a.254.254,0,0,1,.279.259A.269.269,0,0,1,10.9.54L.279.943H.269" transform="translate(10.17 40.921)"/>
          <path id="Shape-113" data-name="Shape" d="M0,.872,3.93.724" transform="translate(25.762 40.14)" fill="#fff"/>
          <path id="Shape-114" data-name="Shape" d="M.269.688A.269.269,0,0,1,.259.149L4.189,0H4.2a.269.269,0,0,1,.01.539L.279.688H.269" transform="translate(25.493 40.594)"/>
          <path id="Shape-115" data-name="Shape" d="M0,.9,3.491.769" transform="translate(10.798 44.367)" fill="#fff"/>
          <path id="Shape-116" data-name="Shape" d="M.269.674A.269.269,0,0,1,.259.135L3.75,0a.252.252,0,0,1,.279.259.269.269,0,0,1-.259.28L.279.673H.269" transform="translate(10.53 44.865)"/>
          <path id="Shape-117" data-name="Shape" d="M0,.872,3.938.722" transform="translate(17.674 44.137)" fill="#fff"/>
          <path id="Shape-118" data-name="Shape" d="M.269.69A.269.269,0,0,1,.259.152L4.2,0a.252.252,0,0,1,.279.259.269.269,0,0,1-.258.28L.279.69H.269" transform="translate(17.405 44.588)"/>
          <path id="Shape-119" data-name="Shape" d="M0,.839,4.4.672" transform="translate(25.648 43.867)" fill="#fff"/>
          <path id="Shape-120" data-name="Shape" d="M.269.706A.269.269,0,0,1,.259.167L4.663,0h.011a.269.269,0,0,1,.01.539L.279.706H.269" transform="translate(25.379 44.269)"/>
          <path id="Shape-121" data-name="Shape" d="M0,.646,7.2.373" transform="translate(11.158 48.298)" fill="#fff"/>
          <path id="Shape-122" data-name="Shape" d="M.269.814A.269.269,0,0,1,.259.276L7.462,0a.253.253,0,0,1,.279.259.269.269,0,0,1-.259.279L.279.814H.269" transform="translate(10.889 48.4)"/>
          <path id="Shape-123" data-name="Shape" d="M0,.579,8.174.269" transform="translate(22.238 47.946)" fill="#fff"/>
          <path id="Shape-124" data-name="Shape" d="M.269.849A.269.269,0,0,1,.259.311L8.433,0h.01a.269.269,0,0,1,.011.539L.279.849H.269" transform="translate(21.969 47.945)"/>
          <path id="Shape-125" data-name="Shape" d="M0,.411,10.832,0" transform="translate(20.991 51.951)" fill="#fff"/>
          <path id="Shape-126" data-name="Shape" d="M.269.95A.269.269,0,0,1,.259.411L11.09,0H11.1a.269.269,0,0,1,.01.539L.279.949H.269" transform="translate(20.722 51.682)"/>
          <path id="Shape-127" data-name="Shape" d="M0,1.043,1.457.988" transform="translate(38.788 50.644)" fill="#fff"/>
          <path id="Shape-128" data-name="Shape" d="M.269.594A.269.269,0,0,1,.259.056L1.716,0h.011a.269.269,0,0,1,.01.539L.279.594H.269" transform="translate(38.519 51.362)"/>
          <path id="Shape-129" data-name="Shape" d="M0,.431,6.409.187,11.356,0" transform="translate(21.351 55.607)" fill="#fff"/>
          <path id="Shape-130" data-name="Shape" d="M.269.971A.269.269,0,0,1,.259.432L11.615,0h.01a.27.27,0,0,1,.011.539L.279.97H.269" transform="translate(21.082 55.337)"/>
          <path id="Shape-131" data-name="Shape" d="M0,.838,4.426.671" transform="translate(36.18 54.636)" fill="#fff"/>
          <path id="Shape-132" data-name="Shape" d="M.269.707A.269.269,0,0,1,.259.168L4.684,0h.011A.269.269,0,0,1,4.7.539L.279.706H.269" transform="translate(35.911 55.038)"/>
          <path id="Shape-133" data-name="Shape" d="M0,.813,4.787.632" transform="translate(21.711 58.899)" fill="#fff"/>
          <path id="Shape-134" data-name="Shape" d="M.269.72A.269.269,0,0,1,.259.182L5.046,0h.01a.269.269,0,0,1,.01.539L.279.72H.269" transform="translate(21.442 59.261)"/>
          <path id="Shape-135" data-name="Shape" d="M0,.414,10.9,0" transform="translate(30.064 58.982)" fill="#fff"/>
          <path id="Shape-136" data-name="Shape" d="M.269.954A.269.269,0,0,1,.259.415L11.16,0a.255.255,0,0,1,.279.259.269.269,0,0,1-.258.28L.279.953H.269" transform="translate(29.795 58.712)"/>
          <path id="Shape-137" data-name="Shape" d="M0,.824,4.628.648" transform="translate(22.071 62.564)" fill="#fff"/>
          <path id="Shape-138" data-name="Shape" d="M.269.715A.269.269,0,0,1,.259.176L4.886,0H4.9a.269.269,0,0,1,.01.539L.279.714H.269" transform="translate(21.802 62.942)"/>
          <path id="Shape-139" data-name="Shape" d="M0,.9,3.57.761" transform="translate(29.992 62.19)" fill="#fff"/>
          <path id="Shape-140" data-name="Shape" d="M.269.675A.269.269,0,0,1,.259.136L3.828,0h.01a.269.269,0,0,1,.011.539L.279.674H.269" transform="translate(29.723 62.682)"/>
          <path id="Shape-141" data-name="Shape" d="M0,.757,5.595.545" transform="translate(35.73 62.112)" fill="#fff"/>
          <path id="Shape-142" data-name="Shape" d="M.269.753A.269.269,0,0,1,.259.214L5.853,0a.254.254,0,0,1,.279.259.269.269,0,0,1-.258.28L.279.752H.269" transform="translate(35.461 62.386)"/>
          <path id="Shape-143" data-name="Shape" d="M0,.847,4.291.685" transform="translate(27.533 66.022)" fill="#fff"/>
          <path id="Shape-144" data-name="Shape" d="M.269.7A.269.269,0,0,1,.259.163L4.549,0h.011a.269.269,0,0,1,.01.539L.279.7H.269" transform="translate(27.264 66.437)"/>
          <path id="Shape-145" data-name="Shape" d="M0,.758,5.576.546" transform="translate(36.109 65.786)" fill="#fff"/>
          <path id="Shape-146" data-name="Shape" d="M.269.753A.269.269,0,0,1,.259.214L5.834,0a.254.254,0,0,1,.279.259.269.269,0,0,1-.258.28L.279.752H.269" transform="translate(35.84 66.061)"/>
          <path id="Shape-147" data-name="Shape" d="M0,.684,6.656.431" transform="translate(22.791 70.054)" fill="#fff"/>
          <path id="Shape-148" data-name="Shape" d="M.269.792A.269.269,0,0,1,.259.253L6.915,0h.01a.269.269,0,0,1,.011.539L.279.791H.269" transform="translate(22.522 70.215)"/>
          <path id="Shape-149" data-name="Shape" d="M0,.633,7.4.352" transform="translate(34.64 69.655)" fill="#fff"/>
          <path id="Shape-150" data-name="Shape" d="M.269.82A.269.269,0,0,1,.259.281L7.663,0h.011a.269.269,0,0,1,.01.539L.279.819H.269" transform="translate(34.371 69.738)"/>
          <path id="Shape-151" data-name="Shape" d="M0,.691,6.553.442" transform="translate(23.151 73.722)" fill="#fff"/>
          <path id="Shape-152" data-name="Shape" d="M.269.788A.269.269,0,0,1,.259.25L6.812,0A.253.253,0,0,1,7.09.26a.269.269,0,0,1-.258.28L.279.788H.269" transform="translate(22.882 73.894)"/>
          <path id="Shape-153" data-name="Shape" d="M0,.5,9.252.153" transform="translate(33.153 73.529)" fill="#fff"/>
          <path id="Shape-154" data-name="Shape" d="M.269.89A.269.269,0,0,1,.259.351L9.51,0h.01a.269.269,0,0,1,.011.539L.279.89H.269" transform="translate(32.884 73.413)"/>
          <path id="Shape-155" data-name="Shape" d="M0,.73,19.254,0" transform="translate(23.511 77.358)" fill="#fff"/>
          <path id="Shape-156" data-name="Shape" d="M.269,1.269A.269.269,0,0,1,.259.731L19.513,0h.01a.269.269,0,0,1,.01.539L.279,1.269H.269" transform="translate(23.242 77.088)"/>
          <path id="Shape-157" data-name="Shape" d="M0,.852,4.217.692" transform="translate(23.871 80.911)" fill="#fff"/>
          <path id="Shape-158" data-name="Shape" d="M.269.7A.269.269,0,0,1,.259.161L4.475,0A.256.256,0,0,1,4.755.26.268.268,0,0,1,4.5.54L.279.7H.269" transform="translate(23.602 81.332)"/>
          <path id="Shape-159" data-name="Shape" d="M0,.754,3.936.606,5.645.541" transform="translate(31.626 80.714)" fill="#fff"/>
          <path id="Shape-160" data-name="Shape" d="M.269.754A.269.269,0,0,1,.259.215L5.9,0A.254.254,0,0,1,6.182.26a.269.269,0,0,1-.258.28L.279.754H.269" transform="translate(31.358 80.984)"/>
          <path id="Shape-161" data-name="Shape" d="M0,.957.329.944,2.706.854" transform="translate(40.419 80.179)" fill="#fff"/>
          <path id="Shape-162" data-name="Shape" d="M.269.642A.269.269,0,0,1,.259.1l2.7-.1h.011a.269.269,0,0,1,.01.539L.279.641H.269" transform="translate(40.151 80.763)"/>
          <path id="Shape-163" data-name="Shape" d="M1.828.624a.893.893,0,0,1,1.3-.485c.443.225.346.754.132,1.214A12.464,12.464,0,0,1,1.827,3.069S.215,1.814.041,1.095A.8.8,0,0,1,.848,0c.582-.031.98.623.98.623" transform="translate(12.78 32.427)" fill="#ff0e11"/>
          <path id="Shape-164" data-name="Shape" d="M1.828.624A.893.893,0,0,1,3.127.14c.443.224.346.753.132,1.213A12.455,12.455,0,0,1,1.827,3.069S.215,1.815.041,1.1A.8.8,0,0,1,.847,0c.581-.03.98.623.98.623" transform="translate(34.012 49.207)" fill="#ff0e11"/>
          <path id="Shape-165" data-name="Shape" d="M1.828.624A.893.893,0,0,1,3.128.14c.443.225.345.753.131,1.213A12.468,12.468,0,0,1,1.827,3.069S.215,1.814.041,1.1A.8.8,0,0,1,.847,0c.582-.031.98.623.98.623" transform="translate(11.805 2.807)" fill="#ff0e11"/>
        </g>
      </g>
      <g id="Element" transform="translate(0 13.143)">
        <g id="Group-6" data-name="Group" transform="translate(0 0)">
          <path id="Shape-166" data-name="Shape" d="M0,0H32.645V12.373H0Z" fill="none"/>
          <g id="Group-7" data-name="Group" clip-path="url(#clip-path-2)">
            <path id="Shape-167" data-name="Shape" d="M26.53,0a6.108,6.108,0,0,1,6.115,6.1v.169a6.108,6.108,0,0,1-6.115,6.1H6.115A6.109,6.109,0,0,1,0,6.271V6.1A6.108,6.108,0,0,1,6.115,0Z" transform="translate(0)" fill="#ff0e11"/>
          </g>
        </g>
        <path id="Shape-168" data-name="Shape" d="M6.36.283c.9.455.7,1.525.267,2.458A25.281,25.281,0,0,1,3.716,6.215S.437,3.675.083,2.218A1.612,1.612,0,0,1,1.723,0C2.906-.06,3.717,1.264,3.717,1.264A1.818,1.818,0,0,1,6.36.283Z" transform="translate(8.032 3.164)" fill="#fff"/>
        <path id="Shape-169" data-name="Shape" d="M.009.273C.188-.223,6.673.108,6.673.108S4.914,5.463,3.521,5.933C2.808,6.175,2.5,2.669,2.5,2.669S-.173.778.009.273" transform="translate(18.857 3.673)" fill="#fff"/>
        <path id="Shape-170" data-name="Shape" d="M.27,2.914a.269.269,0,0,1-.138-.5L4.119.038A.269.269,0,1,1,4.4.5L.407,2.876a.266.266,0,0,1-.138.038" transform="translate(21.033 3.677)" fill="#ff0e11"/>
        <path id="Shape-171" data-name="Shape" d="M0,.194,6.1,6.67,11.915,0Z" transform="translate(11.14 10.246)" fill="#ff0e11"/>
      </g>
    </g>
  </g>
</svg>
