<svg id="thumb-cursos" xmlns="http://www.w3.org/2000/svg" xmlns:xlink="http://www.w3.org/1999/xlink" width="200" height="200" viewBox="0 0 200 200">
  <defs>
    <clipPath id="clip-path">
      <path id="Shape" d="M0,0H17.12V4.248H0Z" fill="none"/>
    </clipPath>
  </defs>
  <rect id="BG" width="200" height="200" fill="none"/>
  <g id="E-commerce" transform="translate(19.921 23.243)">
    <g id="Element" transform="translate(0 0)">
      <g id="Group" transform="translate(0.581 1.038)">
        <path id="Shape-2" data-name="Shape" d="M0,10.786H20V0H0Z" transform="translate(81.662 81.244)"/>
        <path id="Shape-3" data-name="Shape" d="M16.657,7.666H.342A.342.342,0,0,1,0,7.324V.342A.342.342,0,0,1,.342,0H16.657A.342.342,0,0,1,17,.342V7.324A.342.342,0,0,1,16.657,7.666ZM.683.683v6.3H16.315V.683Z" transform="translate(83.323 82.492)" fill="#fff"/>
        <path id="Shape-4" data-name="Shape" d="M2.412,4.685A2.381,2.381,0,0,1,0,2.342,2.381,2.381,0,0,1,2.412,0,2.38,2.38,0,0,1,4.823,2.342,2.38,2.38,0,0,1,2.412,4.685Zm0-4A1.7,1.7,0,0,0,.683,2.342,1.7,1.7,0,0,0,2.412,4,1.7,1.7,0,0,0,4.14,2.342,1.7,1.7,0,0,0,2.412.683Z" transform="translate(89.786 84.116)" fill="#fff"/>
        <path id="Shape-5" data-name="Shape" d="M.87,1.74A.87.87,0,1,1,1.74.87.871.871,0,0,1,.87,1.74ZM.87.683A.187.187,0,1,0,1.056.87.187.187,0,0,0,.87.683Z" transform="translate(85.628 85.38)" fill="#fff"/>
        <path id="Shape-6" data-name="Shape" d="M.87,1.74A.87.87,0,1,1,1.74.87.871.871,0,0,1,.87,1.74ZM.87.683A.187.187,0,1,0,1.057.87.187.187,0,0,0,.87.683Z" transform="translate(96.49 85.38)" fill="#fff"/>
        <path id="Shape-7" data-name="Shape" d="M39.921,27c-.177,0-.492-.265-1.522-1.132-2.537-2.135-9.275-7.805-11.794-8.228a51.85,51.85,0,0,0-6.726-.657c-2.956-.139-5.092-.239-7.892-1.989-3.124-1.953-4.31-5.05-5.458-8.044A28.557,28.557,0,0,0,4.493,2.432C3.788,1.259,1.234.771.309.682A.342.342,0,0,1,0,.309.346.346,0,0,1,.374,0c.15.014,3.679.369,4.7,2.08A29.056,29.056,0,0,1,7.167,6.7c1.158,3.023,2.252,5.877,5.182,7.71,2.648,1.655,4.6,1.746,7.561,1.885a53.2,53.2,0,0,1,6.807.665c2.7.453,9.3,6.007,12.121,8.379.558.47,1.044.879,1.177.973a.337.337,0,0,1,.109.073.342.342,0,0,1,0,.484c-.074.073-.126.125-.2.125" transform="translate(22.329 82.726)"/>
        <path id="Shape-8" data-name="Shape" d="M4.613,34.783c-1.594,0-3.046-.141-3.813-.217-.169-.016-.3-.029-.372-.035a.338.338,0,0,1-.2-.016.358.358,0,0,1-.217-.406c.072-.3.254-.283.857-.223,4.529.442,7.571.17,9.041-.81a8.516,8.516,0,0,0,2.924-3.252c.889-1.542,1.658-2.875,5.783-3.25a24.34,24.34,0,0,1,4.083.2c3.4.333,7.629.746,9.221-1.376,1.09-1.453,1.072-3.921,1.056-6.1a24.849,24.849,0,0,1,.062-2.546c.077-.77.143-1.505.207-2.208.58-6.436.93-10.32,7.178-14.486A.342.342,0,1,1,40.8.626C34.824,4.61,34.5,8.16,33.924,14.6c-.063.705-.129,1.442-.207,2.215a24.341,24.341,0,0,0-.059,2.473c.016,2.285.035,4.875-1.192,6.512-1.822,2.43-6.079,2.013-9.834,1.646a24.055,24.055,0,0,0-3.955-.2c-3.773.343-4.394,1.42-5.253,2.91a9.222,9.222,0,0,1-3.138,3.479c-1.358.905-3.632,1.138-5.673,1.138" transform="translate(62.02 38.508)"/>
        <path id="Shape-9" data-name="Shape" d="M.342,32.389a.342.342,0,0,1-.222-.6l5.637-4.82a.368.368,0,0,1,.229-.082c.135,0,13.425.27,16.938-.189a5.43,5.43,0,0,0,4.669-4.048l.5-22.314A.334.334,0,0,1,28.436,0a.342.342,0,0,1,.334.349l-.5,22.349a.366.366,0,0,1-.007.063,6.213,6.213,0,0,1-5.255,4.613c-3.415.446-15.437.226-16.91.2L.564,32.308a.344.344,0,0,1-.222.082" transform="translate(61.981 84.162)"/>
        <path id="Shape-10" data-name="Shape" d="M.342,32.009a.342.342,0,0,1-.231-.594l4.852-4.44a.372.372,0,0,1,.237-.09c.134,0,13.424.27,16.937-.188a5.431,5.431,0,0,0,4.669-4.049L27.3.334A.347.347,0,0,1,27.651,0a.342.342,0,0,1,.334.349l-.5,22.348a.372.372,0,0,1-.007.063,6.214,6.214,0,0,1-5.256,4.614c-3.41.446-15.4.226-16.9.2L.572,31.919a.342.342,0,0,1-.231.089" transform="translate(33.501 23.473)"/>
        <path id="Shape-11" data-name="Shape" d="M0,10.894H19.924V0H0Z" transform="translate(42.625 30.526)"/>
        <path id="Shape-12" data-name="Shape" d="M16.657,7.666H.342A.342.342,0,0,1,0,7.324V.342A.342.342,0,0,1,.342,0H16.657A.342.342,0,0,1,17,.342V7.324A.342.342,0,0,1,16.657,7.666ZM.683.683v6.3H16.315V.683Z" transform="translate(44.174 31.904)" fill="#fff"/>
        <path id="Shape-13" data-name="Shape" d="M2.412,4.685A2.381,2.381,0,0,1,0,2.343,2.381,2.381,0,0,1,2.412,0,2.381,2.381,0,0,1,4.824,2.343,2.38,2.38,0,0,1,2.412,4.685Zm0-4A1.7,1.7,0,0,0,.683,2.343,1.7,1.7,0,0,0,2.412,4,1.7,1.7,0,0,0,4.14,2.343,1.7,1.7,0,0,0,2.412.683Z" transform="translate(50.636 33.527)" fill="#fff"/>
        <path id="Shape-14" data-name="Shape" d="M.87,1.74A.87.87,0,1,1,1.74.87.871.871,0,0,1,.87,1.74ZM.87.683A.187.187,0,1,0,1.057.87.187.187,0,0,0,.87.683Z" transform="translate(46.478 34.792)" fill="#fff"/>
        <path id="Shape-15" data-name="Shape" d="M.87,1.74A.87.87,0,1,1,1.74.87.871.871,0,0,1,.87,1.74ZM.87.683A.187.187,0,1,0,1.057.87.187.187,0,0,0,.87.683Z" transform="translate(57.34 34.792)" fill="#fff"/>
        <path id="Shape-16" data-name="Shape" d="M0,7.646H13.983V0H0Z" transform="translate(38.583 58.826)"/>
        <path id="Shape-17" data-name="Shape" d="M11.793,5.584H.342A.342.342,0,0,1,0,5.242V.342A.342.342,0,0,1,.342,0H11.793a.342.342,0,0,1,.342.342v4.9A.342.342,0,0,1,11.793,5.584ZM.683.683V4.9H11.451V.683Z" transform="translate(39.568 59.692)" fill="#fff"/>
        <path id="Shape-18" data-name="Shape" d="M1.8,3.492A1.773,1.773,0,0,1,0,1.746,1.773,1.773,0,0,1,1.8,0,1.773,1.773,0,0,1,3.59,1.746,1.773,1.773,0,0,1,1.8,3.492ZM1.8.683A1.089,1.089,0,0,0,.683,1.746,1.089,1.089,0,0,0,1.8,2.808,1.089,1.089,0,0,0,2.906,1.746,1.089,1.089,0,0,0,1.8.683Z" transform="translate(44.103 60.831)" fill="#fff"/>
        <path id="Shape-19" data-name="Shape" d="M.712,1.425A.712.712,0,1,1,1.425.712.713.713,0,0,1,.712,1.425Z" transform="translate(41.186 61.719)" fill="#fff"/>
        <path id="Shape-20" data-name="Shape" d="M.712,1.425A.712.712,0,1,1,1.425.712.713.713,0,0,1,.712,1.425Z" transform="translate(48.809 61.719)" fill="#fff"/>
        <path id="Shape-21" data-name="Shape" d="M4.391,0,27.978.133v15.3H0L.085,3.72Z" transform="translate(0 14.282)"/>
        <path id="Shape-22" data-name="Shape" d="M23.253,10.488H.342A.342.342,0,0,1,0,10.147V.342A.342.342,0,0,1,.342,0H23.253a.342.342,0,0,1,.342.342v9.8A.342.342,0,0,1,23.253,10.488ZM.683.683V9.8H22.911V.683Z" transform="translate(2.314 16.489)" fill="#fff"/>
        <path id="Shape-23" data-name="Shape" d="M3.249,6.3A3.2,3.2,0,0,1,0,3.151,3.2,3.2,0,0,1,3.249,0,3.2,3.2,0,0,1,6.5,3.151,3.2,3.2,0,0,1,3.249,6.3Zm0-5.619A2.521,2.521,0,0,0,.683,3.151,2.521,2.521,0,0,0,3.249,5.619,2.521,2.521,0,0,0,5.814,3.151,2.521,2.521,0,0,0,3.249.683Z" transform="translate(11.388 18.769)" fill="#fff"/>
        <path id="Shape-24" data-name="Shape" d="M1.084,2.167A1.084,1.084,0,1,1,2.167,1.084,1.085,1.085,0,0,1,1.084,2.167Zm0-1.484a.4.4,0,1,0,.4.4A.4.4,0,0,0,1.084.683Z" transform="translate(5.55 20.545)" fill="#fff"/>
        <path id="Shape-25" data-name="Shape" d="M1.084,2.167A1.084,1.084,0,1,1,2.167,1.084,1.085,1.085,0,0,1,1.084,2.167Zm0-1.484a.4.4,0,1,0,.4.4A.4.4,0,0,0,1.084.683Z" transform="translate(20.802 20.545)" fill="#fff"/>
        <path id="Shape-26" data-name="Shape" d="M0,3.7l4.413.06L4.281,0" transform="translate(0.106 14.282)"/>
        <path id="Shape-27" data-name="Shape" d="M0,3.7l4.413.06L4.281,0" transform="translate(0.106 14.282)" fill="rgba(255,255,255,0.15)"/>
        <path id="Shape-28" data-name="Shape" d="M16.971,9.344H.342A.342.342,0,0,1,0,9V.342A.342.342,0,0,1,.342,0H16.971a.342.342,0,0,1,.342.342V9A.342.342,0,0,1,16.971,9.344ZM.683.683V8.661H16.629V.683Z" transform="translate(5.31 78.15)"/>
        <path id="Shape-29" data-name="Shape" d="M0,2.354A2.374,2.374,0,0,1,2.394,0,2.374,2.374,0,0,1,4.787,2.354,2.374,2.374,0,0,1,2.394,4.707,2.374,2.374,0,0,1,0,2.354" transform="translate(11.573 80.469)"/>
        <path id="Shape-30" data-name="Shape" d="M16.971,9.344H.342A.342.342,0,0,1,0,9V.342A.342.342,0,0,1,.342,0h16.63a.342.342,0,0,1,.342.342V9A.342.342,0,0,1,16.971,9.344ZM.683.683V8.66H16.63V.683Z" transform="translate(102.54 33.716)"/>
        <path id="Shape-31" data-name="Shape" d="M0,2.354A2.374,2.374,0,0,1,2.394,0,2.374,2.374,0,0,1,4.787,2.354,2.374,2.374,0,0,1,2.394,4.707,2.374,2.374,0,0,1,0,2.354" transform="translate(108.803 36.034)"/>
        <path id="Shape-32" data-name="Shape" d="M16.971,9.344H.342A.342.342,0,0,1,0,9V.342A.342.342,0,0,1,.342,0H16.971a.342.342,0,0,1,.342.342V9A.342.342,0,0,1,16.971,9.344ZM.683.683V8.661H16.63V.683Z" transform="translate(20.446 0)"/>
        <path id="Shape-33" data-name="Shape" d="M0,2.353A2.374,2.374,0,0,1,2.394,0,2.374,2.374,0,0,1,4.788,2.353,2.374,2.374,0,0,1,2.394,4.707,2.374,2.374,0,0,1,0,2.353" transform="translate(26.709 2.319)"/>
        <path id="Shape-34" data-name="Shape" d="M2.684,0h9.24a2.684,2.684,0,0,1,2.684,2.685v2.7a2.684,2.684,0,0,1-2.684,2.684H2.684A2.684,2.684,0,0,1,0,5.388v-2.7A2.684,2.684,0,0,1,2.684,0" transform="translate(26.539 94.173)"/>
        <path id="Shape-35" data-name="Shape" d="M.936,0H8.544A.863.863,0,0,1,9.48.764a.863.863,0,0,1-.936.764H.936A.863.863,0,0,1,0,.764.863.863,0,0,1,.936,0" transform="translate(29.103 96.093)" fill="#fff"/>
        <path id="Shape-36" data-name="Shape" d="M.936,0H8.544A.863.863,0,0,1,9.48.764a.863.863,0,0,1-.936.764H.936A.863.863,0,0,1,0,.764.863.863,0,0,1,.936,0" transform="translate(29.103 98.798)" fill="#fff"/>
        <path id="Shape-37" data-name="Shape" d="M2.684,0h9.24a2.684,2.684,0,0,1,2.684,2.684v2.7a2.684,2.684,0,0,1-2.684,2.684H2.684A2.684,2.684,0,0,1,0,5.388v-2.7A2.684,2.684,0,0,1,2.684,0" transform="translate(55.245 17.592)"/>
        <path id="Shape-38" data-name="Shape" d="M.936,0H8.544A.863.863,0,0,1,9.48.764a.863.863,0,0,1-.936.764H.936A.863.863,0,0,1,0,.764.863.863,0,0,1,.936,0" transform="translate(57.809 19.512)" fill="#fff"/>
        <path id="Shape-39" data-name="Shape" d="M.936,0H8.544A.863.863,0,0,1,9.48.764a.863.863,0,0,1-.936.764H.936A.863.863,0,0,1,0,.764.863.863,0,0,1,.936,0" transform="translate(57.809 22.217)" fill="#fff"/>
        <path id="Shape-40" data-name="Shape" d="M.585,84.592a.342.342,0,0,1-.342-.341L0,.343A.342.342,0,0,1,.341,0h0A.342.342,0,0,1,.683.341L.927,84.249a.342.342,0,0,1-.341.343Z" transform="translate(61.94 54.991)"/>
        <path id="Shape-41" data-name="Shape" d="M5.629,27.38C1.45,27.38.512,22.8.5,22.755A.371.371,0,0,1,.5,22.7L0,.349A.342.342,0,0,1,.334,0,.355.355,0,0,1,.683.334l.5,22.317c.083.392.967,4.156,4.614,4.043,11.945-.381,42.9-.249,43.211-.249a.342.342,0,0,1,0,.683h0c-.311,0-31.252-.133-43.186.248-.062,0-.124,0-.185,0" transform="translate(13.196 28.564)"/>
        <path id="Shape-42" data-name="Shape" d="M.37,6.537A.342.342,0,0,1,.029,6.2L0,.343A.341.341,0,0,1,.34,0h0A.341.341,0,0,1,.683.34L.712,6.194a.342.342,0,0,1-.34.343Z" transform="translate(23.498 8.732)"/>
        <path id="Shape-43" data-name="Shape" d="M.341,4.387a.342.342,0,0,1-.266-.556L3.049.128a.342.342,0,1,1,.533.428L.608,4.259a.34.34,0,0,1-.267.128" transform="translate(49.679 55.188)"/>
      </g>
      <g id="Group-2" data-name="Group" transform="translate(54.611 140.543)">
        <path id="Shape-44" data-name="Shape" d="M1.029,0h13.8a1.028,1.028,0,1,1,0,2.057H1.029A1.028,1.028,0,1,1,1.029,0" transform="translate(0 0)" fill="#ff0e11"/>
        <path id="Shape-45" data-name="Shape" d="M0,.167,2.261,11.045l8.75.21L13.146,0Z" transform="translate(1.478 0.889)" fill="#ff0e11"/>
      </g>
      <g id="Group-3" data-name="Group">
        <path id="Shape-46" data-name="Shape" d="M0,4.046A4.1,4.1,0,0,1,4.159,0,4.1,4.1,0,0,1,8.317,4.046,4.1,4.1,0,0,1,4.159,8.092,4.1,4.1,0,0,1,0,4.046" transform="translate(35.584 72.321)" fill="#ffbe00"/>
        <path id="Shape-47" data-name="Shape" d="M4.5,8.773A4.45,4.45,0,0,1,0,4.387,4.45,4.45,0,0,1,4.5,0,4.45,4.45,0,0,1,9,4.387,4.45,4.45,0,0,1,4.5,8.773ZM4.5.682a3.766,3.766,0,0,0-3.817,3.7A3.766,3.766,0,0,0,4.5,8.091a3.766,3.766,0,0,0,3.817-3.7A3.766,3.766,0,0,0,4.5.682Z" transform="translate(35.243 71.98)"/>
        <path id="Shape-48" data-name="Shape" d="M0,2.513A2.55,2.55,0,0,1,2.584,0,2.55,2.55,0,0,1,5.168,2.513,2.55,2.55,0,0,1,2.584,5.027,2.55,2.55,0,0,1,0,2.513" transform="translate(37.159 73.854)" fill="#ffbe00"/>
        <path id="Shape-49" data-name="Shape" d="M2.926,5.71A2.9,2.9,0,0,1,0,2.854,2.894,2.894,0,0,1,2.926,0,2.894,2.894,0,0,1,5.852,2.854,2.894,2.894,0,0,1,2.926,5.71Zm0-5.027A2.211,2.211,0,0,0,.683,2.854,2.211,2.211,0,0,0,2.926,5.028,2.211,2.211,0,0,0,5.168,2.854,2.21,2.21,0,0,0,2.926.682Z" transform="translate(36.817 73.512)"/>
        <path id="Shape-50" data-name="Shape" d="M0,4.046A4.1,4.1,0,0,1,4.159,0,4.1,4.1,0,0,1,8.317,4.046,4.1,4.1,0,0,1,4.159,8.091,4.1,4.1,0,0,1,0,4.046" transform="translate(0.342 35.912)" fill="#ffbe00"/>
        <path id="Shape-51" data-name="Shape" d="M4.5,8.773A4.45,4.45,0,0,1,0,4.387,4.45,4.45,0,0,1,4.5,0,4.45,4.45,0,0,1,9,4.387,4.45,4.45,0,0,1,4.5,8.773ZM4.5.682a3.766,3.766,0,0,0-3.817,3.7A3.766,3.766,0,0,0,4.5,8.091a3.766,3.766,0,0,0,3.817-3.7A3.766,3.766,0,0,0,4.5.682Z" transform="translate(0 35.571)"/>
        <path id="Shape-52" data-name="Shape" d="M0,2.514A2.55,2.55,0,0,1,2.584,0,2.55,2.55,0,0,1,5.168,2.514,2.55,2.55,0,0,1,2.584,5.028,2.55,2.55,0,0,1,0,2.514" transform="translate(1.916 37.444)" fill="#ffbe00"/>
        <path id="Shape-53" data-name="Shape" d="M2.926,5.71A2.894,2.894,0,0,1,0,2.855,2.894,2.894,0,0,1,2.926,0,2.9,2.9,0,0,1,5.852,2.855,2.9,2.9,0,0,1,2.926,5.71Zm0-5.028A2.211,2.211,0,0,0,.683,2.855,2.211,2.211,0,0,0,2.926,5.028,2.211,2.211,0,0,0,5.168,2.855,2.211,2.211,0,0,0,2.926.682Z" transform="translate(1.575 37.103)"/>
        <path id="Shape-54" data-name="Shape" d="M0,4.046A4.1,4.1,0,0,1,4.159,0,4.1,4.1,0,0,1,8.317,4.046,4.1,4.1,0,0,1,4.159,8.091,4.1,4.1,0,0,1,0,4.046" transform="translate(82.61 0.341)" fill="#ffbe00"/>
        <path id="Shape-55" data-name="Shape" d="M4.5,8.773A4.45,4.45,0,0,1,0,4.387,4.45,4.45,0,0,1,4.5,0,4.45,4.45,0,0,1,9,4.387,4.45,4.45,0,0,1,4.5,8.773ZM4.5.682a3.766,3.766,0,0,0-3.817,3.7A3.766,3.766,0,0,0,4.5,8.091a3.766,3.766,0,0,0,3.817-3.7A3.766,3.766,0,0,0,4.5.682Z" transform="translate(82.268 0)"/>
        <path id="Shape-56" data-name="Shape" d="M0,2.514A2.55,2.55,0,0,1,2.584,0,2.55,2.55,0,0,1,5.169,2.514,2.55,2.55,0,0,1,2.584,5.028,2.55,2.55,0,0,1,0,2.514" transform="translate(84.184 1.872)" fill="#ffbe00"/>
        <path id="Shape-57" data-name="Shape" d="M2.926,5.71A2.9,2.9,0,0,1,0,2.855,2.9,2.9,0,0,1,2.926,0,2.894,2.894,0,0,1,5.852,2.855,2.894,2.894,0,0,1,2.926,5.71Zm0-5.028A2.211,2.211,0,0,0,.683,2.855,2.211,2.211,0,0,0,2.926,5.028,2.211,2.211,0,0,0,5.168,2.855,2.211,2.211,0,0,0,2.926.682Z" transform="translate(83.842 1.531)"/>
      </g>
      <g id="Group-4" data-name="Group" transform="translate(55.073 73.322)">
        <path id="Shape-58" data-name="Shape" d="M4.93.01c.117-.349-7.71,8.132-3.868,9.462C3.283,10.241,4.476,1.362,4.93.01" transform="translate(0.343 0.33)" fill="#00b2b2"/>
        <path id="Shape-59" data-name="Shape" d="M1.674,10.19a1.151,1.151,0,0,1-.381-.066c-.865-.3-1.746-1.094-1.03-3.18a11.6,11.6,0,0,1,.988-1.983c.437-.734.963-1.525,1.521-2.287C3.96,1.05,4.965,0,5.33,0a.157.157,0,0,1,.051.008A.353.353,0,0,1,5.6.45c-.091.272-.226.926-.382,1.682-.738,3.567-1.574,7.116-2.948,7.9A1.19,1.19,0,0,1,1.674,10.19ZM4.659,1.444A29.369,29.369,0,0,0,2.032,4.928,12.1,12.1,0,0,0,1,6.906,3.356,3.356,0,0,0,.7,8.571a1.087,1.087,0,0,0,.812.909.466.466,0,0,0,.412-.046c1.223-.694,2.13-5.084,2.617-7.442C4.59,1.776,4.626,1.6,4.659,1.444Z" transform="translate(0 0)"/>
        <path id="Shape-60" data-name="Shape" d="M.094.007C-.042-.334-.517,11.2,3.272,9.723,5.462,8.871.623,1.331.094.007" transform="translate(11.972 21.802)" fill="#00b2b2"/>
        <path id="Shape-61" data-name="Shape" d="M3,10.536a1.672,1.672,0,0,1-1.083-.4A3.646,3.646,0,0,1,.925,8.624C.084,6.48-.341.29.334.023A.329.329,0,0,1,.455,0,.356.356,0,0,1,.784.22c.1.255.394.791.764,1.469l.033.061c1.747,3.2,3.407,6.441,2.866,7.927a1.156,1.156,0,0,1-.678.7A2.142,2.142,0,0,1,3,10.536ZM.714,1.585A29.3,29.3,0,0,0,.966,5.94a12.1,12.1,0,0,0,.491,2.178,3.359,3.359,0,0,0,.856,1.46,1.033,1.033,0,0,0,.694.275,1.413,1.413,0,0,0,.515-.108.467.467,0,0,0,.285-.3C4.288,8.123,2.138,4.19.983,2.077L.714,1.585Z" transform="translate(11.598 21.463)"/>
      </g>
    </g>
    <g id="Сharacter" transform="translate(67.199 5.011)">
      <path id="Shape-62" data-name="Shape" d="M36.665,25.333c-2.531,5.853-8.827-8.347-13.659-12.058C15.882,7.8,9.139,20.359,9.139,20.359S-1.649,5.553.217,4.678C6.882,1.55,11.949-1.442,20.174.755c10.808,2.888,20.25,15.883,16.491,24.578" transform="translate(29.663 9.945)" fill="#ffbe00"/>
      <path id="Shape-63" data-name="Shape" d="M8.011,0C5.724,2.773-.568,5.048.041,5.684S2.148,5,2.976,4.7C1.4,7.248-.05,8.887.293,9.273s.781-.193,2.452-1.787C1.62,10,1.4,10,1.641,10.2c.544.458.91.082,2.571-2.1-1.225,2.74-1.951,2.462-1.447,2.913s.6-.1,2.339-2.662c-.742,1.678.712.659,2.22-2.226C7.776,5.258,9.247,3.681,9.51,2.88,10.128.993,9.428,1.044,8.011,0" transform="translate(24.963 17.379)" fill="#fff"/>
      <path id="Shape-64" data-name="Shape" d="M3.382,11.835a.773.773,0,0,1-.5-.229.6.6,0,0,1-.263-.593.848.848,0,0,1-.167.036.786.786,0,0,1-.087,0,.936.936,0,0,1-.6-.253c-.353-.3-.216-.568.084-1.162.038-.076.085-.167.137-.273-.508.478-.807.705-1.126.705H.837a.634.634,0,0,1-.458-.23c-.4-.452.078-1.149,1.127-2.677.237-.345.515-.749.811-1.194a3.4,3.4,0,0,1-1.51.571.883.883,0,0,1-.67-.28.474.474,0,0,1-.13-.408C.076,5.388.792,4.974,2.55,4,4.37,2.992,6.862,1.611,8.089.124A.342.342,0,0,1,8.555.066c.251.185.479.335.681.467l0,0c1.029.676,1.5,1.077.937,2.792A8.447,8.447,0,0,1,8.923,5.26a11.883,11.883,0,0,0-.955,1.361,18.931,18.931,0,0,1-.993,1.659,7.76,7.76,0,0,1-.847,1.072,1.3,1.3,0,0,1-.8.483.389.389,0,0,1-.17-.038l-.029-.015c-.169.259-.317.487-.414.637h0c-.655,1.015-.876,1.357-1.255,1.408A.545.545,0,0,1,3.382,11.835ZM4.552,8.1a.343.343,0,0,1,.313.481,9.536,9.536,0,0,1-1.455,2.434l-.072.088.04.033a7.76,7.76,0,0,0,.749-1.064l.013-.02c.275-.427.6-.934,1.023-1.552a.342.342,0,0,1,.622.226A12.382,12.382,0,0,0,7.363,6.3a11.985,11.985,0,0,1,1.01-1.45l.007-.009,0,0A8.664,8.664,0,0,0,9.527,3.114c.424-1.294.237-1.417-.662-2.007-.15-.1-.3-.2-.458-.307A23.14,23.14,0,0,1,2.882,4.6h0l0,0A18.055,18.055,0,0,0,.8,5.854H.833a3.447,3.447,0,0,0,1.31-.576l0,0,.092-.054.007,0a6.233,6.233,0,0,1,.956-.5.341.341,0,0,1,.4.5c-.555.9-1.1,1.691-1.538,2.329l0,0A12.1,12.1,0,0,0,.943,9.364,11.229,11.229,0,0,0,2.066,8.339l.012-.012c.214-.209.474-.462.773-.747a.339.339,0,0,1,.235-.095.342.342,0,0,1,.312.482C2.935,9,2.612,9.64,2.456,9.947l-.039.078c-.062.123-.115.229-.148.3a.2.2,0,0,0,.1.042h.009c.308-.034,1.157-1.152,1.907-2.138A.339.339,0,0,1,4.552,8.1Z" transform="translate(24.622 17.037)"/>
      <path id="Shape-65" data-name="Shape" d="M7.637,0S20.163,5.495,23.753,6.037c0,0-8.088,30.654-9.257,35.6-.4,1.674,1.239,11.894,1.365,17.623.247,11.187-.561,20.258-.561,20.258s-11.946.723-14.508-.14,1.69-2.32,4.259-2.7,3.86-1.9,3.951-3.836c.376-8.033-6.615-23.457-5.968-32.024C3.856,29.934,7.637,0,7.637,0" transform="translate(55.379 68.142)" fill="#fff"/>
      <path id="Shape-66" data-name="Shape" d="M6.873,80.484a23.5,23.5,0,0,1-5.849-.443C.309,79.8-.035,79.46,0,79.028c.115-1.307,4.241-2.187,5.339-2.351C7.579,76.344,8.913,75.063,9,73.164,9.181,69.351,7.69,63.9,6.111,58.127v0C4.431,51.982,2.695,45.632,3.035,41.13,3.811,30.862,7.244,3.439,7.633.346L7.639.3A.343.343,0,0,1,7.81.044.347.347,0,0,1,7.979,0a.34.34,0,0,1,.136.028c.512.224,12.571,5.49,16.031,6.013a.341.341,0,0,1,.279.425c-.08.3-8.1,30.7-9.255,35.589-.193.813.162,4.1.537,7.583v.012c.363,3.362.774,7.173.835,9.941.244,11.067-.554,20.207-.562,20.3a.344.344,0,0,1-.32.311C15.173,80.229,10.779,80.484,6.873,80.484ZM8.26.837C7.876,3.9,4.48,31.069,3.716,41.181c-.331,4.388,1.39,10.68,3.054,16.765,1.593,5.827,3.1,11.33,2.914,15.249-.106,2.256-1.652,3.772-4.242,4.158C2.958,77.724.718,78.7.683,79.088h0c.021.035.124.159.558.305a22.657,22.657,0,0,0,5.535.406c3.514,0,7.432-.2,8.549-.267.128-1.581.755-9.972.535-19.926-.06-2.742-.47-6.536-.831-9.884-.461-4.277-.733-6.944-.524-7.826C15.639,37.1,23.343,7.891,23.67,6.65a59.552,59.552,0,0,1-8.247-2.83C12.311,2.584,9.377,1.322,8.26.837Z" transform="translate(55.037 67.8)"/>
      <path id="Shape-67" data-name="Shape" d="M15.467,9.649S27.362,2.777,29.7,0c0,0-16.484,39.989-12.887,43.575,1.218,1.214,8.128,5.517,13.072,8.41,9.655,5.647,16.955,11.085,16.955,11.085S41.2,73.632,39.128,75.364s-1.091-2.656-.071-5.045.4-4.286-1.2-5.377c-6.642-4.527-28.829-8-35.785-13.035-8.833-6.4,13.392-42.257,13.392-42.257" transform="translate(44.966 62.191)" fill="#fff"/>
      <path id="Shape-68" data-name="Shape" d="M38.681,76.443a.663.663,0,0,1-.406-.135c-1.055-.785.358-4.761.795-5.782.887-2.082.5-3.89-1.076-4.96-3.153-2.15-9.816-4.045-16.871-6.051h0c-7.5-2.135-15.265-4.342-18.92-6.989C-6.787,46.014,14.589,11.286,15.5,9.811a.341.341,0,0,1,.12-.116c.029-.017,2.991-1.73,6.264-3.8,1.877-1.187,3.468-2.246,4.729-3.148A19.088,19.088,0,0,0,29.771.122.34.34,0,0,1,30.032,0a.341.341,0,0,1,.316.472c-6.591,15.989-15.482,40.689-12.962,43.2,1.125,1.12,7.625,5.21,13,8.357,9.408,5.5,16.681,10.879,16.986,11.1h0a.344.344,0,0,1,.1.435c-.156.291-1.567,2.923-3.2,5.7-.957,1.631-1.807,3-2.528,4.077a13.885,13.885,0,0,1-2.073,2.616A1.677,1.677,0,0,1,38.681,76.443ZM29.114,1.692C25.5,4.733,17,9.688,16.039,10.243A191.716,191.716,0,0,0,6.094,28.867C.347,41.474-.861,49.463,2.6,51.971c3.558,2.577,11.26,4.768,18.707,6.887h0C28.42,60.879,35.135,62.789,38.379,65c1.866,1.271,2.347,3.383,1.32,5.793-.986,2.313-1.33,4.731-1.015,4.966h0c.04,0,.2-.023.552-.317,1.812-1.512,6.56-10.2,7.493-11.932-1.277-.935-8.082-5.857-16.686-10.89C25.367,49.885,18.2,45.45,16.9,44.158c-.594-.592-2.4-2.392,5.013-23.487C24.743,12.63,27.891,4.72,29.114,1.692Z" transform="translate(44.639 61.849)"/>
      <path id="Shape-69" data-name="Shape" d="M.89,1.572c-.5,1.982,2.34,4.017,2.217,7.356-.054,1.505-2.6,4.89-2.9,6.44-.606,3.116.279,4.112.434,5.1a15.839,15.839,0,0,1,1.8-2.5c.846-.306,2.363,3.2,3.052,2.662.858-.67,3.255-1.409,4.146-2.018,1.075-.734-.28-5.7.7-6.55.406-.354,3.277,1.208,3.052.71-.919-2.041-4.745-3.414-7.128-5.7s-3.7-7.03-3.7-7.03S1.393-.41.89,1.572" transform="translate(59.825 22.245)" fill="#fff"/>
      <path id="Shape-70" data-name="Shape" d="M5.682,21.376A.609.609,0,0,1,5.6,21.37c-.459-.063-.869-.588-1.5-1.441-.31-.419-.956-1.291-1.193-1.291h0l-.01.011a17.727,17.727,0,0,0-1.561,2.262l0,0A.406.406,0,0,1,1,21.156a.381.381,0,0,1-.073-.007.343.343,0,0,1-.274-.283,4.459,4.459,0,0,0-.2-.7l0-.011a7.676,7.676,0,0,1-.23-4.508,12.938,12.938,0,0,1,1.408-3.032A11.057,11.057,0,0,0,3.107,9.258,8.043,8.043,0,0,0,1.8,5.07C1.2,3.955.628,2.9.9,1.83A2.43,2.43,0,0,1,1.99.154,1.359,1.359,0,0,1,2.617,0a1.234,1.234,0,0,1,.416.068A.345.345,0,0,1,3.239.3a24.091,24.091,0,0,0,.952,2.631,18.878,18.878,0,0,0,1.131,2.25A9.588,9.588,0,0,0,6.848,7.171a21.674,21.674,0,0,0,3.4,2.483h0c1.658,1.055,3.224,2.052,3.8,3.326a.4.4,0,0,1-.374.582,4.428,4.428,0,0,1-1.231-.378A8.079,8.079,0,0,0,10.9,12.7h-.019c-.318.365-.234,1.841-.173,2.918v.005c.1,1.684.18,3.138-.529,3.621a12.817,12.817,0,0,1-1.974.947,11.467,11.467,0,0,0-2.155,1.058A.588.588,0,0,1,5.682,21.376ZM2.907,17.952c.573,0,1.112.728,1.736,1.57l.008.011a5.174,5.174,0,0,0,1.011,1.152,12.25,12.25,0,0,1,2.279-1.126h0a12.785,12.785,0,0,0,1.852-.88c.389-.266.3-1.856.232-3.018v-.01c-.091-1.594-.169-2.971.436-3.5a.6.6,0,0,1,.42-.138,6.167,6.167,0,0,1,1.807.531c.108.042.25.1.387.147a13.222,13.222,0,0,0-3.192-2.462,22.207,22.207,0,0,1-3.51-2.567A12.87,12.87,0,0,1,3.8,3.751,24.9,24.9,0,0,1,2.64.683H2.617a.693.693,0,0,0-.325.084A1.867,1.867,0,0,0,1.563,2c-.207.811.278,1.706.838,2.743l0,0A8.6,8.6,0,0,1,3.79,9.282a10.684,10.684,0,0,1-1.569,3.662l0,.007A13.045,13.045,0,0,0,.886,15.776a7.082,7.082,0,0,0,.207,4.158l.008.024.008.024c1.194-1.853,1.425-1.937,1.563-1.988A.687.687,0,0,1,2.907,17.952Z" transform="translate(59.483 21.903)"/>
      <path id="Shape-71" data-name="Shape" d="M.053,2.361a60.445,60.445,0,0,0,4.2,9.609,3.1,3.1,0,0,0,4,1A2.99,2.99,0,0,0,9.9,9.13,59.745,59.745,0,0,0,6.461,1.563,3.371,3.371,0,0,0,3.437.036C2.1.28-.4,1.074.053,2.361" transform="translate(53.999 14.03)" fill="#fff"/>
      <path id="Shape-72" data-name="Shape" d="M7.076,13.991A3.212,3.212,0,0,1,4.313,12.5,60.663,60.663,0,0,1,.072,2.815a1.219,1.219,0,0,1,.1-1.043C.847.617,3.243.128,3.716.041A2.551,2.551,0,0,1,4.172,0,3.152,3.152,0,0,1,6.049.689,5.408,5.408,0,0,1,7.072,1.7,59.508,59.508,0,0,1,10.56,9.353a3.314,3.314,0,0,1-1.823,4.27A4.044,4.044,0,0,1,7.076,13.991ZM4.171.684a1.847,1.847,0,0,0-.332.03c-1.215.221-2.7.753-3.073,1.4a.533.533,0,0,0-.049.474,59.889,59.889,0,0,0,4.166,9.534A2.521,2.521,0,0,0,7.072,13.3,3.45,3.45,0,0,0,8.454,13,2.651,2.651,0,0,0,9.92,9.59,59.86,59.86,0,0,0,6.532,2.114,3.415,3.415,0,0,0,4.171.684Z" transform="translate(53.658 13.688)"/>
      <path id="Shape-73" data-name="Shape" d="M.64,2.2a.547.547,0,0,1-.33-.108C-.244,1.688.1.4.169.217A.341.341,0,1,1,.805.467,2.362,2.362,0,0,0,.7,1.487,1.073,1.073,0,0,0,.87,1.37a.342.342,0,0,1,.436.527,1.077,1.077,0,0,1-.666.3Z" transform="translate(57.86 20.436)"/>
      <path id="Shape-74" data-name="Shape" d="M.106.353A.25.25,0,0,1,.214.017.25.25,0,0,1,.533.166.251.251,0,0,1,.425.5.249.249,0,0,1,.106.353" transform="translate(58.985 19.603)" fill="#24160c"/>
      <path id="Shape-75" data-name="Shape" d="M.1.353A.251.251,0,0,1,.213.018a.25.25,0,0,1,.32.148A.25.25,0,0,1,.425.5.25.25,0,0,1,.1.353" transform="translate(56.793 20.454)" fill="#24160c"/>
      <path id="Shape-76" data-name="Shape" d="M.106.353A.25.25,0,0,1,.214.017.25.25,0,0,1,.533.166.251.251,0,0,1,.425.5.249.249,0,0,1,.106.353" transform="translate(58.985 19.603)" fill="#24160c"/>
      <path id="Shape-77" data-name="Shape" d="M.1.353A.251.251,0,0,1,.213.018a.25.25,0,0,1,.32.148A.25.25,0,0,1,.425.5.25.25,0,0,1,.1.353" transform="translate(56.793 20.454)" fill="#24160c"/>
      <path id="Shape-78" data-name="Shape" d="M1.046,1.094l.044-.041" transform="translate(63.119 20.843)" fill="#24160c"/>
      <path id="Shape-79" data-name="Shape" d="M.665,1.51C1.655,1.393,1.384-.054.509,0A.654.654,0,0,0,0,.321" transform="translate(61.98 19.697)" fill="#fff"/>
      <path id="Shape-80" data-name="Shape" d="M1.006,2.194a.342.342,0,0,1-.04-.682.338.338,0,0,0,.327-.4A.436.436,0,0,0,.873.685.318.318,0,0,0,.634.839.341.341,0,1,1,.049.486.986.986,0,0,1,.829,0,1.09,1.09,0,0,1,1.974,1.048a1.015,1.015,0,0,1-.928,1.144l-.041,0" transform="translate(61.639 19.355)"/>
      <path id="Shape-81" data-name="Shape" d="M.657,1.079l-.4-.053" transform="translate(52.061 40.625)" fill="#0a0704"/>
      <path id="Shape-82" data-name="Shape" d="M.106.353A.25.25,0,0,1,.214.017.25.25,0,0,1,.533.166.251.251,0,0,1,.425.5.249.249,0,0,1,.106.353" transform="translate(58.985 19.603)"/>
      <path id="Shape-83" data-name="Shape" d="M.1.353A.251.251,0,0,1,.213.018a.25.25,0,0,1,.32.148A.25.25,0,0,1,.425.5.25.25,0,0,1,.1.353" transform="translate(56.793 20.454)"/>
      <path id="Shape-84" data-name="Shape" d="M1.046,1.094l.044-.041" transform="translate(63.119 20.843)" fill="#24160c"/>
      <path id="Shape-85" data-name="Shape" d="M9.4.256c-3.069.855-6.539,3.626-7.3,5.243C.585,8.7-.511,13.125.246,15.645,1.585,20.1,2.332,18.638,4.431,23.5c.059.138,16.484-3.693,16.484-3.693s1.32-16.533-8.7-19.649A5.044,5.044,0,0,0,9.4.256" transform="translate(56.868 30.572)" fill="#ffbe00"/>
      <path id="Shape-86" data-name="Shape" d="M37.378,0c-1.122.3-13.04,3.342-17.5,5.014C17.513,9.256,6.824,19.576,2.212,31.858-1.455,41.621.543,54.274.543,54.274S34.271,59.4,37,56.838s-2.721-10.589.811-21.554S45.247,20.4,43.792,11.565A22.01,22.01,0,0,0,37.378,0" transform="translate(40.405 52.327)" fill="#00b2b2"/>
      <path id="Shape-87" data-name="Shape" d="M.657,1.079l-.4-.053" transform="translate(52.061 40.625)" fill="#0a0704"/>
      <path id="Shape-88" data-name="Shape" d="M15.65.106c-3.287-.649-10,1.82-12.91,3.926L4.491,3.88C2.324,5.946-.219,8.207.015,8.668s2.161-1.776,4.18-2.9C2.472,7.921.568,9.816.749,10.072c.412.581,2.157-1.695,4.313-3.39-1.876,2.343-3.528,4.194-3.3,4.343C2.34,11.4,3.554,9.4,5.884,7.362c-1.14,1.437-3.46,4.229-2.9,4.481C3.334,12,6.155,8.762,8.342,6.35,9,5.628,11.785,4.373,16.907,3.561S18.937.754,15.65.106" transform="translate(26.219 54.761)" fill="#fff"/>
      <path id="Shape-89" data-name="Shape" d="M3.36,12.538a.4.4,0,0,1-.171-.04.477.477,0,0,1-.272-.331,1.368,1.368,0,0,1,.242-.891,1.459,1.459,0,0,1-.9.486.614.614,0,0,1-.342-.107.44.44,0,0,1-.171-.268c-.034-.223.106-.488.6-1.133-.5.428-.8.6-1.074.6l-.06,0a.548.548,0,0,1-.4-.234c-.259-.365.048-.74,1.54-2.45l.074-.085L2.5,8c-.142.117-.276.231-.425.356C1.2,9.089.8,9.414.464,9.414a.489.489,0,0,1-.1-.01.443.443,0,0,1-.312-.238C-.221,8.625.5,7.839,3.516,5l.228-.214.145-.137-.776.068H3.088a.337.337,0,0,1-.325-.222.342.342,0,0,1,.12-.4A24.138,24.138,0,0,1,8.4,1.356,19.963,19.963,0,0,1,14.765,0a6.742,6.742,0,0,1,1.3.114c1.482.292,4.278,1.189,4.254,2.493-.015.781-1,1.316-3.01,1.635-5.086.806-7.79,2.045-8.366,2.681-.352.387-.72.8-1.067,1.183C4.593,11.751,3.792,12.538,3.36,12.538ZM6.227,7.363a.342.342,0,0,1,.268.555l-.38.475L6.11,8.4c-.554.692-1.705,2.132-2.238,3,.835-.794,2.3-2.42,3.473-3.726l.018-.02.178-.2c.31-.344.6-.669.891-.988.794-.876,3.811-2.111,8.765-2.9,2.356-.373,2.433-.912,2.434-.972.008-.449-1.4-1.355-3.7-1.81a6.1,6.1,0,0,0-1.167-.1A17.276,17.276,0,0,0,9.5,1.705,28.41,28.41,0,0,0,4.44,3.915L4.8,3.883l.033,0a.337.337,0,0,1,.308.2.343.343,0,0,1-.076.388c-.339.323-.69.654-1.03.975L3.985,5.5c-.818.769-1.937,1.823-2.63,2.568L1.6,7.857l.032-.026.007-.006a18.169,18.169,0,0,1,2.731-2.01.343.343,0,0,1,.166-.043.341.341,0,0,1,.266.556c-.674.841-1.374,1.642-1.935,2.285-.371.424-.7.8-.964,1.123.326-.281.715-.654,1.027-.954l.016-.015C3.612,8.131,4.366,7.41,5.2,6.757a.345.345,0,0,1,.212-.073.341.341,0,0,1,.266.555C5.2,7.83,4.735,8.4,4.324,8.9l-.1.123-.017.02c-.341.415-.695.845-.991,1.217.125-.132.263-.281.436-.469A30.838,30.838,0,0,1,6,7.448.342.342,0,0,1,6.227,7.363Z" transform="translate(25.875 54.418)"/>
      <path id="Shape-90" data-name="Shape" d="M21.989,1.225c-3.156,3.5-2.32,8.227-5.292,11.515C11.186,18.833,0,21.9,0,21.9S11.948,36.67,15.318,35.086C18.983,33.363,30.76,9.2,31.2,5.595c.605-5-6.709-7.143-9.207-4.37" transform="translate(38.9 31.191)" fill="#ffbe00"/>
      <g id="Group-5" data-name="Group" transform="translate(54.379 144.256)">
        <path id="Shape-91" data-name="Shape" d="M0,0H17.12V4.248H0Z" transform="translate(0 0)" fill="none"/>
        <g id="Group-6" data-name="Group" transform="translate(0 0)" clip-path="url(#clip-path)">
          <path id="Shape-92" data-name="Shape" d="M17.12,4.249l-.028-1.6-10.135-.1S6.576.623,5.737.137,3.6.607,3.6.607l.824,2.05a18.115,18.115,0,0,0-3.856.306A.79.79,0,0,0,.146,4.178Z" transform="translate(0 0)"/>
        </g>
      </g>
      <path id="Shape-93" data-name="Shape" d="M10.184.813,8.81,0,3.416,8.587S1.577,7.9.724,8.364.008,10.428.008,10.428l2.178.372A18.106,18.106,0,0,0,.427,14.246a.789.789,0,0,0,.81,1Z" transform="translate(82.775 124.192)"/>
      <path id="Shape-94" data-name="Shape" d="M0,7.9,1.62,3.055,17.348,0a5.309,5.309,0,0,1,.97,1.692,9.913,9.913,0,0,1,.4,2.328Z" transform="translate(60.48 49.786)"/>
      <path id="Shape-95" data-name="Shape" d="M.342,12.889a.341.341,0,0,1-.33-.432C.2,11.761.475,10.944.79,10,1.683,7.32,2.907,3.651,2.924.34A.342.342,0,0,1,3.266,0h0a.341.341,0,0,1,.34.343c-.018,3.421-1.261,7.149-2.169,9.871-.312.936-.582,1.745-.767,2.423a.342.342,0,0,1-.33.252" transform="translate(61.594 42.046)"/>
      <path id="Shape-96" data-name="Shape" d="M0,3.117l0-2.2L5.536,0,7.229,1.613a36.751,36.751,0,0,1-3.7,1.172A16.231,16.231,0,0,1,0,3.117" transform="translate(62.481 29.042)"/>
      <path id="Shape-97" data-name="Shape" d="M0,3.959c-.006,7.251,6.676.756,8.63.634,1.163-.072,3.407,2.84,4.169.777.666-1.8-1.871-4.772-3.472-5.2C6.591-.555,0,1.081,0,3.959" transform="translate(50.091 12.277)"/>
      <path id="Shape-98" data-name="Shape" d="M.072,4.91A4.2,4.2,0,0,1,3.314.065a3.877,3.877,0,0,1,4.7,3.226A3.926,3.926,0,0,1,4.8,7.806,3.924,3.924,0,0,1,.072,4.91" transform="translate(58.823 5.378)"/>
      <path id="Shape-99" data-name="Shape" d="M.826.819.969.554" transform="translate(66.629 0.2)" fill="#0a0704"/>
      <path id="Shape-100" data-name="Shape" d="M5.136,2.269c.2-.767.436-1.507-.471-1.786-.967-.3-1.752.9-1.752.9S3.136.164,2.541.041C.065-.471-.986,3.916,1.156,5.567,5.843,9.179,8.341.853,5.136,2.269" transform="translate(63.934 0)"/>
      <path id="Shape-101" data-name="Shape" d="M7.554,4.306a.335.335,0,0,1-.181-.052l-.689-.431C3.958,2.111,2.312,1.079.275.677A.342.342,0,0,1,.408.007c2.16.426,3.846,1.483,6.64,3.236l.689.431a.342.342,0,0,1-.182.632" transform="translate(60.707 106.163)"/>
      <path id="Shape-102" data-name="Shape" d="M2.927,1.048A11.143,11.143,0,0,1,.263.674.342.342,0,0,1,.421.009,8.989,8.989,0,0,0,4.358.238a.342.342,0,1,1,.112.674,9.277,9.277,0,0,1-1.543.136" transform="translate(77.246 76.493)"/>
      <path id="Shape-103" data-name="Shape" d="M14.366,29.369a13.67,13.67,0,0,1-4.79-.87,14.355,14.355,0,0,1-4.186-2.438,14.822,14.822,0,0,1-3.211-3.75A15.155,15.155,0,0,1,.312,17.506,14.924,14.924,0,0,1,2.287,6.5,13.676,13.676,0,0,1,18.726.87a14.358,14.358,0,0,1,4.187,2.438,14.825,14.825,0,0,1,3.212,3.75,15.15,15.15,0,0,1,1.865,4.8,14.926,14.926,0,0,1-1.974,11.01,13.718,13.718,0,0,1-11.65,6.5ZM13.936.684A13.033,13.033,0,0,0,2.864,6.862,14.245,14.245,0,0,0,.982,17.37,14.473,14.473,0,0,0,2.76,21.953,14.143,14.143,0,0,0,5.82,25.53a13.674,13.674,0,0,0,3.987,2.326,13.007,13.007,0,0,0,15.632-5.349A14.245,14.245,0,0,0,27.321,12a14.477,14.477,0,0,0-1.778-4.583,14.145,14.145,0,0,0-3.059-3.577A13.671,13.671,0,0,0,18.5,1.513,12.992,12.992,0,0,0,13.936.684Z" transform="translate(13.728 24.879)"/>
      <path id="Shape-104" data-name="Shape" d="M13.9,14.088S18.96.806,25.982.013c4.083-.462,16.061,11.4,16.061,11.4L27.935,26.926,3.66,23.515.014,26.581,0,17.851l3.237,2.22,16.791.85Z" transform="translate(0 35.155)"/>
      <path id="Shape-105" data-name="Shape" d="M5.649,0C4.257.421,2.379,1.416,1.33,1.6S-.17,1.951.058,2.708s2.948.2,2.948.2" transform="translate(27.907 56.504)" fill="#fff"/>
      <path id="Shape-106" data-name="Shape" d="M1.609,3.794c-.726,0-1.386-.147-1.537-.646a1.06,1.06,0,0,1,.05-.9c.246-.4.8-.525,1.489-.647a12.736,12.736,0,0,0,2.215-.8c.7-.3,1.428-.6,2.065-.793a.342.342,0,0,1,.2.654c-.6.182-1.312.481-2,.769a13.036,13.036,0,0,1-2.362.841c-.3.053-.921.162-1.025.333-.047.077-.006.246.022.339a4.446,4.446,0,0,0,2.553-.036.342.342,0,0,1,.137.67,9.586,9.586,0,0,1-1.807.21" transform="translate(27.565 56.163)"/>
      <path id="Shape-107" data-name="Shape" d="M.125,2.157,1.3.348a.766.766,0,0,1,1.283.838L1.407,2.995A.766.766,0,1,1,.125,2.157" transform="translate(24.934 23.804)" fill="#fff"/>
      <path id="Shape-108" data-name="Shape" d="M1.105,4.026A1.109,1.109,0,0,1,.181,2.311L1.36.5a1.1,1.1,0,0,1,.7-.479A1.13,1.13,0,0,1,2.288,0a1.108,1.108,0,0,1,.928,1.714L2.035,3.523a1.1,1.1,0,0,1-.7.479A1.139,1.139,0,0,1,1.105,4.026ZM2.288.683a.427.427,0,0,0-.356.193L.752,2.685a.424.424,0,0,0,.443.648.422.422,0,0,0,.268-.183L2.643,1.34A.426.426,0,0,0,2.519.753.42.42,0,0,0,2.288.683Z" transform="translate(24.592 23.463)"/>
      <path id="Shape-109" data-name="Shape" d="M.125,2.157,1.3.348a.766.766,0,0,1,1.283.838L1.408,2.994A.766.766,0,1,1,.125,2.157" transform="translate(26.288 24.481)" fill="#fff"/>
      <path id="Shape-110" data-name="Shape" d="M1.106,4.025A1.107,1.107,0,0,1,.18,2.312L1.359.5A1.108,1.108,0,0,1,3.214,1.713L2.035,3.522A1.1,1.1,0,0,1,1.106,4.025ZM2.287.683a.422.422,0,0,0-.356.193L.752,2.685a.425.425,0,0,0,.711.465L2.642,1.34a.426.426,0,0,0,.06-.32A.425.425,0,0,0,2.287.683Z" transform="translate(25.947 24.139)"/>
      <path id="Shape-111" data-name="Shape" d="M.124,2.157,1.3.348a.766.766,0,1,1,1.283.837L1.407,2.994A.766.766,0,1,1,.124,2.157" transform="translate(27.542 25.442)" fill="#fff"/>
      <path id="Shape-112" data-name="Shape" d="M1.1,4.026A1.109,1.109,0,0,1,.179,2.312L1.359.5A1.107,1.107,0,1,1,3.213,1.714L2.034,3.522a1.1,1.1,0,0,1-.7.48A1.139,1.139,0,0,1,1.1,4.026ZM2.288.683A.426.426,0,0,0,1.93.876L.752,2.685a.424.424,0,0,0,.355.657.412.412,0,0,0,.087-.009.418.418,0,0,0,.268-.183L2.642,1.34A.424.424,0,0,0,2.288.683Z" transform="translate(27.201 25.101)"/>
    </g>
  </g>
</svg>
