<svg xmlns="http://www.w3.org/2000/svg" xmlns:xlink="http://www.w3.org/1999/xlink" width="470" height="420" viewBox="0 0 470 420">
  <defs>
    <clipPath id="clip-path">
      <path id="Shape" d="M0,0H43.515V48.224H0Z" fill="none"/>
    </clipPath>
  </defs>
  <g id="Analytic" transform="translate(0 -0.49)">
    <g id="Сharacter" transform="translate(121.795 77.899)">
      <g id="Сharacter-2" data-name="Сharacter" transform="translate(0 0)">
        <g id="Group" transform="translate(108.773 195.911)">
          <path id="Shape-2" data-name="Shape" d="M.009,12.662C.419,4.813,14.808-.825,32.141.1s31.054,8.02,30.641,15.882S47.984,29.47,30.65,28.545-.4,20.524.009,12.662" transform="translate(0 0)"/>
          <path id="Shape-3" data-name="Shape" d="M.8,61.438l-.063,0A.8.8,0,0,1,0,60.574L4.614.739A.832.832,0,0,1,5.473,0a.8.8,0,0,1,.736.862L1.6,60.7a.8.8,0,0,1-.8.741" transform="translate(27.295 30.125)"/>
          <path id="Shape-4" data-name="Shape" d="M.006,8.526C.284,3.24,9.954-.544,21.607.064S42.479,5.464,42.2,10.75s-9.945,9.058-21.6,8.45S-.27,13.8.006,8.526" transform="translate(7.041 86.021)"/>
        </g>
        <g id="Group-2" data-name="Group">
          <path id="Shape-5" data-name="Shape" d="M5.475,35.069c-.046.157-7.51,12.737-4.934,13.22C9.915,50.04,19.356,51.453,28.811,52.7c.911.121,2.512.567,2.738-.314C35.768,35.733,42.055,7.12,41.79,6.806,38.227,2.6,35.631-1.5,31.88.54,19.461,7.265,9.153,22.815,5.475,35.069" transform="translate(55.224 65.042)" fill="#fff"/>
          <path id="Shape-6" data-name="Shape" d="M31.333,54.525a8.3,8.3,0,0,1-1.371-.151l-.088-.014c-.131-.022-.255-.042-.367-.057C18.85,52.9,9.589,51.456,1.195,49.888A1.376,1.376,0,0,1,.177,49.1C-.305,48.06-.156,45.63,5.32,35.948l.113-.2.1-.17a58.691,58.691,0,0,1,3.939-9.616,72.691,72.691,0,0,1,6.044-9.822C20.579,9.2,26.384,3.846,32.3.643A4.89,4.89,0,0,1,34.63,0c2.728,0,4.941,2.692,7.283,5.542.371.452.832,1.013,1.291,1.555.325.386.474.563-3.268,17.356C37.54,35.207,35,46.024,33.129,53.389,32.933,54.153,32.345,54.525,31.333,54.525ZM34.627,1.618h0a3.231,3.231,0,0,0-1.561.436C20.681,8.76,10.6,24.262,7.045,36.108a2.945,2.945,0,0,1-.327.629C1.662,45.678,1.529,47.873,1.609,48.332c8.326,1.553,17.521,2.985,28.109,4.378.157.021.332.05.513.081a7.97,7.97,0,0,0,1.135.136.993.993,0,0,0,.228-.021c4.083-16.124,9.766-41.988,10.179-45.015-.344-.409-.683-.82-1.01-1.218l-.089-.108c-2.527-3.077-4.2-4.945-6.047-4.945Z" transform="translate(54.423 64.232)"/>
          <path id="Shape-7" data-name="Shape" d="M6.247,141.421c7.3-.542,18.937,2.415,18.937,2.415s5.327-21.889,7.474-39.526a165.541,165.541,0,0,0,.1-34.844L74.137,48.471S135.059,27.064,115.37,5.187,3.623,37.073.737,46.321c-2.931,9.394,3.7,76.025,5.51,95.1" transform="translate(17.148 144.291)" fill="#fff"/>
          <path id="Shape-8" data-name="Shape" d="M25.994,145.444a.778.778,0,0,1-.2-.025h0c-.4-.1-9.88-2.454-16.83-2.454-.657,0-1.279.021-1.849.063h-.03a.805.805,0,0,1-.829-.726l-.4-4.176C2.194,99.814-1.7,54.821.78,46.887,3.136,39.337,53.637,9.054,87.292,1.7A65.689,65.689,0,0,1,101.06,0a28.648,28.648,0,0,1,9.323,1.365,15.1,15.1,0,0,1,6.392,4.091c3.6,4,4.855,8.287,3.718,12.734a18.573,18.573,0,0,1-3.146,6.312,36.865,36.865,0,0,1-5.559,5.881,84.41,84.41,0,0,1-14.967,10,165.918,165.918,0,0,1-21.608,9.651l-40.791,20.7a168.464,168.464,0,0,1-.157,34.476c-2.135,17.54-7.439,39.41-7.491,39.619a.805.805,0,0,1-.78.613Zm-17-4.088a59.831,59.831,0,0,1,9.572.935c3.013.5,5.576,1.08,6.835,1.378.88-3.71,5.367-23.009,7.271-38.652a166.191,166.191,0,0,0,.1-34.651.8.8,0,0,1,.434-.811L74.582,48.56l.049-.018A170.825,170.825,0,0,0,95.845,39.03,85.077,85.077,0,0,0,110.5,29.359a35.825,35.825,0,0,0,5.414-5.611,17.152,17.152,0,0,0,3.027-5.956c1-3.893-.134-7.683-3.355-11.263a13.639,13.639,0,0,0-5.85-3.7A27,27,0,0,0,101.1,1.594,64.245,64.245,0,0,0,87.636,3.265c-34.151,7.467-83.355,37.8-85.322,44.1-2.7,8.643,3,68.189,5.144,90.605v0l.325,3.408C8.179,141.364,8.587,141.356,8.994,141.356Z" transform="translate(16.338 143.486)"/>
          <path id="Shape-9" data-name="Shape" d="M6.247,144.579c7.3-.543,18.937,2.415,18.937,2.415s5.327-21.889,7.474-39.528a165.4,165.4,0,0,0,.1-34.843l41.384-21s25.78-24.81,6.09-46.675S3.624,40.218.738,49.466c-2.932,9.393,3.7,76.037,5.509,95.113" transform="translate(64.964 141.11)" fill="#fff"/>
          <path id="Shape-10" data-name="Shape" d="M25.993,148.6a.763.763,0,0,1-.2-.026l-.008,0c-.269-.067-2.719-.672-5.919-1.258a63.709,63.709,0,0,0-10.9-1.2c-.658,0-1.281.021-1.851.064H7.066a.815.815,0,0,1-.81-.727l-.4-4.19C2.193,102.956-1.7,57.962.78,50.031,3.238,42.158,39.052,5.983,63.27.691A28.077,28.077,0,0,1,69.226,0a17.853,17.853,0,0,1,6.951,1.307A15.269,15.269,0,0,1,81.632,5.22a30.669,30.669,0,0,1,5.483,8.413,25.81,25.81,0,0,1,2.024,8.378A32.606,32.606,0,0,1,86.159,37.34a49.337,49.337,0,0,1-3.332,6.288,57.881,57.881,0,0,1-3.445,4.929A46.843,46.843,0,0,1,75.5,53.011a.789.789,0,0,1-.194.136L34.421,73.893a168.388,168.388,0,0,1-.157,34.475c-2.128,17.489-7.438,39.407-7.491,39.621a.805.805,0,0,1-.78.613ZM9,144.513c6.184,0,14.118,1.771,16.4,2.313.88-3.71,5.367-23.009,7.271-38.653a165.809,165.809,0,0,0,.1-34.65.8.8,0,0,1,.434-.811L74.473,51.773a49.535,49.535,0,0,0,4.018-4.648,50.468,50.468,0,0,0,6.169-10.2c5.124-11.528,3.7-21.834-4.219-30.632a13.63,13.63,0,0,0-4.922-3.51,16.4,16.4,0,0,0-6.324-1.172,26.418,26.418,0,0,0-5.58.648C38.764,7.69,4.341,44.012,2.314,50.511c-2.7,8.634,2.995,68.147,5.137,90.551l.005.053.326,3.424C8.179,144.522,8.588,144.513,9,144.513Z" transform="translate(64.155 140.305)"/>
          <path id="Shape-11" data-name="Shape" d="M25.943.483l-2.819,22L0,22.879,1.96,0Z" transform="translate(19.416 282.791)"/>
          <path id="Shape-12" data-name="Shape" d="M25.943.482,23.124,22.491,0,22.891,1.96,0Z" transform="translate(67.232 282.756)"/>
          <g id="Group-3" data-name="Group" transform="translate(0 294.366)">
            <path id="Shape-13" data-name="Shape" d="M0,0H43.515V48.224H0Z" transform="translate(0 0)" fill="none"/>
            <g id="Group-4" data-name="Group" transform="translate(0 0)" clip-path="url(#clip-path)">
              <path id="Shape-14" data-name="Shape" d="M32.052,8.02S31.681-.155,26.65,0c-5.236.17-7.335,5.772-8.7,9.08-3.838,9.331-6.3,16.432-13.111,23.494C-3.636,41.366.385,46.908,6.5,48.055s6.689-4.008,10.251-3.96a11.016,11.016,0,0,0,5.682-.954c2.205-1.184,1.858-3.634,4.013-4.564,1.322-.567,5.252-.109,5.743-.736,1.012-1.317,1.256-2.354,2.356-3.779,1.311-1.7,6.812-1.244,7.861-3.1,1.366-2.415,1.176-26.452.961-26.706C42.919,3.746,32.052,8.02,32.052,8.02" transform="translate(0 0)" fill="#ffbe00"/>
            </g>
          </g>
          <path id="Shape-15" data-name="Shape" d="M32.051,8.019S31.682-.165,26.651,0c-5.237.157-7.336,5.759-8.7,9.067-3.838,9.334-6.3,16.444-13.111,23.508C-3.635,41.365.385,46.895,6.5,48.054s6.689-4.02,10.251-3.972a10.988,10.988,0,0,0,5.682-.941c2.205-1.184,1.858-3.635,4.013-4.564,1.322-.567,5.252-.109,5.743-.75,1.012-1.315,1.256-2.342,2.356-3.767,1.311-1.7,6.812-1.256,7.863-3.1,1.365-2.415,1.176-26.464.96-26.706-.446-.507-11.313,3.767-11.313,3.767" transform="translate(47.816 294.342)" fill="#ffbe00"/>
          <path id="Shape-16" data-name="Shape" d="M.8,20.174a.8.8,0,0,1-.318-1.541C12.928,13.3,33.871.254,34.082.122a.8.8,0,0,1,.85,1.363c-.211.13-21.26,13.242-33.812,18.624a.82.82,0,0,1-.316.065" transform="translate(8.451 317.302)" fill="#fff"/>
          <path id="Shape-17" data-name="Shape" d="M.8,20.174a.8.8,0,0,1-.318-1.541C12.928,13.3,33.871.253,34.082.121a.8.8,0,0,1,.85,1.363c-.211.13-21.26,13.241-33.812,18.624a.82.82,0,0,1-.316.065" transform="translate(56.267 317.279)" fill="#fff"/>
          <path id="Shape-18" data-name="Shape" d="M1.166,13.082c3.821,2.306,6.285-21.828.679-9.61C1.248,4.764.288,6,.188,7.432c-.134,1.908-.662,4.66.978,5.65" transform="translate(124.193 6.247)" fill="#fdfdfd"/>
          <path id="Shape-19" data-name="Shape" d="M9.554,5.746C28.776-9.84,30.139,10.165,38.055,19.92s.461,20.718,3.154,24.859C31.549,44.018.919,46.107.919,46.107s-6.6-23.9,15.548-31.825" transform="translate(98.931 6.17)"/>
          <path id="Shape-20" data-name="Shape" d="M17.01,31.1c2.316-4.733,2.7-7.534,3.481-11.216,1.7-8.017,3.785-16.552,3.785-16.552L34.161,0c1.487,13.932-.2,13.437,6.345,30.255,1.775,4.564,21.688,5.493,33.762,18.387s14.417,31.8,14.531,33.2c2.57,31.354-73.734,13.643-73.734,13.643L0,40.252S14.7,35.821,17.01,31.1" transform="translate(88.334 26.852)" fill="#fff"/>
          <path id="Shape-21" data-name="Shape" d="M57.015,102.111c-4.409,0-9.253-.25-14.4-.743-4.156-.4-8.524-.956-12.983-1.658-7.783-1.225-13.341-2.5-13.949-2.638a.807.807,0,0,1-.593-.572L.029,41.266a.8.8,0,0,1,.543-.979c3.994-1.2,14.749-5.123,16.521-8.736a35.089,35.089,0,0,0,3.14-9.692l.276-1.337C22.056,13.236,23.93,5.47,24.29,3.987l.01-.041a.8.8,0,0,1,.524-.57L34.709.042A.776.776,0,0,1,34.963,0a.8.8,0,0,1,.8.718c.35,3.279.529,5.816.672,7.855l0,.026v0c.468,6.662.662,9.419,5.621,22.165.578,1.486,4.365,2.783,8.751,4.284h0l.005,0C58.2,37.581,68.3,41.041,75.657,48.9a50.011,50.011,0,0,1,7.7,11,65.769,65.769,0,0,1,4.466,10.893A63.508,63.508,0,0,1,90.4,82.583c.426,5.2-1.215,9.436-4.879,12.6C80.2,99.78,70.606,102.111,57.015,102.111ZM34.271,1.886h0l-8.515,2.87c-.348,1.439-2.165,8.982-3.676,16.1l-.274,1.326v0a36.44,36.44,0,0,1-3.27,10.072,9.255,9.255,0,0,1-3.092,3.173A33.592,33.592,0,0,1,10.511,38.2a77.777,77.777,0,0,1-8.729,3.391L16.516,95.612c1.563.345,7.253,1.561,14.838,2.691a178.267,178.267,0,0,0,25.862,2.154h0c13.1,0,22.265-2.184,27.254-6.49,3.3-2.848,4.715-6.529,4.328-11.253a68.969,68.969,0,0,0-6.93-22.126,47.935,47.935,0,0,0-7.386-10.592c-7.081-7.562-16.963-10.947-24.18-13.419l-.013,0c-5.349-1.83-8.882-3.039-9.732-5.222-5.049-12.976-5.247-15.8-5.727-22.637-.132-1.89-.282-4.033-.564-6.828Z" transform="translate(87.53 26.048)"/>
          <path id="Shape-22" data-name="Shape" d="M14.765,12.252C6.261,18.542,0,30.217,0,30.217L24.358,34.43l-2,15.2,5.367,11.892s4.532,42.715,5.8,42.606c1.024-.1,52.712-.845,52.712-.845l3.2-36.135L88.05,38.765l25.154-5.7S109.867,19.725,99.27,12.614,72.484-1.765,71.685.384,59.6,33.271,57.97,32.813c-.132-.036-20.071.8-20.071.8S36.29,6.795,34.016,5.08c-1.937-1.473-10.746.881-19.251,7.171" transform="translate(62.712 57.858)" fill="#ffd2e1"/>
          <path id="Shape-23" data-name="Shape" d="M3.506,4.482C.743,6.076-1.328,1.85,1.023.317A2.091,2.091,0,0,1,2.937.16" transform="translate(100.035 32.535)" fill="#fff"/>
          <path id="Shape-24" data-name="Shape" d="M3.106,6.443A3.058,3.058,0,0,1,.544,4.929,3.228,3.228,0,0,1,1.39.45,2.874,2.874,0,0,1,4.047.222a.8.8,0,0,1-.607,1.487A1.284,1.284,0,0,0,2.267,1.8a1.654,1.654,0,0,0-.355,2.294,1.379,1.379,0,0,0,2,.5.8.8,0,0,1,.8,1.391,3.2,3.2,0,0,1-1.607.46" transform="translate(99.229 31.729)"/>
          <path id="Shape-25" data-name="Shape" d="M.656,37.029c1.019,6.1,6.445,8.149,10.382,8.1,4.15-.036,9.388-2.68,9.792-9.067.47-7.425.479-23.676-.225-26.561s-3.155-6.157-6.855-8.379C8.816-1.846,1.134,1.534.775,5.869-.41,20.224-.061,32.743.656,37.029Z" transform="translate(101.782 8.91)" fill="#fff"/>
          <path id="Shape-26" data-name="Shape" d="M11.689,46.731a12.08,12.08,0,0,1-6.924-2.108,9.782,9.782,0,0,1-2.621-2.731A10.452,10.452,0,0,1,.666,37.959C-.024,33.843-.445,21.392.776,6.6c.17-2.063,1.76-4.056,4.252-5.33A11.5,11.5,0,0,1,10.235,0a9.155,9.155,0,0,1,4.73,1.233c3.654,2.194,6.421,5.6,7.222,8.876.748,3.072.7,19.639.245,26.8-.424,6.687-5.785,9.777-10.587,9.818ZM10.238,1.6A9.9,9.9,0,0,0,5.76,2.7C3.766,3.719,2.5,5.227,2.376,6.731c-1.209,14.653-.8,26.927-.128,30.963a8.692,8.692,0,0,0,1.457,3.639,8.26,8.26,0,0,0,2.48,2.279,11.048,11.048,0,0,0,5.531,1.513h.112c4.083-.035,8.641-2.651,9-8.313.487-7.687.453-23.633-.2-26.321-.7-2.879-3.188-5.9-6.488-7.88A7.544,7.544,0,0,0,10.238,1.6Z" transform="translate(100.981 8.113)"/>
          <path id="Shape-27" data-name="Shape" d="M2.112,6.6A2.06,2.06,0,0,1,.3,5.782C-.753,4.208,1.275,1.21,1.922.328a.8.8,0,0,1,1.3.949C2.162,2.719,1.377,4.509,1.633,4.892c0,0,.256.249,1.5-.053A.8.8,0,1,1,3.51,6.4a5.963,5.963,0,0,1-1.4.2" transform="translate(105.258 32.182)"/>
          <path id="Shape-28" data-name="Shape" d="M0,.857A.8.8,0,0,1,.738,0a.805.805,0,0,1,.756.833.807.807,0,0,1-.738.857A.8.8,0,0,1,0,.857" transform="translate(110.962 31.27)"/>
          <path id="Shape-29" data-name="Shape" d="M0,.845A.8.8,0,0,1,.738,0a.789.789,0,0,1,.756.833.806.806,0,0,1-.738.857A.809.809,0,0,1,0,.845" transform="translate(103.444 31.04)"/>
          <path id="Shape-30" data-name="Shape" d="M0,4.464C2.742,6.082,4.865,1.893,2.534.335A2.057,2.057,0,0,0,.622.154" transform="translate(121.153 33.579)" fill="#fff"/>
          <path id="Shape-31" data-name="Shape" d="M2.025,6.433a3.194,3.194,0,0,1-1.63-.476.8.8,0,1,1,.816-1.384,1.379,1.379,0,0,0,2.008-.485,1.636,1.636,0,0,0-.328-2.283A1.258,1.258,0,0,0,1.727,1.7a.8.8,0,0,1-.6-1.489A2.875,2.875,0,0,1,3.787.472,3.218,3.218,0,0,1,4.58,4.942,3.07,3.07,0,0,1,2.025,6.433" transform="translate(120.35 32.778)"/>
          <path id="Shape-32" data-name="Shape" d="M1.144,1.163C1.137,1.031,1.128.91,1.121.777" transform="translate(104.04 37.254)" fill="#6295e6"/>
          <path id="Shape-33" data-name="Shape" d="M27.461,22.076c-1.113,5.2-6.143-.459-11.5-2.028C-28.975,6.8,36.142-18.538,27.461,22.076" transform="translate(98.633 7.564)"/>
          <path id="Shape-34" data-name="Shape" d="M16.617,6.386a.825.825,0,0,1-.25-.04C6.095,2.991.658,1.594.6,1.581A.8.8,0,0,1,1,.024c.054.014,5.533,1.422,15.865,4.8a.8.8,0,0,1-.25,1.566" transform="translate(85.243 108.714)"/>
          <path id="Shape-35" data-name="Shape" d="M.8,4.395A.8.8,0,0,1,0,3.6a12.672,12.672,0,0,1,.091-1.48A11.145,11.145,0,0,0,.173.815.8.8,0,0,1,.964,0H.976a.8.8,0,0,1,.8.791,12.641,12.641,0,0,1-.091,1.493,11.258,11.258,0,0,0-.082,1.3.8.8,0,0,1-.792.814Z" transform="translate(109.661 86.39)"/>
          <path id="Shape-36" data-name="Shape" d="M0,49.416,64.221,60.39,94.456,77.425s33.43-7.967,44.683-31.028S138.95,5.265,136.1.436C130.341,1.871,82.781,0,82.781,0s-28.2,14.089-48.9,26.44A325.985,325.985,0,0,0,0,49.416" transform="translate(13.838 140.255)" fill="#ff0e11"/>
          <path id="Shape-37" data-name="Shape" d="M.8,13.7A.8.8,0,0,1,.05,12.623c.9-2.456,3.236-9.365,3.2-11.808A.8.8,0,1,1,4.855.792C4.9,4.03,1.693,12.8,1.557,13.177A.8.8,0,0,1,.8,13.7" transform="translate(133.513 164.153)"/>
          <path id="Shape-38" data-name="Shape" d="M75.783,15.176C59.537,18.593,38.6,20.681,22.788,28.118c-2.393,1.123-12.063,7.3-13.439,9.127s6.883-1.69,6.883-1.69S.324,39.636,0,40.771c-.3,1.075,22.215-.048,27.02-1.352s5.131-1.34,7.965-2.246c4.439-1.413,26.33-2.475,44.437-2.209,12.781.169,24.684-.869,24.684-.869a66.642,66.642,0,0,0,.21-11.832C103.817,16.432,98.745,0,98.745,0" transform="translate(74.282 92.131)" fill="#fff"/>
          <path id="Shape-39" data-name="Shape" d="M5.545,42.805c-2.826,0-4.876-.164-5.288-.58a.978.978,0,0,1-.231-.867c.11-.39.341-1.207,9.494-3.813,1.572-2.037,11.35-8.238,13.723-9.351C35.1,22.62,50.024,19.989,63.188,17.668c4.666-.822,9.075-1.6,13.227-2.474a.8.8,0,0,1,.33,1.572c-4.177.879-8.6,1.658-13.279,2.483-13.065,2.3-27.874,4.915-39.539,10.4A100.446,100.446,0,0,0,13.094,36.56q1.712-.458,3.734-.978a.8.8,0,0,1,.514,1.516C11.5,39.584,10.124,39.548,9.62,39.2c-2.573.743-4.839,1.448-6.34,1.992,5.6.174,20.429-.691,24.328-1.748l2.939-.792c2.172-.582,2.9-.778,4.992-1.444,4.484-1.427,26.2-2.516,44.693-2.248,10.884.139,21.27-.6,23.943-.813a65.548,65.548,0,0,0,.14-11.017c-.489-5.679-5.491-21.931-5.542-22.094a.8.8,0,0,1,1.535-.474c.208.675,5.1,16.581,5.607,22.431a66.665,66.665,0,0,1-.213,12,.8.8,0,0,1-.728.705c-.117.01-12.082,1.037-24.764.872-18.029-.264-39.908.811-44.183,2.172-2.123.677-2.864.877-5.065,1.466L28.03,41c-2.565.7-15.14,1.807-22.485,1.807" transform="translate(73.485 91.327)"/>
          <path id="Shape-40" data-name="Shape" d="M5.487,15.237C-6.185,8.5,3.088-2.366,11.8.459s3.622,20.512-6.317,14.778" transform="translate(121.567 0)"/>
          <path id="Shape-41" data-name="Shape" d="M.8,13.932a.8.8,0,0,1-.371-1.516C4.209,10.458,7.969,8.338,11.6,6.289c3.67-2.069,7.464-4.209,11.305-6.2a.8.8,0,1,1,.739,1.427c-3.815,1.978-7.6,4.11-11.256,6.172s-7.419,4.183-11.22,6.155a.813.813,0,0,1-.37.089" transform="translate(77.846 185.319)"/>
          <path id="Shape-42" data-name="Shape" d="M.8,18.931a.8.8,0,0,1-.062-1.6L225.624,0a.821.821,0,0,1,.862.739.8.8,0,0,1-.739.862L.866,18.929l-.063,0" transform="translate(9.044 122.356)"/>
          <path id="Shape-43" data-name="Shape" d="M2.5,16.4h-.01a.8.8,0,0,1-.793-.813A121.629,121.629,0,0,0,.022.989.8.8,0,1,1,1.583.617,121.356,121.356,0,0,1,3.307,15.6a.8.8,0,0,1-.8.793" transform="translate(149.806 95.3)"/>
        </g>
        <path id="Shape-44" data-name="Shape" d="M16.9,48.605,0,5.155,68.711,0,86.644,43.717Z" transform="translate(23.711 88.469)" fill="#fff"/>
        <g id="Group-5" data-name="Group" transform="translate(23.135 88.081)">
          <path id="Shape-45" data-name="Shape" d="M17.664,49.97a.807.807,0,0,1-.747-.51L.054,6.221A.8.8,0,0,1,.742,5.133L69.311,0c.023,0,.046,0,.07,0a.8.8,0,0,1,.732.5L88.009,44a.8.8,0,0,1-.687,1.1l-69.6,4.864ZM68.851,1.643h0L1.943,6.649,18.2,48.329l67.9-4.745L68.851,1.643Z" transform="translate(0 0)"/>
          <path id="Shape-46" data-name="Shape" d="M67.874,32.751a.8.8,0,0,1-.744-.5L54.815,1.642.861,5.609A.79.79,0,0,1,0,4.869a.8.8,0,0,1,.741-.857L55.282,0a.8.8,0,0,1,.8.5L68.618,31.652a.8.8,0,0,1-.445,1.042.792.792,0,0,1-.3.058" transform="translate(9.001 7.213)"/>
        </g>
      </g>
    </g>
    <g id="Element" transform="translate(0 2.949)">
      <g id="Group-6" data-name="Group" transform="translate(9.447 28.274)">
        <path id="Shape-47" data-name="Shape" d="M82.018,0l-.248,64.9S57.523,66.784,44.72,69.629,6.141,74.665,6.141,74.665L.1,22.709s-2.668-5.532,19.633-12.577C31.617,6.379,82.018,0,82.018,0" transform="translate(0.947 3.286)" fill="#fff"/>
        <path id="Shape-48" data-name="Shape" d="M6.946,76.275a.8.8,0,0,1-.8-.712L.119,23.708A3.221,3.221,0,0,1,.346,21.4C1.465,18.8,5.835,14.739,20.3,10.17a132.6,132.6,0,0,1,14.45-3.126c5.545-.983,12.416-2.079,20.422-3.257,13.576-2,26.163-3.6,27.554-3.78a.8.8,0,0,1,.9.8L83.38,65.7a.8.8,0,0,1-.742.8c-.055,0-6.119.479-13.834,1.315-6.943.752-16.587,1.953-23.1,3.4-12.724,2.826-38.431,5.03-38.685,5.051ZM82.017,1.72c-3.526.454-16.046,2.086-29.138,4.044-16.746,2.5-27.546,4.5-32.1,5.942C6.165,16.322,2.628,20.158,1.82,22.034a1.891,1.891,0,0,0-.192,1.131.829.829,0,0,1,.075.257L7.654,74.6c4.3-.384,26.317-2.424,37.7-4.953C56.843,67.1,77.71,65.294,81.776,64.959Z" transform="translate(0.141 2.48)"/>
        <path id="Shape-49" data-name="Shape" d="M39.713,20.022l.822,75.27s-14.754-.859-26.851-8.28A79.437,79.437,0,0,1,1.746,77.994L0,0S1.844,8.5,17.812,14.926c10.008,4.019,21.9,5.1,21.9,5.1" transform="translate(0.804 24.736)" fill="#fff"/>
        <path id="Shape-50" data-name="Shape" d="M41.339,96.9h-.046A63.429,63.429,0,0,1,32,95.479a67.832,67.832,0,0,1-8.646-2.529A52.579,52.579,0,0,1,14.069,88.5,81.152,81.152,0,0,1,2,79.382a.8.8,0,0,1-.25-.564L0,.823A.8.8,0,0,1,.708.007.826.826,0,0,1,.812,0a.794.794,0,0,1,.777.635A13.254,13.254,0,0,0,4.522,5.529a27.928,27.928,0,0,0,5.235,4.626,46.435,46.435,0,0,0,9.158,4.829,75.926,75.926,0,0,0,14.46,3.989c4.154.763,7.091,1.041,7.214,1.052a.8.8,0,0,1,.73.793l.823,75.27a.806.806,0,0,1-.249.591A.793.793,0,0,1,41.339,96.9ZM1.689,4.5,3.345,78.441a80.171,80.171,0,0,0,11.563,8.69,55.718,55.718,0,0,0,15.368,6.256,70.546,70.546,0,0,0,10.25,1.834l-.805-73.669c-2.86-.322-12.858-1.642-21.4-5.074A45.632,45.632,0,0,1,7.064,10.185,24.6,24.6,0,0,1,1.689,4.5Z" transform="translate(0 23.931)"/>
        <path id="Shape-51" data-name="Shape" d="M36.329,0l-.3,26.777L.682,28.35,0,1.162Z" transform="translate(145.144 0.804)" fill="#fff"/>
        <path id="Shape-52" data-name="Shape" d="M1.52,29.959H1.484a.8.8,0,0,1-.8-.785L0,1.987a.807.807,0,0,1,.776-.824L37.105,0h.006a.824.824,0,0,1,.582.229.814.814,0,0,1,.241.585l-.3,26.777a.8.8,0,0,1-.766.8Zm34.8-28.324L1.625,2.745l.641,25.568,33.773-1.5Z" transform="translate(144.256 0)"/>
        <path id="Shape-53" data-name="Shape" d="M20.733,0l-.972,33.556L6.2,30.275.017,12.48S-.5,10.362,4.143,6.488C10.64,1.053,20.733,0,20.733,0" transform="translate(94.13 24.591)" fill="#fff"/>
        <path id="Shape-54" data-name="Shape" d="M20.556,35.168a.806.806,0,0,1-.189-.023L6.8,31.864a.8.8,0,0,1-.57-.518L.053,13.552A3.362,3.362,0,0,1,.4,11.42,14.243,14.243,0,0,1,4.424,6.675c6.618-5.538,16.6-6.626,17.02-6.67A.735.735,0,0,1,21.533,0a.8.8,0,0,1,.8.83l-.972,33.556a.805.805,0,0,1-.8.782ZM20.7,1.733a41.835,41.835,0,0,0-6.678,1.638A26.441,26.441,0,0,0,5.452,7.913C1.409,11.287,1.6,13.119,1.6,13.137L7.6,30.4,19.78,33.347Z" transform="translate(93.189 23.785)"/>
        <path id="Shape-55" data-name="Shape" d="M31.79,14.151l-.348,41.618s-10.69-.387-18.855-3.523A28.655,28.655,0,0,1,0,42.392L.121,0A20.861,20.861,0,0,0,10.69,9.9c7.843,3.426,21.1,4.249,21.1,4.249" transform="translate(94.767 36.515)" fill="#fff"/>
        <path id="Shape-56" data-name="Shape" d="M32.245,57.376h-.029c-.441-.016-10.9-.42-19.113-3.575A29.171,29.171,0,0,1,.133,43.638.815.815,0,0,1,0,43.193L.121.8A.806.806,0,0,1,.766.015.827.827,0,0,1,.922,0a.8.8,0,0,1,.74.49,16.856,16.856,0,0,0,2.3,3.549A20.977,20.977,0,0,0,7.095,7.13a21.009,21.009,0,0,0,4.718,2.837c7.629,3.332,20.7,4.176,20.83,4.184a.8.8,0,0,1,.754.81l-.348,41.617a.808.808,0,0,1-.247.575A.8.8,0,0,1,32.245,57.376ZM1.718,3.768,1.607,42.944A28.216,28.216,0,0,0,13.676,52.3a51.938,51.938,0,0,0,10.389,2.608c3.257.513,6.025.733,7.385.818l.334-40.02c-3.1-.242-13.755-1.266-20.612-4.26A22.349,22.349,0,0,1,1.718,3.768Z" transform="translate(93.814 35.712)"/>
        <path id="Shape-57" data-name="Shape" d="M3.913,8.306l-.1,0H3.807A3.789,3.789,0,0,1,1.049,6.989,4.259,4.259,0,0,1,0,4.039,4.021,4.021,0,0,1,3.922,0l.121,0A3.788,3.788,0,0,1,6.8,1.315a4.265,4.265,0,0,1,1.048,2.95A4.256,4.256,0,0,1,6.65,7.13,3.806,3.806,0,0,1,3.913,8.306Zm.023-6.7a2.215,2.215,0,0,0-1.619.721,2.657,2.657,0,0,0-.709,1.755,2.647,2.647,0,0,0,.646,1.84,2.2,2.2,0,0,0,1.6.77H3.92a2.206,2.206,0,0,0,1.613-.722A2.658,2.658,0,0,0,6.241,4.22,2.658,2.658,0,0,0,5.6,2.381,2.2,2.2,0,0,0,4,1.61Z" transform="translate(146.352 5.846)"/>
        <path id="Shape-58" data-name="Shape" d="M3.913,8.3H3.808A3.8,3.8,0,0,1,1.05,6.982,4.244,4.244,0,0,1,0,4.042,4.277,4.277,0,0,1,1.185,1.179,3.777,3.777,0,0,1,3.917,0l.124,0A3.8,3.8,0,0,1,6.8,1.314,4.244,4.244,0,0,1,7.847,4.256,4.254,4.254,0,0,1,6.65,7.12,3.807,3.807,0,0,1,3.913,8.3ZM3.9,1.61a2.416,2.416,0,0,0-2.29,2.477,2.635,2.635,0,0,0,.646,1.829,2.206,2.206,0,0,0,1.6.768l.1,0a2.161,2.161,0,0,0,1.6-.727,2.69,2.69,0,0,0,.695-1.75A2.642,2.642,0,0,0,5.6,2.382,2.209,2.209,0,0,0,4,1.612Z" transform="translate(146.972 16.557)"/>
        <path id="Shape-59" data-name="Shape" d="M.8,2.518A.805.805,0,0,1,.76.909L17.36,0a.813.813,0,0,1,.847.76.8.8,0,0,1-.758.847l-16.6.908H.8" transform="translate(162.956 6.815)"/>
        <path id="Shape-60" data-name="Shape" d="M.8,2.53A.805.805,0,0,1,.76.921L17.36,0a.816.816,0,0,1,.847.759.806.806,0,0,1-.758.849l-16.6.92H.8" transform="translate(162.956 17.262)"/>
        <path id="Shape-61" data-name="Shape" d="M.8,2.53A.805.805,0,0,1,.76.921L17.359,0a.805.805,0,0,1,.089,1.608l-16.6.92H.8" transform="translate(163.113 10.979)"/>
        <path id="Shape-62" data-name="Shape" d="M.8,2.529A.805.805,0,0,1,.76.92L17.358,0a.815.815,0,0,1,.847.76.8.8,0,0,1-.757.847l-16.6.92H.8" transform="translate(163.114 21.438)"/>
        <path id="Shape-63" data-name="Shape" d="M.8,15.01a.805.805,0,0,1-.312-1.547C13.578,7.958,43.62.173,62.82,0h.007a.805.805,0,0,1,.007,1.61c-19,.172-48.756,7.884-61.72,13.337a.808.808,0,0,1-.31.063" transform="translate(13.6 17.189)"/>
        <path id="Shape-64" data-name="Shape" d="M.8,9.176A.805.805,0,0,1,.542,7.61C12.575,3.455,25.244,1.74,37.5.08l.54-.073a.8.8,0,0,1,.215,1.6l-.541.074C24.977,3.4,12.948,5.029,1.066,9.133A.826.826,0,0,1,.8,9.176" transform="translate(30.99 32.15)"/>
        <path id="Shape-65" data-name="Shape" d="M.8,5.086A.805.805,0,0,1,.542,3.52C5.919,1.661,18.538.074,19.073.008a.8.8,0,0,1,.9.7.8.8,0,0,1-.7.9c-.129.016-12.988,1.633-18.206,3.437A.826.826,0,0,1,.8,5.086" transform="translate(45.966 47.825)"/>
        <path id="Shape-66" data-name="Shape" d="M.8,5.739A.8.8,0,0,1,.631,4.148C.783,4.114,15.943.788,23.346.006a.8.8,0,0,1,.883.715.8.8,0,0,1-.714.885C16.2,2.38,1.128,5.687.975,5.72A.771.771,0,0,1,.8,5.739" transform="translate(43.655 60.633)"/>
        <path id="Shape-67" data-name="Shape" d="M1.474,20.3H1.45a.8.8,0,0,1-.779-.828C.758,16.41.549,13.279.348,10.253.142,7.164-.069,3.972.022.783A.791.791,0,0,1,.846,0a.8.8,0,0,1,.78.828c-.088,3.111.122,6.266.325,9.316s.414,6.233.325,9.374a.8.8,0,0,1-.8.782" transform="translate(100.381 55.246)"/>
        <path id="Shape-68" data-name="Shape" d="M1.427,21.245H1.4a.8.8,0,0,1-.779-.828c.024-.872.056-1.77.088-2.686C.9,12.24,1.124,6.014.019.978A.8.8,0,1,1,1.588.633c1.147,5.234.925,11.566.729,17.154-.033.913-.063,1.807-.088,2.675a.8.8,0,0,1-.8.782" transform="translate(108.41 55.658)"/>
        <path id="Shape-69" data-name="Shape" d="M.8,18.631H.779A.8.8,0,0,1,0,17.8c.08-2.834.1-5.716.123-8.5S.166,3.627.247.783A.769.769,0,0,1,1.073,0a.8.8,0,0,1,.779.828c-.08,2.827-.1,5.7-.122,8.482-.021,2.8-.043,5.687-.124,8.538a.8.8,0,0,1-.8.782" transform="translate(118.062 59.423)"/>
        <path id="Shape-70" data-name="Shape" d="M14.556,5.733a.784.784,0,0,1-.28-.051c-.768-.287-1.671-.661-2.653-1.068C8.195,3.192,3.5,1.243.932,1.666A.8.8,0,0,1,.673.078c3.015-.5,7.756,1.468,11.565,3.048.961.4,1.848.765,2.6,1.047a.805.805,0,0,1-.28,1.559" transform="translate(102.692 56.027)"/>
        <path id="Shape-71" data-name="Shape" d="M14.98,5.823a.806.806,0,0,1-.469-.151C12.426,4.169,9.3,3.567,6.283,2.984A37.313,37.313,0,0,1,.524,1.561.806.806,0,0,1,1.084.05,35.442,35.442,0,0,0,6.586,1.4c3.192.615,6.491,1.252,8.864,2.961a.805.805,0,0,1-.47,1.459" transform="translate(100.752 62.219)"/>
        <path id="Shape-72" data-name="Shape" d="M14.972,6.1a.767.767,0,0,1-.278-.051A33.827,33.827,0,0,0,9.763,4.881C6.026,4.169,2.162,3.434.217,1.356A.8.8,0,1,1,1.389.254C2.974,1.95,6.741,2.667,10.063,3.3a34.663,34.663,0,0,1,5.187,1.242.805.805,0,0,1-.278,1.56" transform="translate(101.577 69.132)"/>
        <path id="Shape-73" data-name="Shape" d="M0,5.825A5.832,5.832,0,0,1,5.829,0a5.84,5.84,0,0,1,5.487,6.149A5.832,5.832,0,0,1,5.49,11.974,5.84,5.84,0,0,1,0,5.825" transform="translate(23.162 50.228)"/>
        <path id="Shape-74" data-name="Shape" d="M6.44,13.587c-.058,0-.112,0-.17,0A6.654,6.654,0,0,1,0,6.609a6.979,6.979,0,0,1,1.94-4.678A6.213,6.213,0,0,1,6.432,0c.074,0,.149,0,.223,0a6.657,6.657,0,0,1,6.267,6.978,6.93,6.93,0,0,1-1.973,4.682A6.294,6.294,0,0,1,6.44,13.587ZM6.512,1.612a4.743,4.743,0,0,0-3.4,1.464,5.311,5.311,0,0,0-1.5,3.578,5.046,5.046,0,0,0,4.71,5.322l.162,0a5.055,5.055,0,0,0,4.837-5.044A5.047,5.047,0,0,0,6.607,1.613h-.1Z" transform="translate(22.359 49.421)" fill="#fff"/>
        <path id="Shape-75" data-name="Shape" d="M67.272,74.979a284.137,284.137,0,0,0-34.778-6.488C13.921,66.288.471,66.106.471,66.106L0,0S43.349,2.227,60.861,4.624C71.209,6.053,93.326,11.633,100.1,15.87c8.384,5.242,8.445,9.369,8.445,9.369L86.563,66.675Z" transform="translate(350.994 2.281)" fill="#fff"/>
        <path id="Shape-76" data-name="Shape" d="M68.075,76.588a.836.836,0,0,1-.205-.025c-.035-.01-4.161-1.094-10.532-2.437-5.787-1.22-14.672-2.909-24.135-4.032C15.271,67.968,1.834,67.725,1.271,67.715H1.263a.807.807,0,0,1-.792-.8L0,.81A.805.805,0,0,1,.248.223.843.843,0,0,1,.83,0H.844L.909,0C5.4.239,45.219,2.365,61.773,4.632c10.839,1.495,32.871,7.178,39.554,11.359,8.665,5.417,8.82,9.854,8.823,10.04a.8.8,0,0,1-.094.39L88.075,67.857a.816.816,0,0,1-.391.362l-19.291,8.3A.8.8,0,0,1,68.075,76.588ZM1.612,1.652h0l.459,64.47c3.368.084,15.582.507,31.321,2.374,7.206.855,14.912,2.123,22.9,3.769,6.226,1.282,10.541,2.368,11.716,2.671l18.778-8.084,21.729-40.963a7.491,7.491,0,0,0-1.5-2.952,24.276,24.276,0,0,0-6.537-5.58C93.957,13.279,72.261,7.7,61.556,6.226c-15.78-2.16-52.7-4.189-59.943-4.574Z" transform="translate(350.19 1.477)"/>
        <path id="Shape-77" data-name="Shape" d="M57.754,0l.229,73.805S49.649,83.55,29.625,89.118C7.341,95.316,0,94.723,0,94.723L.128,22.189a248.117,248.117,0,0,0,30.342-6.5C51.029,9.66,57.754,0,57.754,0" transform="translate(401.766 27.193)" fill="#fff"/>
        <path id="Shape-78" data-name="Shape" d="M1.442,96.351c-.191,0-.468,0-.7-.019h0a.81.81,0,0,1-.739-.8L.129,22.993a.808.808,0,0,1,.69-.8,249.5,249.5,0,0,0,30.229-6.476A78.09,78.09,0,0,0,43.7,10.851,55.314,55.314,0,0,0,51.97,5.863,28.271,28.271,0,0,0,57.9.344.8.8,0,0,1,59.361.8l.23,73.806a.809.809,0,0,1-.194.526c-.346.405-8.715,9.992-28.755,15.564A199.991,199.991,0,0,1,9.9,95.473,54.936,54.936,0,0,1,1.442,96.351ZM57.761,2.983h0A41.262,41.262,0,0,1,49.386,9.57a73.874,73.874,0,0,1-17.887,7.7C26.053,18.858,19.832,20.35,13.01,21.7c-5.446,1.078-9.7,1.75-11.276,1.988L1.609,94.735a58.675,58.675,0,0,0,8.432-.927,199.617,199.617,0,0,0,20.174-4.659,80.914,80.914,0,0,0,11.694-4.216A66.282,66.282,0,0,0,50.3,80.4a41.9,41.9,0,0,0,7.687-6.1L57.761,2.983Z" transform="translate(400.962 26.388)"/>
        <path id="Shape-79" data-name="Shape" d="M62.536,9.987C62.255,20,62.255,20,61.975,30.009,30.386,29.863,31.589,28.411,0,28.266.395,18.351.342,9.9.735,0c31.476.048,30.325,9.938,61.8,9.987" transform="translate(210.192 2.959)" fill="#fff"/>
        <path id="Shape-80" data-name="Shape" d="M62.778,31.62h0c-15.816-.073-23.548-.479-31.026-.873-7.459-.392-15.172-.8-30.949-.871a.806.806,0,0,1-.8-.838C.2,24.171.281,19.58.365,15.14l0-.236C.452,10.413.538,5.771.736.774A.8.8,0,0,1,1.538,0C17.406.025,25.175,2.571,32.689,5.034c7.39,2.423,15.031,4.929,30.652,4.953a.8.8,0,0,1,.8.828l-.562,20.022A.8.8,0,0,1,62.778,31.62ZM2.311,1.614c-.174,4.614-.256,8.989-.335,13.221l0,.1c-.074,4.036-.158,8.609-.336,13.337,15.267.083,22.856.482,30.2.868s14.9.785,30.163.867l.517-18.411c-15.312-.11-22.943-2.611-30.323-5.03l-.005,0C24.916,4.181,17.4,1.718,2.311,1.614Z" transform="translate(209.405 2.153)"/>
        <path id="Shape-81" data-name="Shape" d="M40.251,10.753c-5.358-3.329-9.19.315-17.246.351S13.91,4.41,9.076,1.952A16.074,16.074,0,0,0,.368.052L0,17.362l50.275,2.385a48.253,48.253,0,0,0-10.024-8.994" transform="translate(217.462 8.548)" fill="#ffd2e1"/>
        <path id="Shape-82" data-name="Shape" d="M.8,17.058H.768A.806.806,0,0,1,0,16.218L.679.771a.8.8,0,1,1,1.6.071L1.606,16.289a.8.8,0,0,1-.8.77" transform="translate(222.302 9.258)"/>
        <path id="Shape-83" data-name="Shape" d="M.8,17.056H.768A.805.805,0,0,1,0,16.216L.68.769A.843.843,0,0,1,1.518,0,.8.8,0,0,1,2.284.84L1.6,16.286a.8.8,0,0,1-.8.77" transform="translate(239.852 10.761)"/>
        <path id="Shape-84" data-name="Shape" d="M.8,13.823H.764A.8.8,0,0,1,0,12.979L.589.765A.832.832,0,0,1,1.431,0a.8.8,0,0,1,.762.843L1.6,13.057a.8.8,0,0,1-.8.766" transform="translate(258.617 14.454)"/>
        <path id="Shape-85" data-name="Shape" d="M58.175,11.755a.83.83,0,0,1-.251-.04C42.849,6.747,17.746,2.87.744,1.608A.8.8,0,0,1,.862,0c17.1,1.269,42.365,5.174,57.564,10.182a.805.805,0,0,1-.251,1.57" transform="translate(386.994 17.43)"/>
        <path id="Shape-86" data-name="Shape" d="M70.887,9.455a.812.812,0,0,1-.169-.018C57.139,6.537,23.151,0,.873,1.972A.805.805,0,0,1,.731.368C23.225-1.618,57.4,4.946,71.054,7.864a.805.805,0,0,1-.167,1.592" transform="translate(362.094 30.672)"/>
        <path id="Shape-87" data-name="Shape" d="M38.863,4.007A.79.79,0,0,1,38.732,4C26.2,1.943,15.316,1.8,2.711,1.635L.793,1.61A.805.805,0,0,1,.8,0H.814L2.732.025C15.4.191,26.344.334,38.991,2.408a.8.8,0,0,1-.128,1.6" transform="translate(342.538 44.377)"/>
        <path id="Shape-88" data-name="Shape" d="M37.192,5.157a.754.754,0,0,1-.115-.008c-1.5-.214-2.966-.427-4.41-.639C22.57,3.032,13.849,1.756.793,1.61A.805.805,0,0,1,.8,0h.01A218.045,218.045,0,0,1,32.9,2.916c1.443.211,2.907.425,4.405.639a.8.8,0,0,1-.112,1.6" transform="translate(341.101 57.547)"/>
      </g>
      <g id="Group-7" data-name="Group" transform="translate(0 106.115)">
        <path id="Shape-89" data-name="Shape" d="M0,19.386l33.4.41,9.925,6.092L41.856,1.822.016,0Z" fill="#ffd2e1"/>
        <path id="Shape-90" data-name="Shape" d="M28.707,2.367h-.023L.775,1.605A.8.8,0,0,1,0,.782.81.81,0,0,1,.818,0L28.729.761a.8.8,0,0,1-.022,1.606" transform="translate(6.136 5.618)"/>
        <path id="Shape-91" data-name="Shape" d="M0,.423l27.91.761" transform="translate(6.419 11.227)" fill="#fff"/>
        <path id="Shape-92" data-name="Shape" d="M28.707,2.366h-.023L.776,1.606A.8.8,0,0,1,0,.781.79.79,0,0,1,.819,0l27.91.76a.8.8,0,0,1-.022,1.606" transform="translate(5.622 10.847)"/>
      </g>
      <g id="Group-8" data-name="Group" transform="translate(281.158 0)">
        <path id="Shape-93" data-name="Shape" d="M.447,9.819C2.112,3.151,7.942-1.121,13.465.259s8.655,7.927,6.991,14.583S12.961,25.781,7.437,24.4-1.218,16.475.447,9.819" transform="translate(160.961 76.187)" fill="#ffbe00"/>
        <path id="Shape-94" data-name="Shape" d="M7.774,20.327a7.066,7.066,0,0,1-1.727-.215C1.546,18.976-1,13.593.371,8.11A11.432,11.432,0,0,1,4.449,1.722,8.027,8.027,0,0,1,9.285,0,7.087,7.087,0,0,1,11.02.216a7.563,7.563,0,0,1,4.617,3.553,11.253,11.253,0,0,1,1.058,8.448A11.44,11.44,0,0,1,12.617,18.6,8.039,8.039,0,0,1,7.774,20.327ZM1.927,8.5h0c-1.157,4.622.867,9.13,4.511,10.048a5.417,5.417,0,0,0,1.331.166,6.457,6.457,0,0,0,3.882-1.4,9.828,9.828,0,0,0,3.488-5.489A9.637,9.637,0,0,0,14.261,4.6a5.886,5.886,0,0,0-3.63-2.821A5.5,5.5,0,0,0,9.3,1.613a6.456,6.456,0,0,0-3.881,1.4A9.794,9.794,0,0,0,1.929,8.5Z" transform="translate(162.879 78.353)"/>
        <path id="Shape-95" data-name="Shape" d="M2.693,13.673C-.883,8.918-.9,3.218,2.654.943s9.329-.266,12.905,4.49,3.592,10.456.039,12.743-9.329.266-12.9-4.5" transform="translate(139.775 121.441)" fill="#ffbe00"/>
        <path id="Shape-96" data-name="Shape" d="M10.078,16.081c-2.738,0-5.738-1.73-7.827-4.516A9.845,9.845,0,0,1,.1,4.222,4.963,4.963,0,0,1,2.287.806,5.326,5.326,0,0,1,5.2,0c2.741,0,5.742,1.728,7.83,4.51a9.858,9.858,0,0,1,2.145,7.344,4.959,4.959,0,0,1-2.183,3.415A5.3,5.3,0,0,1,10.078,16.081ZM5.15,1.627a3.658,3.658,0,0,0-2,.537A3.382,3.382,0,0,0,1.683,4.507,8.236,8.236,0,0,0,3.531,10.6,10.636,10.636,0,0,0,6.7,13.426a7.013,7.013,0,0,0,3.427,1.027,3.644,3.644,0,0,0,2-.541,3.384,3.384,0,0,0,1.469-2.344,8.246,8.246,0,0,0-1.848-6.091A10.631,10.631,0,0,0,8.58,2.653,7.027,7.027,0,0,0,5.15,1.627Z" transform="translate(141.262 122.957)"/>
        <path id="Shape-97" data-name="Shape" d="M1.779,9.04C-.583,5.893-.595,2.118,1.752.617S7.914.448,10.275,3.582s2.374,6.91.028,8.423-6.163.169-8.523-2.965" transform="translate(0 0)" fill="#ffbe00"/>
        <path id="Shape-98" data-name="Shape" d="M6.932,11.164A7.163,7.163,0,0,1,1.54,8.082,6.8,6.8,0,0,1,.073,3.015,3.542,3.542,0,0,1,1.635.578,3.745,3.745,0,0,1,3.7,0,7.166,7.166,0,0,1,9.091,3.082,6.8,6.8,0,0,1,10.56,8.148,3.554,3.554,0,0,1,9,10.586,3.756,3.756,0,0,1,6.932,11.164ZM3.69,1.612a2.161,2.161,0,0,0-1.19.321A2,2,0,0,0,1.65,3.3a5.187,5.187,0,0,0,1.17,3.813A6.844,6.844,0,0,0,4.811,8.9a4.325,4.325,0,0,0,2.13.652,2.163,2.163,0,0,0,1.191-.322,2.009,2.009,0,0,0,.849-1.368A5.184,5.184,0,0,0,7.81,4.05,6.832,6.832,0,0,0,5.82,2.264,4.328,4.328,0,0,0,3.69,1.612Z" transform="translate(0.712 0.729)"/>
        <path id="Shape-99" data-name="Shape" d="M11.5,12.238c-3.882,2.9-8.642,3.038-10.629.278S.417,5.17,4.3,2.266,12.943-.772,14.93,1.987s.452,7.346-3.431,10.25" transform="translate(52.291 70.767)" fill="#ffbe00"/>
        <path id="Shape-100" data-name="Shape" d="M4.633,12.488a5.856,5.856,0,0,1-.906-.068,4.31,4.31,0,0,1-2.94-1.7C-.96,8.3.293,4.433,3.641,1.921A9.123,9.123,0,0,1,8.931,0a6.084,6.084,0,0,1,.9.065,4.319,4.319,0,0,1,2.942,1.7c1.748,2.422.493,6.288-2.856,8.8A9.11,9.11,0,0,1,4.633,12.488ZM8.909,1.607A7.477,7.477,0,0,0,4.6,3.209C2.051,5.125.9,8.132,2.086,9.777A2.792,2.792,0,0,0,3.967,10.83a4.586,4.586,0,0,0,.678.049,7.48,7.48,0,0,0,4.31-1.6c2.552-1.915,3.7-4.923,2.516-6.568A2.794,2.794,0,0,0,9.589,1.657,4.642,4.642,0,0,0,8.909,1.607Z" transform="translate(53.411 71.776)"/>
      </g>
    </g>
    <g id="Element-2" data-name="Element" transform="translate(312.38 0.49)">
      <path id="Shape-101" data-name="Shape" d="M31.935.345A28.858,28.858,0,0,1,39.978,21.3a28.88,28.88,0,0,1-8.828,20.11,26.568,26.568,0,0,1-19.172,7.47A26.257,26.257,0,0,1,.268,45.748C-3.155,43.907,27.206-4.534,31.935.345" transform="translate(14.449 7.847)" fill="#ffd2e1"/>
      <path id="Shape-102" data-name="Shape" d="M20.615.007A26.7,26.7,0,0,0,.679,8.265C-2.763,11.824,7.69,20.336,13.9,24.912c.058.048.144-.012.188.048.127.182.444.387.622.581.024.024.051.061.073.085,2.016,1.465,3.392,2.4,3.392,2.4s-.213-.073-.224-.073c.4.242.637.436,1.108.7.07.048.544.291.889.484L39,8.18S33.557.322,20.615.007" transform="translate(7.4 0)" fill="#ff0e11"/>
      <path id="Shape-103" data-name="Shape" d="M8.188.067C3.7-.236.094.43.012,3.275A28.927,28.927,0,0,0,5.921,21.727a27.765,27.765,0,0,0,8.811,7.555l12.624-24.8S22.745,3.433,21.8,2.609A76.274,76.274,0,0,0,8.188.067" transform="translate(0 24.324)" fill="#ffbe00"/>
      <path id="Shape-104" data-name="Shape" d="M0,19.335A47.953,47.953,0,0,1,1.632,11.1,28.93,28.93,0,0,1,8.044,0L27.43,20.958Z" transform="translate(0.026 8.265)" fill="#00b2b2"/>
    </g>
    <g id="Element-3" data-name="Element" transform="translate(320.83 124.349)">
      <path id="Shape-105" data-name="Shape" d="M3.5,47.376C-1.754,41.188-.552,32,3.544,23.361c.735-1.55,4.755-2.1,4.755-2.1s-.948-4.626-.227-5.656a56.917,56.917,0,0,1,6.012-7.279c1.667-1.708,6.156-1.284,6.156-1.284s2.469-5.535,4.136-6.2c3.458-1.381,6.476-1.163,8.36,1.32,8.014,10.573-14.3,25.009-18.483,31.742C11.51,38.329,7.416,51.99,3.5,47.376" transform="translate(16.673 0)" fill="#00b2b2"/>
      <path id="Shape-106" data-name="Shape" d="M14.313,40.741C8.726,44.556-4.536,7.412,1.574.449,2.53-.629,4.853.5,5.708,1.1c1.467,1.042,2.955,3.306,4.336,6.273.44.945-.244,4.9-.244,4.9s2.638,1.163,3.136,2.8c3.241,10.561,4.744,23.362,1.376,25.663" transform="translate(0 14.762)" fill="#00b2b2"/>
      <path id="Shape-107" data-name="Shape" d="M2.32,42.02C-9.155,35.9,25.047-2.5,36.993.129,53.474,3.762,5.466,43.7,2.32,42.02" transform="translate(21.502 23.838)" fill="#00b2b2"/>
      <path id="Shape-108" data-name="Shape" d="M.8,62.091h0a.8.8,0,0,1-.8-.808C.107,28.143,11.6,9.792,21.219.232a.8.8,0,0,1,1.128,1.146C12.942,10.722,1.71,28.7,1.6,61.288a.8.8,0,0,1-.8.8" transform="translate(18.446 10.833)"/>
      <path id="Shape-109" data-name="Shape" d="M15.089,51.542a.8.8,0,0,1-.792-.694C12.189,35.691,7.8,20.35.059,1.106A.8.8,0,1,1,1.545.5C9.336,19.874,13.759,35.332,15.884,50.626a.8.8,0,0,1-.683.91.886.886,0,0,1-.112.007" transform="translate(3.582 21.466)"/>
      <path id="Shape-110" data-name="Shape" d="M.8,38.742a.765.765,0,0,1-.147-.013.806.806,0,0,1-.643-.939c2.569-13.93,13.4-22.7,23.866-31.178,2.7-2.188,5.254-4.256,7.668-6.409a.8.8,0,1,1,1.065,1.2C30.171,3.586,27.6,5.665,24.887,7.866c-10.244,8.3-20.836,16.874-23.3,30.217a.8.8,0,0,1-.788.659" transform="translate(18.613 33.274)"/>
      <path id="Shape-111" data-name="Shape" d="M4.654.835,17.323.011a5,5,0,0,1,.647,9.979L5.3,10.814A5,5,0,0,1,4.654.835" transform="translate(6.314 66.972)"/>
      <path id="Shape-112" data-name="Shape" d="M1.177,15.418a.8.8,0,0,1-.784-.646C-.478,10.478.228,4.414,1.252.6A.8.8,0,0,1,2.235.028a.808.808,0,0,1,.567.987c-1.008,3.756-1.619,9.577-.838,13.437a.8.8,0,0,1-.625.949.821.821,0,0,1-.162.016" transform="translate(26.108 16.173)"/>
      <path id="Shape-113" data-name="Shape" d="M7.227,8.691C5.627,8.691,2.073,6.76,1.008,5a.8.8,0,1,1,1.37-.837A8.743,8.743,0,0,0,5.954,6.714c-.1-.091-.2-.188-.318-.293C4.5,5.416,2.406,3.429,1.154,2.244l-.9-.849A.8.8,0,0,1,1.348.215l.906.856C3.5,2.252,5.586,4.226,6.7,5.216,8.122,6.486,8.593,7.25,8.378,7.941a1.082,1.082,0,0,1-.949.739,1.514,1.514,0,0,1-.2.012" transform="translate(3.734 36.252)"/>
    </g>
  </g>
</svg>
