<svg id="pinterest" xmlns="http://www.w3.org/2000/svg" width="24" height="24" viewBox="0 0 24 24">
  <rect id="Retângulo_10" data-name="Retângulo 10" width="24" height="24" fill="rgba(255,255,255,0)"/>
  <g id="logo-pinterest" transform="translate(4 4)">
    <path id="Caminho_8" data-name="Caminho 8" d="M8,0A8.024,8.024,0,0,0,0,8a7.838,7.838,0,0,0,5.1,7.4,8.845,8.845,0,0,1,0-2.3c.1-.6.9-4,.9-4A2.653,2.653,0,0,1,5.8,8c0-1.1.7-2,1.5-2a.972.972,0,0,1,1,1.1,11.98,11.98,0,0,1-.7,2.7,1.125,1.125,0,0,0,1.2,1.4c1.4,0,2.5-1.5,2.5-3.7A3.206,3.206,0,0,0,8,4.2,3.44,3.44,0,0,0,4.4,7.7,3.216,3.216,0,0,0,5,9.5v.4a5.073,5.073,0,0,0-.2.9c0,.1-.1.2-.3.1A3.577,3.577,0,0,1,2.9,7.8C2.9,5.3,4.7,3,8.2,3a4.662,4.662,0,0,1,4.9,4.6c0,2.8-1.7,5-4.2,5a2,2,0,0,1-1.8-.9s-.4,1.5-.5,1.9a10.243,10.243,0,0,1-1,2.1A9.863,9.863,0,0,0,8,16,8,8,0,0,0,8,0Z" fill="#212529"/>
  </g>
</svg>
